<?xml version="1.0" encoding="utf-8"?>
<!-- Generator: Adobe Illustrator 23.0.5, SVG Export Plug-In . SVG Version: 6.00 Build 0)  -->
<svg version="1.1" id="Layer_1" xmlns="http://www.w3.org/2000/svg" xmlns:xlink="http://www.w3.org/1999/xlink" x="0px" y="0px"
	 viewBox="0 0 456 140.7" style="enable-background:new 0 0 456 140.7;" xml:space="preserve">
<style type="text/css">
	.st0{fill:#33459C;}
	.st1{fill:#1F160E;}
	.st2{fill:#98221F;}
</style>
<g>
	<g>
		<path class="st0" d="M11.9,33.9c-2.5,0-4.4-0.9-4.4-2.8c0-0.7,0.2-1.6,0.8-2.8c1-2.1,3.6-4.3,7.7-6.5L15.8,20
			c0.6-0.7,1.3-1.4,1.9-2H18c0.1,3.7,0.1,7.4,0.1,11.1c0,1.6,0.2,2.7,0.9,3.4c0.6,0.5,1.5,0.6,2.5,0.6h0.6v3h-0.5
			c-2.4,0-4.1-0.6-5-3.3C15.3,33.4,13.8,33.9,11.9,33.9z M16.2,24.4c-4.3,2.2-6.5,4-6.5,5.2c0,0.9,1.4,1.3,3.1,1.3
			c1,0,2.1-0.2,3.6-0.7L16.2,24.4z M13.3,16c-1-0.9-1.9-1.7-2.8-2.5c0.6-0.9,1.3-1.6,1.9-2.3c1,0.8,1.8,1.5,2.7,2.5
			C14.5,14.7,14,15.3,13.3,16z M18,15.7c-1-0.9-1.9-1.7-2.8-2.5c0.6-0.9,1.3-1.6,1.9-2.3c1,0.8,1.8,1.5,2.7,2.5
			C19.1,14.4,18.6,15,18,15.7z"/>
		<path class="st0" d="M22.7,33.1c1.9,0,3.8-0.7,4.1-2.1l0.7-2.6l1.7-1.2l0.1,0.2c-0.3,1.2-0.5,2.2-0.5,2.8c0,0.8,0.2,1.5,0.8,2
			c0.8,0.6,1.7,1,3,1h0.4v3h-0.6c-2.4,0-4.1-0.6-5-2.4h-0.1c-0.8,1.6-2.7,2.4-4.8,2.4h-0.5c-1.3,0-1.7-1-1.7-1.6
			c0-0.6,0.4-1.5,1.7-1.5H22.7z M25.4,45.6c-1-0.9-1.9-1.7-2.8-2.5c0.6-0.9,1.3-1.6,1.9-2.3c1,0.8,1.8,1.5,2.7,2.5
			C26.6,44.4,26.1,45,25.4,45.6z M30.1,45.3c-1-0.9-1.9-1.7-2.8-2.5c0.6-0.9,1.3-1.6,1.9-2.3c1,0.8,1.8,1.5,2.7,2.5
			C31.2,44.1,30.8,44.7,30.1,45.3z"/>
		<path class="st0" d="M34.6,33.1c0.9,0,2.2-0.1,3.6-0.5v-0.1c-1.7-1.1-2.8-2.6-2.8-4.7c0-1,0.4-2,1-3.1c1.1-1.9,2.9-3.2,5-3.2
			c2.2,0,4.1,1.5,5.4,3.9l-0.5,0.5c-1.3-1.1-2.6-1.5-4.3-1.5c-2.6,0-4.4,1.2-4.4,2c0,1.1,0.7,2.3,2.1,3.4c0.9,0.7,2.2,1.3,2.9,1.3
			c1.8,0,4-0.7,6.9-1.7l0.1,0.1l-1.3,3c-3.8,1.3-5.6,1.5-8.6,2.5c-2.1,0.7-4,1.3-5.9,1.3h-0.7c-1.3,0-1.7-1-1.7-1.6
			c0-0.6,0.4-1.5,1.7-1.5H34.6z"/>
		<path class="st0" d="M59.4,36.1h-0.3c-1.9,0-3.1-0.4-4.1-1.4c-1.5-1.5-1.5-3.2-1.5-6.7c0-4.5-0.3-9.3-0.6-14.3
			c0.8-0.9,1.6-1.7,2.3-2.2l0.2,0.1c0.4,5.2,0.4,11.4,0.4,17.2v1.4c0,1.5,0.9,2.2,1.8,2.5c0.6,0.2,1.2,0.3,1.5,0.3h0.3V36.1z"/>
		<path class="st0" d="M59.9,33.1c1.9,0,3.8-0.7,4.1-2.1l0.7-2.6l1.7-1.2l0.1,0.2c-0.3,1.2-0.5,2.2-0.5,2.8c0,0.8,0.2,1.5,0.8,2
			c0.8,0.6,1.7,1,3,1h0.4v3h-0.6c-2.4,0-4.1-0.6-5-2.4h-0.1c-0.8,1.6-2.7,2.4-4.8,2.4h-0.5c-1.3,0-1.7-1-1.7-1.6
			c0-0.6,0.4-1.5,1.7-1.5H59.9z M64.1,18.7c1,0.7,2,1.6,2.9,2.5c-0.5,0.9-1.2,1.6-2,2.3c-0.9-0.9-1.9-1.6-2.8-2.5
			C62.8,20.3,63.4,19.4,64.1,18.7z"/>
		<path class="st0" d="M70.8,33.1c2,0,3.7-0.7,4-2.1c0.2-0.9,0.4-1.8,0.6-2.7c0.5-0.5,1.1-0.9,1.6-1.2l0.1,0.1
			c-0.2,0.8-0.4,1.5-0.4,2.2c0,1.2,0.3,2,1.3,2.6c1.4-2.1,2.9-4.2,5-6c1.5-1.3,3.3-2.5,5.4-2.5c3.4,0,5.4,2.5,5.4,5.3
			c0,1.4-0.5,2.8-1.2,4.2h3.2v3h-0.6c-2.4,0-4.7-0.2-7.2-0.8c-1.5,0.5-3.1,0.8-5.6,0.8c-3.1,0-5.5-0.7-6.8-2.5h-0.1
			c-1.3,2-3.4,2.5-5,2.5h-0.3c-1.3,0-1.7-1-1.7-1.6c0-0.6,0.4-1.5,1.7-1.5H70.8z M83.8,33.1c2.4,0,5-0.5,6.3-1.1
			c1.2-0.5,2-1.1,2-1.8c-0.3-2-2.4-3.5-4.5-3.5c-2.8,0-5.5,2.3-8.1,5.9C80.3,32.9,81.7,33.1,83.8,33.1z"/>
		<path class="st0" d="M96.4,33.1c0.8,0,1.7-0.1,2.7-0.6c0.8-0.5,1.3-1.3,1.3-2.6c0-3.8-0.3-8-0.7-12.4c-0.1-1.1-0.2-2.1-0.2-3
			c0-0.5,0.2-1.1,0.7-1.6c0.3-0.4,0.8-0.9,1.3-1.3l0.2,0.1c0,1.5,0.7,3.4,2,5.5c-0.4,0.4-0.9,0.8-1.5,1.2c0.1,2.7,0.3,5.6,0.3,8.3
			c0,2.6-0.3,4.5-1,6c-0.5,1.2-1.1,2.2-2.2,2.8c-0.9,0.5-2.1,0.7-3,0.7h-0.4c-1.3,0-1.7-1-1.7-1.6c0-0.6,0.4-1.5,1.7-1.5H96.4z"/>
		<path class="st0" d="M107.8,36.5c0.2-1.5,0.3-3.2,0.3-4.8v-2.3c0-4.4-0.5-10.7-0.9-14.8c0.7-0.9,1.6-1.9,2.4-2.5l0.2,0.1
			c0.5,5.2,0.6,11.2,0.6,16.8c0,1.5,0,2.9-0.2,3.9c-0.1,1.3-0.7,2.3-2.1,3.8L107.8,36.5z"/>
		<path class="st0" d="M137.5,37.1c-6.7,0-11.8-2.4-11.8-8.3c0-1.9,0.4-3.8,1.4-5.8l1,0.4c-0.5,1.4-0.7,2.6-0.7,3.6
			c0,4.8,4.8,6.8,10.8,6.8c2.8,0,5.6-0.4,8.2-1c1.1-0.3,2.2-0.5,3.2-1c0.2-0.1,0.2-0.2,0.2-0.3c0-1.1-1.2-3.5-2.4-5.9
			c0.6-1,1.2-1.9,1.8-2.7h0.1c1.1,1.9,2.4,4.9,2.4,7.3c0,1.8-0.6,2.9-1.3,4C148.4,35.5,142.2,37.1,137.5,37.1z M136.5,21.2
			c-1-0.9-1.9-1.7-2.8-2.5c0.6-0.9,1.3-1.6,1.9-2.3c1,0.8,1.8,1.5,2.7,2.5C137.7,20,137.2,20.6,136.5,21.2z M141.2,20.9
			c-1-0.9-1.9-1.7-2.8-2.5c0.6-0.9,1.3-1.6,1.9-2.3c1,0.8,1.8,1.5,2.7,2.5C142.3,19.7,141.8,20.3,141.2,20.9z"/>
		<path class="st0" d="M156.4,36.5c0.2-1.5,0.3-3.2,0.3-4.8v-2.3c0-4.4-0.5-10.7-0.9-14.8c0.7-0.9,1.6-1.9,2.4-2.5l0.2,0.1
			c0.5,5.2,0.6,11.2,0.6,16.8c0,1.5,0,2.9-0.2,3.9c-0.1,1.3-0.7,2.3-2.1,3.8L156.4,36.5z"/>
		<path class="st0" d="M168.8,23.8l1.7,3.2c0.6,1.2,1.2,2.5,1.2,4.5v2.6c0,2.1-1.2,4.4-3,6.6c-1.5,1.5-2.8,2.2-4,2.2
			c-1.8,0-3.8-0.6-6.2-1.8l0.3-0.8c0.7,0.2,1.6,0.4,2.7,0.4c3.4,0,6.9-2.9,8.5-6.4c0.2-0.4,0.3-0.8,0.3-1c0-0.4-0.2-0.9-0.3-1.3
			c-0.9-1.9-1.8-3.6-2.9-5.2c0.6-1,1.1-2,1.7-3L168.8,23.8z M166.6,15.6c1,0.7,2,1.6,2.9,2.5c-0.5,0.9-1.2,1.6-2,2.3
			c-0.9-0.9-1.9-1.6-2.8-2.5C165.3,17.2,166,16.3,166.6,15.6z"/>
		<path class="st0" d="M182.4,36.1h-0.3c-1.9,0-3.1-0.4-4.1-1.4c-1.5-1.5-1.5-3.2-1.5-6.7c0-4.5-0.3-9.3-0.6-14.3
			c0.8-0.9,1.6-1.7,2.3-2.2l0.2,0.1c0.4,5.2,0.4,11.4,0.4,17.2v1.4c0,1.5,0.9,2.2,1.8,2.5c0.6,0.2,1.2,0.3,1.5,0.3h0.3V36.1z"/>
		<path class="st0" d="M183.4,33.1c2.1,0,3.8-0.1,6.3-1.2v-0.1c-1.1-0.7-2.2-2-3.4-3.1c-0.6-0.5-1.3-1-1.7-1h-0.7l-0.1,0l0.9-2.7
			l0.7-0.1c1.9-0.4,4.1-0.8,6.5-0.8c2.8,0,5.2,0.5,7,1.2l-0.8,2.6l-4.2,3.8v0.1c1.6,0.9,3.4,1.3,5.5,1.3h1v3h-0.7
			c-2.7,0-5.7-1-8-2.8h-0.1c-3,2.1-5.5,2.8-8.4,2.8h-0.7c-1.3,0-1.7-1-1.7-1.6c0-0.6,0.4-1.5,1.7-1.5H183.4z M192.1,30.7
			c1.4-1,2.9-2.1,4.4-3.5v-0.1c-1.3-0.3-2.8-0.6-4.5-0.6c-1.6,0-3,0.2-4.5,0.4V27c0.4,0.4,0.9,0.9,1.4,1.4
			C189.8,29.1,190.9,30,192.1,30.7L192.1,30.7z M190.7,15.2c1,0.7,2,1.6,2.9,2.5c-0.5,0.9-1.2,1.6-2,2.3c-0.9-0.9-1.9-1.6-2.8-2.5
			C189.4,16.7,190.1,15.9,190.7,15.2z"/>
		<path class="st0" d="M200.9,33.1c0.8,0,1.7-0.1,2.7-0.6c0.8-0.5,1.3-1.3,1.3-2.6c0-3.8-0.3-8-0.7-12.4c-0.1-1.1-0.2-2.1-0.2-3
			c0-0.5,0.2-1.1,0.7-1.6c0.3-0.4,0.8-0.9,1.3-1.3l0.2,0.1c0,1.5,0.7,3.4,2,5.5c-0.4,0.4-0.9,0.8-1.5,1.2c0.1,2.7,0.3,5.6,0.3,8.3
			c0,2.6-0.3,4.5-1,6c-0.5,1.2-1.1,2.2-2.2,2.8c-0.9,0.5-2.1,0.7-3,0.7h-0.4c-1.3,0-1.7-1-1.7-1.6c0-0.6,0.4-1.5,1.7-1.5H200.9z"/>
		<path class="st0" d="M212.3,36.5c0.2-1.5,0.3-3.2,0.3-4.8v-2.3c0-4.4-0.5-10.7-0.9-14.8c0.7-0.9,1.6-1.9,2.4-2.5l0.2,0.1
			c0.5,5.2,0.6,11.2,0.6,16.8c0,1.5,0,2.9-0.2,3.9c-0.1,1.3-0.7,2.3-2.1,3.8L212.3,36.5z"/>
		<path class="st0" d="M234.3,20.4l0.3-0.1c1.5,1.4,6.2,4.2,6.8,6.8c0.3,0.9,0.4,1.8,0.4,2.7c0,1.5-0.5,3.5-1.3,4.4
			c-1.5,1.6-3.2,2.2-5,2.2c-1.2,0-2.2-0.2-2.9-0.7c-1.7-1.1-2.5-3-2.5-5.3c0-1.6,0.7-3.1,1.5-4.6c0.6-0.9,1.3-1.9,2.4-3
			C234.1,22,234.2,21.2,234.3,20.4z M233.2,17.4c-1-0.9-1.9-1.7-2.8-2.5c0.6-0.9,1.3-1.6,1.9-2.3c1,0.8,1.8,1.5,2.7,2.5
			C234.3,16.2,233.9,16.8,233.2,17.4z M231.7,30c0,1.8,2,3.2,4,3.2c1.4,0,2.6-0.5,3.8-1.3c0.8-0.5,1.1-1.1,1.1-1.6
			c0-0.8-0.6-1.7-1.3-2.6c-1.1-1.3-2.5-2.3-3.9-3.1C233.1,26.5,231.7,28.3,231.7,30z M237.8,17.1c-1-0.9-1.9-1.7-2.8-2.5
			c0.6-0.9,1.3-1.6,1.9-2.3c1,0.8,1.8,1.5,2.7,2.5C239,15.8,238.5,16.5,237.8,17.1z"/>
		<path class="st0" d="M250,23.8l1.7,3.2c0.6,1.2,1.2,2.5,1.2,4.5v2.6c0,2.1-1.2,4.4-3,6.6c-1.5,1.5-2.8,2.2-4,2.2
			c-1.8,0-3.8-0.6-6.2-1.8l0.3-0.8c0.7,0.2,1.6,0.4,2.7,0.4c3.4,0,6.9-2.9,8.5-6.4c0.2-0.4,0.3-0.8,0.3-1c0-0.4-0.2-0.9-0.3-1.3
			c-0.9-1.9-1.8-3.6-2.9-5.2c0.6-1,1.1-2,1.7-3L250,23.8z"/>
		<path class="st0" d="M263.5,36.1h-0.3c-1.9,0-3.1-0.4-4.1-1.4c-1.5-1.5-1.5-3.2-1.5-6.7c0-4.5-0.3-9.3-0.6-14.3
			c0.8-0.9,1.6-1.7,2.3-2.2l0.2,0.1c0.4,5.2,0.4,11.4,0.4,17.2v1.4c0,1.5,0.9,2.2,1.8,2.5c0.6,0.2,1.2,0.3,1.5,0.3h0.3V36.1z"/>
		<path class="st0" d="M277.9,28.7c-2.8-1-5.4-1.7-7.6-1.7c-1.4,0-2.4,0.4-3.1,1.2l0.3,1.2l-0.7,2.1h-0.2l-1.2-3.1
			c0.2-2.6,2.3-4.3,5.2-4.3c1.6,0,4.1,0.5,7.9,2c1.2,0.5,2.6,0.8,4.1,0.8h2.1l0,0l-1.5,2.5c-1.9,0-3.3,0.4-4.1,0.9l-4,2.6
			c-3.4,2.1-6.7,3.2-10.6,3.2h-1.1c-1.3,0-1.7-1-1.7-1.6c0-0.6,0.4-1.5,1.7-1.5h1.5C268.9,33.1,272.9,31.7,277.9,28.7L277.9,28.7z
			 M272.4,39.7c1,0.7,2,1.6,2.9,2.5c-0.5,0.9-1.2,1.6-2,2.3c-0.9-0.9-1.9-1.6-2.8-2.5C271.1,41.2,271.7,40.4,272.4,39.7z
			 M280.6,30.3L280.6,30.3c0.2,2,1.9,2.8,4.3,2.8h0.7v3h-0.7c-3.1,0-5.2-1.1-5.2-3.9c0-0.5,0-0.9,0.1-1.3L280.6,30.3z"/>
		<path class="st0" d="M286.1,33.1c1.9,0,3.8-0.7,4.1-2.1l0.7-2.6l1.7-1.2l0.1,0.2c-0.3,1.2-0.5,2.2-0.5,2.8c0,0.8,0.2,1.5,0.8,2
			c0.8,0.6,1.7,1,3,1h0.4v3h-0.6c-2.4,0-4.1-0.6-5-2.4h-0.1c-0.8,1.6-2.7,2.4-4.8,2.4h-0.5c-1.3,0-1.7-1-1.7-1.6
			c0-0.6,0.4-1.5,1.7-1.5H286.1z M288.8,24.1c-1-0.9-1.9-1.7-2.8-2.5c0.6-0.9,1.3-1.6,1.9-2.3c1,0.8,1.8,1.5,2.7,2.5
			C289.9,22.8,289.5,23.4,288.8,24.1z M293.4,23.8c-1-0.9-1.9-1.7-2.8-2.5c0.6-0.9,1.3-1.6,1.9-2.3c1,0.8,1.8,1.5,2.7,2.5
			C294.6,22.5,294.1,23.1,293.4,23.8z"/>
		<path class="st0" d="M297,33.1c0.8,0,1.7-0.1,2.7-0.6c0.8-0.5,1.3-1.3,1.3-2.6c0-3.8-0.3-8-0.7-12.4c-0.1-1.1-0.2-2.1-0.2-3
			c0-0.5,0.2-1.1,0.7-1.6c0.3-0.4,0.8-0.9,1.3-1.3l0.2,0.1c0,1.5,0.7,3.4,2,5.5c-0.4,0.4-0.9,0.8-1.5,1.2c0.1,2.7,0.3,5.6,0.3,8.3
			c0,2.6-0.3,4.5-1,6c-0.5,1.2-1.1,2.2-2.2,2.8c-0.9,0.5-2.1,0.7-3,0.7h-0.4c-1.3,0-1.7-1-1.7-1.6c0-0.6,0.4-1.5,1.7-1.5H297z"/>
		<path class="st0" d="M334.3,36.1c-0.2,1.5-0.5,2.8-0.9,3.8c-1.2,2.7-4.8,4.6-8.1,4.6c-4.7,0-7-3.1-7-7.3c0-2.6,0.8-5,1.9-6.7
			l0.8,0.4c-0.7,1.5-1.2,3-1.2,4.5c0,3.9,2.7,5.8,5.9,5.8c3.7,0,7.2-2.8,7.2-5c0-1.5-1-4-2.5-6.3c0.5-0.8,0.9-1.5,1.6-2.5h0.1
			c0.9,1.7,1.5,3.2,2,4.5c0.3,0.8,0.7,1.2,1.5,1.2c0.7,0,1.4-0.4,1.8-0.7c0.5-0.3,1.1-0.9,1.4-1.9l0.6-1.8l1.6-0.7l0.1,0.1
			c-0.5,1.6-0.7,2.7-0.7,3.5c0,1,0.7,1.5,1.7,1.5c1.9,0,2.6-1.7,3-3.2l0.4-1.7l1.8-1l0.1,0.1c-0.3,1.1-0.6,2.4-0.6,3.3
			c0,1.9,1.9,2.5,4.2,2.5h0.5v3H351c-3,0-4.6-0.9-5.2-2.2h-0.1c-1.4,1.6-2.8,2.2-4.2,2.2c-1,0-2.2-0.3-2.6-2h-0.1
			c-0.8,1.2-2,2-3.8,2H334.3z"/>
		<path class="st0" d="M352,33.1c1,0,2-0.3,2.8-0.7c0.7-0.4,1.2-1.2,1.2-2.9c0-4.8-0.3-9.1-0.6-14.5l-0.1-1.2l2.1-2.1l0.1,0
			c0.5,5.6,0.5,11.4,0.5,18.7c0,1.1,0.8,2.7,3.6,2.7h0.3v3h-0.5c-2.2,0-3.9-0.8-4.7-2.5h-0.1c-0.7,1.4-2.3,2.5-4.7,2.5h-0.4
			c-1.3,0-1.7-1-1.7-1.6c0-0.6,0.4-1.5,1.7-1.5H352z"/>
		<path class="st0" d="M362.3,33.1c2,0,3.7-0.1,4.7-0.5c0.8-0.3,1.4-0.6,1.4-1c0-1.1-1.2-3.5-2.4-5.9c0.6-1,1.2-1.9,1.8-2.7h0.1
			c1.1,1.9,2.4,4.9,2.4,7.3c0,1.8-0.7,3.2-1.7,4.4c-1.1,1.1-2.8,1.4-6.5,1.4h-0.3c-1.3,0-1.7-1-1.7-1.6c0-0.6,0.4-1.5,1.7-1.5H362.3
			z M366.9,40.6c1,0.7,2,1.6,2.9,2.5c-0.5,0.9-1.2,1.6-2,2.3c-0.9-0.9-1.9-1.6-2.8-2.5C365.6,42.2,366.2,41.4,366.9,40.6z"/>
		<path class="st0" d="M399.5,26.1c0.9,1.7,1.4,3,2,4.6c0.7,2.1,2,2.4,4.3,2.4h0.3v3h-0.5c-1.4,0-2.5-0.3-3.4-1.1h-0.1
			c-0.1,2.4-0.8,4.6-1.5,5.5c-1.7,2.1-5.3,3.9-8.2,3.9c-4.5,0-7.4-3-7.4-7.2c0-3,1-5.1,2.1-6.9l0.9,0.5c-0.8,1.5-1.3,3.4-1.3,4.5
			c0,2,0.7,3.3,1.6,4.1c0.9,0.9,2.7,1.6,4.6,1.6c1.9,0,4.3-0.9,5.8-2.1c1.1-0.8,1.8-1.5,1.8-2.5c0-1-0.1-1.9-0.9-4
			c-0.8-1.8-1.4-3-1.9-3.9c0.5-0.9,1-1.7,1.6-2.5H399.5z M393.7,18.8c1,0.7,2,1.6,2.9,2.5c-0.5,0.9-1.2,1.6-2,2.3
			c-0.9-0.9-1.9-1.6-2.8-2.5C392.4,20.4,393.1,19.6,393.7,18.8z"/>
		<path class="st0" d="M425.5,25.9c0.3,1.8,0.4,3.2,0.4,4.2c0,1.1-0.4,2.4-0.9,3.3c-0.9,1.5-2.2,2.6-3.6,2.6c-1,0-2.1-0.8-3-2h-0.2
			c-1.1,1.2-2.4,2-4.2,2c-1.3,0-2.2-0.6-2.3-2h-0.1c-1.5,1.7-3.5,2-5.1,2h-0.4c-1.3,0-1.7-1-1.7-1.6c0-0.6,0.4-1.5,1.7-1.5h0.8
			c2.2,0,3.9-0.6,5.1-2.2l1.3-1.9l1.9-0.6l0.1,0.1c-1,1.5-1.6,2.7-1.6,3.4c0,0.7,0.5,1.2,1.3,1.2c0.7,0,1.5-0.2,2.1-0.7
			c0.8-0.6,1-1.3,1.7-3.8l1.4-0.8l0.1,0.1c-0.2,0.8-0.3,1.7-0.3,2.3c0,1.8,1.4,2.7,2.5,2.7c0.7,0,1.3-0.4,1.3-1.1
			c0-0.9-0.3-2.5-0.6-3.9c0.7-0.8,1.4-1.5,2.2-2.1L425.5,25.9z M417.2,24.3c-1-0.9-1.9-1.7-2.8-2.5c0.6-0.9,1.3-1.6,1.9-2.3
			c1,0.8,1.8,1.5,2.7,2.5C418.4,23.1,417.9,23.7,417.2,24.3z M418.5,19.2c-1-0.9-1.9-1.7-2.8-2.5c0.6-0.9,1.3-1.6,1.9-2.3
			c1,0.8,1.8,1.5,2.7,2.5C419.7,18,419.2,18.6,418.5,19.2z M421.9,24c-1-0.9-1.9-1.7-2.8-2.5c0.6-0.9,1.3-1.6,1.9-2.3
			c1,0.8,1.8,1.5,2.7,2.5C423,22.8,422.5,23.4,421.9,24z"/>
		<path class="st0" d="M436.3,33.6c-2.8,0-5.3-1.3-5.3-4.5c0-1.6,0.6-2.9,1.5-4.1c1.1-1.2,2.3-2,3.4-2c1.4,0,2.7,1,3.6,2.7
			c0.9,1.6,1.5,3.9,1.5,6.5c0,2.2-0.6,4.3-1.8,6.3c-2.1,3.2-4.2,4.5-6.2,4.5c-2.2,0-4.5-0.7-6.9-2.3l0.4-0.8
			c1.2,0.6,2.3,0.8,3.5,0.8c2.4,0,4.9-1.2,7.1-3.6c1.1-1.2,2.1-2.6,2.3-4C438.5,33.5,437.4,33.6,436.3,33.6z M435.3,26.1
			c-1.1,0-2.7,1.2-2.7,2.1c0,1.5,2.1,2.5,4.1,2.5c0.9,0,1.9-0.1,2.7-0.3C438.7,28,437.3,26.1,435.3,26.1z"/>
		<path class="st0" d="M450.9,8.4c-0.3,0.6-0.6,1.1-0.9,1.6c-2.4,0.4-4.5,1-6.3,1.8l0-0.1l0.6-1c0.2-0.3,0.7-0.6,1.1-0.8V9.8
			c-1.1-0.3-1.9-1-1.9-2.1c0-0.6,0.4-1.4,1.1-2.1c0.9-0.8,1.9-1.4,2.9-1.4c1,0,1.5,0.5,1.5,1.2c0,0.6-0.4,1.1-0.8,1.5h0
			c-0.3-0.5-0.5-0.9-0.8-0.9c-0.2,0-0.5-0.1-0.7-0.1c-0.8,0-1.7,0.5-1.7,0.8c0,1.1,2,1.5,3.4,1.5C449.3,8.4,450.1,8.4,450.9,8.4
			L450.9,8.4z M446.4,36.5c0.2-1.5,0.3-3.2,0.3-4.8v-2.3c0-4.4-0.5-10.7-0.9-14.8c0.7-0.9,1.6-1.9,2.4-2.5l0.2,0.1
			c0.5,5.2,0.6,11.2,0.6,16.8c0,1.5,0,2.9-0.2,3.9c-0.1,1.3-0.7,2.3-2.1,3.8L446.4,36.5z"/>
	</g>
</g>
<g>
	<g>
		<path class="st1" d="M69.7,91c-0.1-1.2-0.1-2.7-0.1-3.8h0c-0.3,1-0.7,2.1-1.1,3.3l-1.6,4.3h-0.9l-1.4-4.2c-0.4-1.2-0.8-2.4-1-3.4
			h0c0,1.1-0.1,2.6-0.2,3.9L63,94.8h-1.1l0.6-8.8H64l1.5,4.3c0.4,1.1,0.7,2.1,0.9,3h0c0.2-0.9,0.5-1.9,0.9-3L69,86h1.5l0.6,8.8h-1.1
			L69.7,91z"/>
		<path class="st1" d="M78.2,93.1c0,0.7,0,1.2,0.1,1.7h-1l-0.1-1h0c-0.3,0.5-1,1.2-2.1,1.2c-1,0-2.2-0.5-2.2-2.8v-3.7h1.2V92
			c0,1.2,0.4,2,1.4,2c0.8,0,1.3-0.5,1.5-1c0.1-0.2,0.1-0.4,0.1-0.6v-3.9h1.2V93.1z"/>
		<path class="st1" d="M80,93.7c0.3,0.2,1,0.5,1.5,0.5c0.8,0,1.2-0.4,1.2-0.9c0-0.5-0.3-0.9-1.2-1.2c-1.2-0.4-1.7-1-1.7-1.8
			c0-1,0.8-1.9,2.2-1.9c0.6,0,1.2,0.2,1.6,0.4l-0.3,0.8c-0.3-0.2-0.7-0.4-1.3-0.4c-0.7,0-1.1,0.4-1.1,0.9c0,0.5,0.4,0.8,1.2,1.1
			c1.1,0.4,1.7,1,1.7,1.9c0,1.1-0.9,1.9-2.4,1.9c-0.7,0-1.4-0.2-1.8-0.4L80,93.7z"/>
		<path class="st1" d="M85.2,93.7c0.3,0.2,1,0.5,1.5,0.5c0.8,0,1.2-0.4,1.2-0.9c0-0.5-0.3-0.9-1.2-1.2c-1.2-0.4-1.7-1-1.7-1.8
			c0-1,0.8-1.9,2.2-1.9c0.6,0,1.2,0.2,1.6,0.4l-0.3,0.8c-0.3-0.2-0.7-0.4-1.3-0.4c-0.7,0-1.1,0.4-1.1,0.9c0,0.5,0.4,0.8,1.2,1.1
			c1.1,0.4,1.7,1,1.7,1.9c0,1.1-0.9,1.9-2.4,1.9c-0.7,0-1.4-0.2-1.8-0.4L85.2,93.7z"/>
		<path class="st1" d="M94.1,94.8l-0.1-0.8h0c-0.4,0.5-1,0.9-2,0.9c-1.3,0-2-0.9-2-1.8c0-1.5,1.4-2.4,3.9-2.4v-0.1
			c0-0.5-0.1-1.5-1.5-1.5c-0.6,0-1.2,0.2-1.7,0.5l-0.3-0.8c0.5-0.3,1.3-0.6,2.1-0.6c2,0,2.4,1.3,2.4,2.6v2.4c0,0.5,0,1.1,0.1,1.5
			H94.1z M94,91.6c-1.3,0-2.7,0.2-2.7,1.4c0,0.7,0.5,1.1,1.1,1.1c0.8,0,1.4-0.5,1.5-1.1c0-0.1,0.1-0.2,0.1-0.4V91.6z"/>
		<path class="st1" d="M97.1,94.8v-5.5h-0.9v-0.9h0.9v-0.3c0-0.9,0.2-1.7,0.7-2.2c0.4-0.4,1-0.6,1.6-0.6c0.4,0,0.8,0.1,1,0.2
			l-0.2,0.9c-0.2-0.1-0.4-0.1-0.7-0.1c-1,0-1.2,0.9-1.2,1.8v0.3h1.5v0.9h-1.5v5.5H97.1z"/>
		<path class="st1" d="M104.4,94.8l-0.1-0.8h0c-0.4,0.5-1,0.9-2,0.9c-1.3,0-2-0.9-2-1.8c0-1.5,1.4-2.4,3.9-2.4v-0.1
			c0-0.5-0.1-1.5-1.5-1.5c-0.6,0-1.2,0.2-1.7,0.5l-0.3-0.8c0.5-0.3,1.3-0.6,2.1-0.6c2,0,2.4,1.3,2.4,2.6v2.4c0,0.5,0,1.1,0.1,1.5
			H104.4z M104.2,91.6c-1.3,0-2.7,0.2-2.7,1.4c0,0.7,0.5,1.1,1.1,1.1c0.8,0,1.4-0.5,1.5-1.1c0-0.1,0.1-0.2,0.1-0.4V91.6z"/>
		<path class="st1" d="M107.2,85.6h1.2v3.9h0c0.2-0.3,0.5-0.6,0.8-0.8c0.3-0.2,0.8-0.3,1.2-0.3c0.9,0,2.2,0.5,2.2,2.7v3.8h-1.2v-3.6
			c0-1-0.4-1.9-1.5-1.9c-0.8,0-1.4,0.5-1.6,1.2c-0.1,0.2-0.1,0.3-0.1,0.5v3.8h-1.2V85.6z"/>
		<path class="st1" d="M120.1,90.9v0.9h-3.3v-0.9H120.1z"/>
		<path class="st1" d="M129,91c-0.1-1.2-0.1-2.7-0.1-3.8h0c-0.3,1-0.7,2.1-1.1,3.3l-1.6,4.3h-0.9l-1.4-4.2c-0.4-1.2-0.8-2.4-1-3.4h0
			c0,1.1-0.1,2.6-0.2,3.9l-0.2,3.8h-1.1l0.6-8.8h1.5l1.5,4.3c0.4,1.1,0.7,2.1,0.9,3h0c0.2-0.9,0.5-1.9,0.9-3l1.6-4.3h1.5l0.6,8.8
			h-1.1L129,91z"/>
		<path class="st1" d="M137.1,87.4L137.1,87.4l-1.5,0.8l-0.2-0.9l1.9-1h1v8.5h-1.1V87.4z"/>
		<path class="st1" d="M143.9,87.4L143.9,87.4l-1.5,0.8l-0.2-0.9l1.9-1h1v8.5h-1.1V87.4z"/>
		<path class="st1" d="M147.7,96.5c0.3-0.8,0.6-2.2,0.8-3.1l1.3-0.1c-0.3,1.1-0.9,2.6-1.3,3.2L147.7,96.5z"/>
		<path class="st1" d="M154.1,86.1c0.6-0.1,1.3-0.2,2.2-0.2c1.1,0,2,0.3,2.5,0.7c0.5,0.4,0.8,1.1,0.8,1.8c0,0.8-0.2,1.4-0.7,1.9
			c-0.6,0.6-1.6,1-2.7,1c-0.3,0-0.7,0-0.9-0.1v3.5h-1.2V86.1z M155.2,90.4c0.3,0.1,0.6,0.1,1,0.1c1.4,0,2.2-0.7,2.2-1.9
			c0-1.2-0.8-1.7-2.1-1.7c-0.5,0-0.9,0-1.1,0.1V90.4z"/>
		<path class="st1" d="M161,85.6h1.2v9.3H161V85.6z"/>
		<path class="st1" d="M169.9,91.6c0,2.3-1.6,3.4-3.2,3.4c-1.7,0-3.1-1.3-3.1-3.3c0-2.1,1.4-3.4,3.2-3.4
			C168.7,88.4,169.9,89.7,169.9,91.6z M164.9,91.7c0,1.4,0.8,2.4,1.9,2.4c1.1,0,1.9-1,1.9-2.5c0-1.1-0.5-2.4-1.9-2.4
			C165.4,89.2,164.9,90.5,164.9,91.7z"/>
		<path class="st1" d="M172.8,86.7v1.8h1.7v0.9h-1.7v3.4c0,0.8,0.2,1.2,0.9,1.2c0.3,0,0.5,0,0.7-0.1l0.1,0.9c-0.2,0.1-0.6,0.2-1,0.2
			c-0.5,0-1-0.2-1.3-0.5c-0.3-0.3-0.5-0.9-0.5-1.6v-3.5h-1v-0.9h1V87L172.8,86.7z"/>
		<path class="st1" d="M178.6,90.2c0-0.7,0-1.2-0.1-1.7h1l0.1,1h0c0.3-0.6,1.1-1.2,2.1-1.2c0.9,0,2.3,0.5,2.3,2.7v3.8h-1.2v-3.6
			c0-1-0.4-1.9-1.5-1.9c-0.8,0-1.4,0.5-1.6,1.2c-0.1,0.1-0.1,0.3-0.1,0.5v3.8h-1.2V90.2z"/>
		<path class="st1" d="M191.7,91.6c0,2.3-1.6,3.4-3.2,3.4c-1.7,0-3.1-1.3-3.1-3.3c0-2.1,1.4-3.4,3.2-3.4
			C190.5,88.4,191.7,89.7,191.7,91.6z M186.7,91.7c0,1.4,0.8,2.4,1.9,2.4c1.1,0,1.9-1,1.9-2.5c0-1.1-0.5-2.4-1.9-2.4
			C187.3,89.2,186.7,90.5,186.7,91.7z"/>
		<path class="st1" d="M196.3,94.8l0.3-2.6h-1.1v-0.8h1.2l0.3-1.9h-1.1v-0.8h1.3l0.3-2.5h0.8l-0.3,2.5h1.4l0.3-2.5h0.8l-0.3,2.5h1.1
			v0.8H200l-0.2,1.9h1.1v0.8h-1.3l-0.3,2.6h-0.8l0.3-2.6h-1.4l-0.3,2.6H196.3z M198.9,91.5l0.3-1.9h-1.4l-0.3,1.9H198.9z"/>
		<path class="st1" d="M207.6,87.4L207.6,87.4l-1.5,0.8l-0.2-0.9l1.9-1h1v8.5h-1.1V87.4z"/>
		<path class="st1" d="M212.1,93.5c0.3,0.2,1.1,0.5,1.9,0.5c1.5,0,2-0.9,1.9-1.6c0-1.2-1.1-1.7-2.2-1.7h-0.6v-0.9h0.6
			c0.8,0,1.9-0.4,1.9-1.4c0-0.7-0.4-1.3-1.5-1.3c-0.7,0-1.4,0.3-1.7,0.6l-0.3-0.8c0.5-0.3,1.3-0.7,2.3-0.7c1.7,0,2.5,1,2.5,2
			c0,0.9-0.5,1.6-1.6,2v0c1.1,0.2,1.9,1,1.9,2.2c0,1.4-1.1,2.6-3.1,2.6c-1,0-1.8-0.3-2.2-0.6L212.1,93.5z"/>
		<path class="st1" d="M218.2,96.5c0.3-0.8,0.6-2.2,0.8-3.1l1.3-0.1c-0.3,1.1-0.9,2.6-1.3,3.2L218.2,96.5z"/>
		<path class="st1" d="M224.4,93.5c0.5,0.3,1.3,0.6,2.1,0.6c1.2,0,1.9-0.6,1.9-1.5c0-0.8-0.5-1.3-1.7-1.8c-1.5-0.5-2.4-1.3-2.4-2.5
			c0-1.4,1.2-2.4,2.9-2.4c0.9,0,1.6,0.2,2,0.4l-0.3,0.9c-0.3-0.2-0.9-0.4-1.7-0.4c-1.2,0-1.7,0.7-1.7,1.3c0,0.8,0.5,1.2,1.8,1.7
			c1.5,0.6,2.3,1.3,2.3,2.6c0,1.4-1,2.5-3.1,2.5c-0.9,0-1.8-0.2-2.3-0.6L224.4,93.5z"/>
		<path class="st1" d="M231.1,85.6h1.2v3.9h0c0.2-0.3,0.5-0.6,0.8-0.8c0.3-0.2,0.8-0.3,1.2-0.3c0.9,0,2.2,0.5,2.2,2.7v3.8h-1.2v-3.6
			c0-1-0.4-1.9-1.5-1.9c-0.8,0-1.4,0.5-1.6,1.2c-0.1,0.2-0.1,0.3-0.1,0.5v3.8h-1.2V85.6z"/>
		<path class="st1" d="M244.2,91.6c0,2.3-1.6,3.4-3.2,3.4c-1.7,0-3.1-1.3-3.1-3.3c0-2.1,1.4-3.4,3.2-3.4
			C243,88.4,244.2,89.7,244.2,91.6z M239.1,91.7c0,1.4,0.8,2.4,1.9,2.4c1.1,0,1.9-1,1.9-2.5c0-1.1-0.5-2.4-1.9-2.4
			C239.7,89.2,239.1,90.5,239.1,91.7z"/>
		<path class="st1" d="M245.7,90.6c0-0.8,0-1.5-0.1-2.1h1l0.1,1.1h0c0.5-0.8,1.2-1.2,2.3-1.2c1.5,0,2.7,1.3,2.7,3.2
			c0,2.3-1.4,3.4-2.9,3.4c-0.8,0-1.6-0.4-2-1h0v3.4h-1.2V90.6z M246.8,92.3c0,0.2,0,0.3,0.1,0.5c0.2,0.8,0.9,1.3,1.7,1.3
			c1.2,0,1.9-1,1.9-2.4c0-1.3-0.7-2.4-1.9-2.4c-0.8,0-1.5,0.6-1.8,1.4c0,0.1-0.1,0.3-0.1,0.5V92.3z"/>
		<path class="st1" d="M256,90.2c0-0.7,0-1.2-0.1-1.7h1l0.1,1h0c0.3-0.6,1.1-1.2,2.1-1.2c0.9,0,2.3,0.5,2.3,2.7v3.8h-1.2v-3.6
			c0-1-0.4-1.9-1.5-1.9c-0.8,0-1.4,0.5-1.6,1.2c-0.1,0.1-0.1,0.3-0.1,0.5v3.8H256V90.2z"/>
		<path class="st1" d="M269.2,91.6c0,2.3-1.6,3.4-3.2,3.4c-1.7,0-3.1-1.3-3.1-3.3c0-2.1,1.4-3.4,3.2-3.4
			C267.9,88.4,269.2,89.7,269.2,91.6z M264.1,91.7c0,1.4,0.8,2.4,1.9,2.4c1.1,0,1.9-1,1.9-2.5c0-1.1-0.5-2.4-1.9-2.4
			C264.7,89.2,264.1,90.5,264.1,91.7z"/>
		<path class="st1" d="M276.2,90.9v0.9h-3.3v-0.9H276.2z"/>
		<path class="st1" d="M279.7,87.4L279.7,87.4l-1.5,0.8l-0.2-0.9l1.9-1h1v8.5h-1.1V87.4z"/>
		<path class="st1" d="M289.5,86.3v0.8l-3.7,7.7h-1.2l3.7-7.5v0h-4.2v-1H289.5z"/>
		<path class="st1" d="M290.3,96.5c0.3-0.8,0.6-2.2,0.8-3.1l1.3-0.1c-0.3,1.1-0.9,2.6-1.3,3.2L290.3,96.5z"/>
		<path class="st1" d="M298.1,92.1l-0.9,2.8H296l3-8.8h1.4l3,8.8h-1.2l-1-2.8H298.1z M301.1,91.2l-0.9-2.5c-0.2-0.6-0.3-1.1-0.5-1.6
			h0c-0.1,0.5-0.3,1.1-0.5,1.6l-0.9,2.5H301.1z"/>
		<path class="st1" d="M304.7,94.8c0-0.4,0.1-1.1,0.1-1.6v-7.6h1.2v4h0c0.4-0.7,1.2-1.2,2.2-1.2c1.6,0,2.7,1.3,2.7,3.2
			c0,2.3-1.4,3.4-2.9,3.4c-0.9,0-1.7-0.4-2.1-1.2h0l-0.1,1H304.7z M305.9,92.3c0,0.1,0,0.3,0.1,0.4c0.2,0.8,0.9,1.3,1.7,1.3
			c1.2,0,1.9-1,1.9-2.4c0-1.3-0.7-2.4-1.9-2.4c-0.8,0-1.5,0.5-1.8,1.4c0,0.1-0.1,0.3-0.1,0.5V92.3z"/>
		<path class="st1" d="M317.6,93.1c0,0.7,0,1.2,0.1,1.7h-1l-0.1-1h0c-0.3,0.5-1,1.2-2.1,1.2c-1,0-2.2-0.5-2.2-2.8v-3.7h1.2V92
			c0,1.2,0.4,2,1.4,2c0.8,0,1.3-0.5,1.5-1c0.1-0.2,0.1-0.4,0.1-0.6v-3.9h1.2V93.1z"/>
		<path class="st1" d="M322.4,86.2c0.7-0.1,1.5-0.2,2.5-0.2c1.7,0,2.8,0.4,3.6,1.1c0.8,0.7,1.3,1.7,1.3,3.2c0,1.4-0.5,2.6-1.3,3.4
			c-0.8,0.8-2.2,1.3-3.9,1.3c-0.8,0-1.5,0-2.1-0.1V86.2z M323.5,93.9c0.3,0.1,0.7,0.1,1.2,0.1c2.5,0,3.8-1.4,3.8-3.7
			c0-2.1-1.2-3.4-3.6-3.4c-0.6,0-1,0.1-1.4,0.1V93.9z"/>
		<path class="st1" d="M331.2,85.6h1.2v3.9h0c0.2-0.3,0.5-0.6,0.8-0.8c0.3-0.2,0.8-0.3,1.2-0.3c0.9,0,2.2,0.5,2.2,2.7v3.8h-1.2v-3.6
			c0-1-0.4-1.9-1.5-1.9c-0.8,0-1.4,0.5-1.6,1.2c-0.1,0.2-0.1,0.3-0.1,0.5v3.8h-1.2V85.6z"/>
		<path class="st1" d="M342.1,94.8l-0.1-0.8h0c-0.4,0.5-1,0.9-2,0.9c-1.3,0-2-0.9-2-1.8c0-1.5,1.4-2.4,3.9-2.4v-0.1
			c0-0.5-0.1-1.5-1.5-1.5c-0.6,0-1.2,0.2-1.7,0.5l-0.3-0.8c0.5-0.3,1.3-0.6,2.1-0.6c2,0,2.4,1.3,2.4,2.6v2.4c0,0.5,0,1.1,0.1,1.5
			H342.1z M341.9,91.6c-1.3,0-2.7,0.2-2.7,1.4c0,0.7,0.5,1.1,1.1,1.1c0.8,0,1.4-0.5,1.5-1.1c0-0.1,0.1-0.2,0.1-0.4V91.6z"/>
		<path class="st1" d="M344.8,94.8c0-0.4,0.1-1.1,0.1-1.6v-7.6h1.2v4h0c0.4-0.7,1.2-1.2,2.2-1.2c1.6,0,2.7,1.3,2.7,3.2
			c0,2.3-1.4,3.4-2.9,3.4c-0.9,0-1.7-0.4-2.1-1.2h0l-0.1,1H344.8z M346,92.3c0,0.1,0,0.3,0.1,0.4c0.2,0.8,0.9,1.3,1.7,1.3
			c1.2,0,1.9-1,1.9-2.4c0-1.3-0.7-2.4-1.9-2.4c-0.8,0-1.5,0.5-1.8,1.4c0,0.1-0.1,0.3-0.1,0.5V92.3z"/>
		<path class="st1" d="M353.7,86.7c0,0.4-0.3,0.7-0.7,0.7c-0.4,0-0.7-0.3-0.7-0.7c0-0.4,0.3-0.7,0.7-0.7
			C353.4,86,353.7,86.3,353.7,86.7z M352.4,94.8v-6.3h1.2v6.3H352.4z"/>
		<path class="st1" d="M354.8,96.5c0.3-0.8,0.6-2.2,0.8-3.1l1.3-0.1c-0.3,1.1-0.9,2.6-1.3,3.2L354.8,96.5z"/>
		<path class="st1" d="M362.3,86v5.2c0,2,0.9,2.8,2.1,2.8c1.3,0,2.2-0.9,2.2-2.8V86h1.2v5.1c0,2.7-1.4,3.8-3.4,3.8
			c-1.8,0-3.2-1-3.2-3.8V86H362.3z"/>
		<path class="st1" d="M370.7,92.1l-0.9,2.8h-1.2l3-8.8h1.4l3,8.8h-1.2l-1-2.8H370.7z M373.6,91.2l-0.9-2.5
			c-0.2-0.6-0.3-1.1-0.5-1.6h0c-0.1,0.5-0.3,1.1-0.5,1.6l-0.9,2.5H373.6z"/>
		<path class="st1" d="M382,90.7h-3.5v3.2h3.9v1h-5V86h4.8v1h-3.7v2.8h3.5V90.7z"/>
		<path class="st1" d="M383.5,94.2c0-0.5,0.3-0.8,0.8-0.8s0.8,0.3,0.8,0.8c0,0.5-0.3,0.8-0.8,0.8C383.8,95,383.5,94.6,383.5,94.2z"
			/>
		<path class="st1" d="M136.2,110.3c-0.4,0.2-1.3,0.4-2.4,0.4c-2.5,0-4.4-1.6-4.4-4.5c0-2.8,1.9-4.6,4.7-4.6c1.1,0,1.8,0.2,2.1,0.4
			l-0.3,0.9c-0.4-0.2-1.1-0.4-1.8-0.4c-2.1,0-3.5,1.3-3.5,3.6c0,2.2,1.3,3.5,3.4,3.5c0.7,0,1.4-0.1,1.9-0.4L136.2,110.3z"/>
		<path class="st1" d="M138.1,107.6c0,1.6,1,2.2,2.2,2.2c0.8,0,1.3-0.1,1.8-0.3l0.2,0.8c-0.4,0.2-1.1,0.4-2.1,0.4
			c-2,0-3.2-1.3-3.2-3.2s1.1-3.4,3-3.4c2.1,0,2.6,1.8,2.6,3c0,0.2,0,0.4,0,0.5H138.1z M141.5,106.8c0-0.7-0.3-1.9-1.6-1.9
			c-1.2,0-1.7,1.1-1.8,1.9H141.5z"/>
		<path class="st1" d="M144.1,101.3h1.2v9.3h-1.2V101.3z"/>
		<path class="st1" d="M147.2,101.3h1.2v9.3h-1.2V101.3z"/>
		<path class="st1" d="M150,105.3c0-0.5,0.3-0.8,0.8-0.8s0.8,0.3,0.8,0.8c0,0.5-0.3,0.8-0.8,0.8C150.4,106.1,150,105.7,150,105.3z
			 M150,109.9c0-0.5,0.3-0.8,0.8-0.8s0.8,0.3,0.8,0.8c0,0.5-0.3,0.8-0.8,0.8C150.4,110.7,150,110.3,150,109.9z"/>
		<path class="st1" d="M159.3,103.6v3.1h3v0.8h-3v3.1h-0.8v-3.1h-3v-0.8h3v-3.1H159.3z"/>
		<path class="st1" d="M164.1,109.7c0.3,0,0.5,0,0.9,0c0.7-0.1,1.3-0.4,1.8-0.8c0.6-0.5,1-1.3,1.1-2.3h0c-0.5,0.6-1.2,0.9-2,0.9
			c-1.5,0-2.5-1.2-2.5-2.6c0-1.6,1.2-3,2.9-3c1.8,0,2.8,1.4,2.8,3.6c0,1.9-0.6,3.2-1.5,4c-0.7,0.6-1.6,1-2.5,1.1
			c-0.4,0.1-0.8,0.1-1.1,0.1V109.7z M164.5,104.8c0,1.1,0.6,1.8,1.7,1.8c0.8,0,1.4-0.4,1.7-0.9c0.1-0.1,0.1-0.2,0.1-0.4
			c0-1.5-0.5-2.6-1.8-2.6C165.2,102.8,164.5,103.6,164.5,104.8z"/>
		<path class="st1" d="M175.8,102v0.8l-3.7,7.7h-1.2l3.7-7.5v0h-4.2v-1H175.8z"/>
		<path class="st1" d="M179.5,103.1L179.5,103.1l-1.5,0.8l-0.2-0.9l1.9-1h1v8.5h-1.1V103.1z"/>
		<path class="st1" d="M188.9,103h-3.3l-0.3,2.2c0.2,0,0.4-0.1,0.7-0.1c0.7,0,1.3,0.1,1.9,0.5c0.7,0.4,1.2,1.1,1.2,2.2
			c0,1.7-1.3,2.9-3.2,2.9c-0.9,0-1.7-0.3-2.1-0.5l0.3-0.9c0.4,0.2,1.1,0.5,1.8,0.5c1.1,0,2-0.7,2-1.8c0-1.1-0.8-1.9-2.5-1.9
			c-0.5,0-0.9,0.1-1.2,0.1l0.6-4.1h4.1V103z"/>
		<path class="st1" d="M195.7,103h-3.3l-0.3,2.2c0.2,0,0.4-0.1,0.7-0.1c0.7,0,1.3,0.1,1.9,0.5c0.7,0.4,1.2,1.1,1.2,2.2
			c0,1.7-1.3,2.9-3.2,2.9c-0.9,0-1.7-0.3-2.1-0.5l0.3-0.9c0.4,0.2,1.1,0.5,1.8,0.5c1.1,0,2-0.7,2-1.8c0-1.1-0.8-1.9-2.5-1.9
			c-0.5,0-0.9,0.1-1.2,0.1l0.6-4.1h4.1V103z"/>
		<path class="st1" d="M202.3,102.8c-0.2,0-0.5,0-0.9,0.1c-1.8,0.3-2.8,1.6-3,3h0c0.4-0.5,1.1-1,2.1-1c1.5,0,2.6,1.1,2.6,2.7
			c0,1.6-1.1,3-2.9,3c-1.8,0-3-1.4-3-3.6c0-1.7,0.6-3,1.5-3.8c0.7-0.7,1.7-1.1,2.8-1.3c0.3-0.1,0.6-0.1,0.8-0.1V102.8z M201.9,107.8
			c0-1.2-0.7-1.9-1.8-1.9c-0.7,0-1.4,0.4-1.7,1c-0.1,0.1-0.1,0.3-0.1,0.5c0,1.4,0.7,2.4,1.9,2.4C201.3,109.8,201.9,109,201.9,107.8z
			"/>
		<path class="st1" d="M207.7,110.5v-2.3h-4v-0.8l3.8-5.4h1.3v5.3h1.2v0.9h-1.2v2.3H207.7z M207.7,107.3v-2.8c0-0.4,0-0.9,0-1.3h0
			c-0.3,0.5-0.5,0.9-0.7,1.3l-2.1,2.9v0H207.7z"/>
		<path class="st1" d="M213.5,103.1L213.5,103.1l-1.5,0.8l-0.2-0.9l1.9-1h1v8.5h-1.1V103.1z"/>
		<path class="st1" d="M221.3,110.5v-2.3h-4v-0.8l3.8-5.4h1.3v5.3h1.2v0.9h-1.2v2.3H221.3z M221.3,107.3v-2.8c0-0.4,0-0.9,0-1.3h0
			c-0.3,0.5-0.5,0.9-0.7,1.3l-2.1,2.9v0H221.3z"/>
		<path class="st1" d="M229.4,102.8c-0.2,0-0.5,0-0.9,0.1c-1.8,0.3-2.8,1.6-3,3h0c0.4-0.5,1.1-1,2.1-1c1.5,0,2.6,1.1,2.6,2.7
			c0,1.6-1.1,3-2.9,3c-1.8,0-3-1.4-3-3.6c0-1.7,0.6-3,1.5-3.8c0.7-0.7,1.7-1.1,2.8-1.3c0.3-0.1,0.6-0.1,0.8-0.1V102.8z M229.1,107.8
			c0-1.2-0.7-1.9-1.8-1.9c-0.7,0-1.4,0.4-1.7,1c-0.1,0.1-0.1,0.3-0.1,0.5c0,1.4,0.7,2.4,1.9,2.4C228.4,109.8,229.1,109,229.1,107.8z
			"/>
		<path class="st1" d="M237,106.2c0,2.9-1.1,4.5-3,4.5c-1.7,0-2.8-1.6-2.8-4.4c0-2.9,1.2-4.4,3-4.4C236,101.9,237,103.5,237,106.2z
			 M232.4,106.3c0,2.2,0.7,3.5,1.7,3.5c1.2,0,1.8-1.4,1.8-3.5c0-2.1-0.5-3.5-1.7-3.5C233.1,102.8,232.4,104,232.4,106.3z"/>
		<path class="st1" d="M238.1,110.5v-0.7l0.9-0.9c2.2-2.1,3.2-3.2,3.2-4.4c0-0.9-0.4-1.7-1.7-1.7c-0.8,0-1.4,0.4-1.8,0.7l-0.4-0.8
			c0.6-0.5,1.4-0.9,2.4-0.9c1.9,0,2.6,1.3,2.6,2.5c0,1.6-1.2,2.8-3,4.6l-0.7,0.6v0h3.9v1H238.1z"/>
		<path class="st1" d="M244.5,112.1c0.3-0.8,0.6-2.2,0.8-3.1l1.3-0.1c-0.3,1.1-0.9,2.6-1.3,3.2L244.5,112.1z"/>
		<path class="st1" d="M256.2,106.2c0,2.9-1.1,4.5-3,4.5c-1.7,0-2.8-1.6-2.8-4.4c0-2.9,1.2-4.4,3-4.4
			C255.1,101.9,256.2,103.5,256.2,106.2z M251.5,106.3c0,2.2,0.7,3.5,1.7,3.5c1.2,0,1.8-1.4,1.8-3.5c0-2.1-0.5-3.5-1.7-3.5
			C252.2,102.8,251.5,104,251.5,106.3z"/>
		<path class="st1" d="M262.4,103h-3.3l-0.3,2.2c0.2,0,0.4-0.1,0.7-0.1c0.7,0,1.3,0.1,1.9,0.5c0.7,0.4,1.2,1.1,1.2,2.2
			c0,1.7-1.3,2.9-3.2,2.9c-0.9,0-1.7-0.3-2.1-0.5l0.3-0.9c0.4,0.2,1.1,0.5,1.8,0.5c1.1,0,2-0.7,2-1.8c0-1.1-0.8-1.9-2.5-1.9
			c-0.5,0-0.9,0.1-1.2,0.1l0.6-4.1h4.1V103z"/>
		<path class="st1" d="M268.9,102.8c-0.2,0-0.5,0-0.9,0.1c-1.8,0.3-2.8,1.6-3,3h0c0.4-0.5,1.1-1,2.1-1c1.5,0,2.6,1.1,2.6,2.7
			c0,1.6-1.1,3-2.9,3c-1.8,0-3-1.4-3-3.6c0-1.7,0.6-3,1.5-3.8c0.7-0.7,1.7-1.1,2.8-1.3c0.3-0.1,0.6-0.1,0.8-0.1V102.8z M268.6,107.8
			c0-1.2-0.7-1.9-1.8-1.9c-0.7,0-1.4,0.4-1.7,1c-0.1,0.1-0.1,0.3-0.1,0.5c0,1.4,0.7,2.4,1.9,2.4C267.9,109.8,268.6,109,268.6,107.8z
			"/>
		<path class="st1" d="M276.4,102v0.8l-3.7,7.7h-1.2l3.7-7.5v0H271v-1H276.4z"/>
		<path class="st1" d="M282.7,103h-3.3l-0.3,2.2c0.2,0,0.4-0.1,0.7-0.1c0.7,0,1.3,0.1,1.9,0.5c0.7,0.4,1.2,1.1,1.2,2.2
			c0,1.7-1.3,2.9-3.2,2.9c-0.9,0-1.7-0.3-2.1-0.5l0.3-0.9c0.4,0.2,1.1,0.5,1.8,0.5c1.1,0,2-0.7,2-1.8c0-1.1-0.8-1.9-2.5-1.9
			c-0.5,0-0.9,0.1-1.2,0.1l0.6-4.1h4.1V103z"/>
		<path class="st1" d="M290,102v0.8l-3.7,7.7H285l3.7-7.5v0h-4.2v-1H290z"/>
		<path class="st1" d="M296.9,106.2c0,2.9-1.1,4.5-3,4.5c-1.7,0-2.8-1.6-2.8-4.4c0-2.9,1.2-4.4,3-4.4
			C295.9,101.9,296.9,103.5,296.9,106.2z M292.2,106.3c0,2.2,0.7,3.5,1.7,3.5c1.2,0,1.8-1.4,1.8-3.5c0-2.1-0.5-3.5-1.7-3.5
			C293,102.8,292.2,104,292.2,106.3z"/>
		<path class="st1" d="M303.1,103h-3.3l-0.3,2.2c0.2,0,0.4-0.1,0.7-0.1c0.7,0,1.3,0.1,1.9,0.5c0.7,0.4,1.2,1.1,1.2,2.2
			c0,1.7-1.3,2.9-3.2,2.9c-0.9,0-1.7-0.3-2.1-0.5l0.3-0.9c0.4,0.2,1.1,0.5,1.8,0.5c1.1,0,2-0.7,2-1.8c0-1.1-0.8-1.9-2.5-1.9
			c-0.5,0-0.9,0.1-1.2,0.1l0.6-4.1h4.1V103z"/>
		<path class="st1" d="M310.5,106.2c0,2.9-1.1,4.5-3,4.5c-1.7,0-2.8-1.6-2.8-4.4c0-2.9,1.2-4.4,3-4.4
			C309.5,101.9,310.5,103.5,310.5,106.2z M305.8,106.3c0,2.2,0.7,3.5,1.7,3.5c1.2,0,1.8-1.4,1.8-3.5c0-2.1-0.5-3.5-1.7-3.5
			C306.6,102.8,305.8,104,305.8,106.3z"/>
		<path class="st1" d="M316.5,102.8c-0.2,0-0.5,0-0.9,0.1c-1.8,0.3-2.8,1.6-3,3h0c0.4-0.5,1.1-1,2.1-1c1.5,0,2.6,1.1,2.6,2.7
			c0,1.6-1.1,3-2.9,3c-1.8,0-3-1.4-3-3.6c0-1.7,0.6-3,1.5-3.8c0.7-0.7,1.7-1.1,2.8-1.3c0.3-0.1,0.6-0.1,0.8-0.1V102.8z M316.1,107.8
			c0-1.2-0.7-1.9-1.8-1.9c-0.7,0-1.4,0.4-1.7,1c-0.1,0.1-0.1,0.3-0.1,0.5c0,1.4,0.7,2.4,1.9,2.4C315.5,109.8,316.1,109,316.1,107.8z
			"/>
		<path class="st1" d="M48.5,126.2l-2.3-8.8h1.2l1.1,4.5c0.3,1.1,0.5,2.2,0.7,3h0c0.1-0.9,0.4-1.9,0.7-3.1l1.2-4.4h1.2l1.1,4.5
			c0.3,1,0.5,2.1,0.6,3h0c0.2-1,0.4-1.9,0.7-3l1.2-4.4h1.2l-2.5,8.8h-1.2l-1.1-4.6c-0.3-1.1-0.5-2-0.6-2.9h0
			c-0.2,0.9-0.4,1.7-0.7,2.9l-1.3,4.6H48.5z"/>
		<path class="st1" d="M58.4,123.3c0,1.6,1,2.2,2.2,2.2c0.8,0,1.3-0.1,1.8-0.3l0.2,0.8c-0.4,0.2-1.1,0.4-2.1,0.4
			c-2,0-3.2-1.3-3.2-3.2s1.1-3.4,3-3.4c2.1,0,2.6,1.8,2.6,3c0,0.2,0,0.4,0,0.5H58.4z M61.8,122.4c0-0.7-0.3-1.9-1.6-1.9
			c-1.2,0-1.7,1.1-1.8,1.9H61.8z"/>
		<path class="st1" d="M64.4,126.2c0-0.4,0.1-1.1,0.1-1.6v-7.6h1.2v4h0c0.4-0.7,1.2-1.2,2.2-1.2c1.6,0,2.7,1.3,2.7,3.2
			c0,2.3-1.4,3.4-2.9,3.4c-0.9,0-1.7-0.4-2.1-1.2h0l-0.1,1H64.4z M65.6,123.7c0,0.1,0,0.3,0.1,0.4c0.2,0.8,0.9,1.3,1.7,1.3
			c1.2,0,1.9-1,1.9-2.4c0-1.3-0.7-2.4-1.9-2.4c-0.8,0-1.5,0.5-1.8,1.4c0,0.1-0.1,0.3-0.1,0.5V123.7z"/>
		<path class="st1" d="M71.7,120.9c0-0.5,0.3-0.8,0.8-0.8s0.8,0.3,0.8,0.8c0,0.5-0.3,0.8-0.8,0.8C72,121.8,71.7,121.4,71.7,120.9z
			 M71.7,125.6c0-0.5,0.3-0.8,0.8-0.8s0.8,0.3,0.8,0.8c0,0.5-0.3,0.8-0.8,0.8C72,126.4,71.7,126,71.7,125.6z"/>
		<path class="st1" d="M78,119.9l0.8,3.2c0.2,0.7,0.4,1.4,0.5,2h0c0.1-0.6,0.4-1.3,0.6-2l1-3.2h1l1,3.2c0.2,0.8,0.4,1.4,0.6,2.1h0
			c0.1-0.6,0.3-1.3,0.5-2.1l0.9-3.2h1.2l-2.1,6.3h-1.1l-1-3c-0.2-0.7-0.4-1.3-0.6-2.1h0c-0.2,0.8-0.4,1.4-0.6,2.1l-1,3h-1.1
			l-1.9-6.3H78z"/>
		<path class="st1" d="M87.9,119.9l0.8,3.2c0.2,0.7,0.4,1.4,0.5,2h0c0.1-0.6,0.4-1.3,0.6-2l1-3.2h1l1,3.2c0.2,0.8,0.4,1.4,0.6,2.1h0
			c0.1-0.6,0.3-1.3,0.5-2.1l0.9-3.2H96l-2.1,6.3h-1.1l-1-3c-0.2-0.7-0.4-1.3-0.6-2.1h0c-0.2,0.8-0.4,1.4-0.6,2.1l-1,3h-1.1l-1.9-6.3
			H87.9z"/>
		<path class="st1" d="M97.8,119.9l0.8,3.2c0.2,0.7,0.4,1.4,0.5,2h0c0.1-0.6,0.4-1.3,0.6-2l1-3.2h1l1,3.2c0.2,0.8,0.4,1.4,0.6,2.1h0
			c0.1-0.6,0.3-1.3,0.5-2.1l0.9-3.2h1.2l-2.1,6.3h-1.1l-1-3c-0.2-0.7-0.4-1.3-0.6-2.1h0c-0.2,0.8-0.4,1.4-0.6,2.1l-1,3h-1.1
			l-1.9-6.3H97.8z"/>
		<path class="st1" d="M106.2,125.5c0-0.5,0.3-0.8,0.8-0.8s0.8,0.3,0.8,0.8c0,0.5-0.3,0.8-0.8,0.8
			C106.6,126.4,106.2,126,106.2,125.5z"/>
		<path class="st1" d="M115.1,123c0,2.3-1.6,3.4-3.2,3.4c-1.7,0-3.1-1.3-3.1-3.3c0-2.1,1.4-3.4,3.2-3.4
			C113.8,119.8,115.1,121.1,115.1,123z M110,123.1c0,1.4,0.8,2.4,1.9,2.4c1.1,0,1.9-1,1.9-2.5c0-1.1-0.5-2.4-1.9-2.4
			C110.6,120.6,110,121.9,110,123.1z"/>
		<path class="st1" d="M121.1,126c-0.3,0.2-1,0.4-1.8,0.4c-1.9,0-3.2-1.3-3.2-3.2c0-1.9,1.4-3.4,3.4-3.4c0.7,0,1.3,0.2,1.6,0.3
			l-0.3,0.9c-0.3-0.2-0.7-0.3-1.4-0.3c-1.5,0-2.3,1.1-2.3,2.4c0,1.5,1,2.4,2.2,2.4c0.7,0,1.1-0.2,1.4-0.3L121.1,126z"/>
		<path class="st1" d="M123,123.3c0,1.6,1,2.2,2.2,2.2c0.8,0,1.3-0.1,1.8-0.3l0.2,0.8c-0.4,0.2-1.1,0.4-2.1,0.4
			c-2,0-3.2-1.3-3.2-3.2s1.1-3.4,3-3.4c2.1,0,2.6,1.8,2.6,3c0,0.2,0,0.4,0,0.5H123z M126.5,122.4c0-0.7-0.3-1.9-1.6-1.9
			c-1.2,0-1.7,1.1-1.8,1.9H126.5z"/>
		<path class="st1" d="M132.6,126.2l-0.1-0.8h0c-0.4,0.5-1,0.9-2,0.9c-1.3,0-2-0.9-2-1.8c0-1.5,1.4-2.4,3.9-2.4v-0.1
			c0-0.5-0.1-1.5-1.5-1.5c-0.6,0-1.2,0.2-1.7,0.5l-0.3-0.8c0.5-0.3,1.3-0.6,2.1-0.6c2,0,2.4,1.3,2.4,2.6v2.4c0,0.5,0,1.1,0.1,1.5
			H132.6z M132.4,123c-1.3,0-2.7,0.2-2.7,1.4c0,0.7,0.5,1.1,1.1,1.1c0.8,0,1.4-0.5,1.5-1.1c0-0.1,0.1-0.2,0.1-0.4V123z"/>
		<path class="st1" d="M135.4,121.6c0-0.7,0-1.2-0.1-1.7h1l0.1,1h0c0.3-0.6,1.1-1.2,2.1-1.2c0.9,0,2.3,0.5,2.3,2.7v3.8h-1.2v-3.6
			c0-1-0.4-1.9-1.5-1.9c-0.8,0-1.4,0.5-1.6,1.2c-0.1,0.1-0.1,0.3-0.1,0.5v3.8h-1.2V121.6z"/>
		<path class="st1" d="M142.8,122c0-0.8,0-1.5-0.1-2.1h1l0.1,1.1h0c0.5-0.8,1.2-1.2,2.3-1.2c1.5,0,2.7,1.3,2.7,3.2
			c0,2.3-1.4,3.4-2.9,3.4c-0.8,0-1.6-0.4-2-1h0v3.4h-1.2V122z M143.9,123.7c0,0.2,0,0.3,0.1,0.5c0.2,0.8,0.9,1.3,1.7,1.3
			c1.2,0,1.9-1,1.9-2.4c0-1.3-0.7-2.4-1.9-2.4c-0.8,0-1.5,0.6-1.8,1.4c0,0.1-0.1,0.3-0.1,0.5V123.7z"/>
		<path class="st1" d="M150.3,116.9h1.2v9.3h-1.2V116.9z"/>
		<path class="st1" d="M158.8,124.5c0,0.7,0,1.2,0.1,1.7h-1l-0.1-1h0c-0.3,0.5-1,1.2-2.1,1.2c-1,0-2.2-0.5-2.2-2.8v-3.7h1.2v3.5
			c0,1.2,0.4,2,1.4,2c0.8,0,1.3-0.5,1.5-1c0.1-0.2,0.1-0.4,0.1-0.6v-3.9h1.2V124.5z"/>
		<path class="st1" d="M160.5,125.1c0.3,0.2,1,0.5,1.5,0.5c0.8,0,1.2-0.4,1.2-0.9c0-0.5-0.3-0.9-1.2-1.2c-1.2-0.4-1.7-1-1.7-1.8
			c0-1,0.8-1.9,2.2-1.9c0.6,0,1.2,0.2,1.6,0.4l-0.3,0.8c-0.3-0.2-0.7-0.4-1.3-0.4c-0.7,0-1.1,0.4-1.1,0.9c0,0.5,0.4,0.8,1.2,1.1
			c1.1,0.4,1.7,1,1.7,1.9c0,1.1-0.9,1.9-2.4,1.9c-0.7,0-1.4-0.2-1.8-0.4L160.5,125.1z"/>
		<path class="st1" d="M171.5,119.9c0,0.5-0.1,1-0.1,1.7v3.7c0,1.5-0.3,2.3-0.9,2.9c-0.6,0.6-1.5,0.8-2.3,0.8
			c-0.8,0-1.6-0.2-2.1-0.5l0.3-0.9c0.4,0.3,1.1,0.5,1.9,0.5c1.2,0,2.1-0.6,2.1-2.2v-0.7h0c-0.4,0.6-1,1.1-2,1.1
			c-1.6,0-2.7-1.3-2.7-3.1c0-2.1,1.4-3.4,2.9-3.4c1.1,0,1.7,0.6,2,1.1h0l0.1-1H171.5z M170.3,122.4c0-0.2,0-0.4-0.1-0.5
			c-0.2-0.7-0.8-1.2-1.6-1.2c-1.1,0-1.9,0.9-1.9,2.4c0,1.2,0.6,2.3,1.9,2.3c0.7,0,1.4-0.4,1.6-1.2c0.1-0.2,0.1-0.4,0.1-0.6V122.4z"
			/>
		<path class="st1" d="M176.9,126.2l-0.1-0.8h0c-0.4,0.5-1,0.9-2,0.9c-1.3,0-2-0.9-2-1.8c0-1.5,1.4-2.4,3.9-2.4v-0.1
			c0-0.5-0.1-1.5-1.5-1.5c-0.6,0-1.2,0.2-1.7,0.5l-0.3-0.8c0.5-0.3,1.3-0.6,2.1-0.6c2,0,2.4,1.3,2.4,2.6v2.4c0,0.5,0,1.1,0.1,1.5
			H176.9z M176.7,123c-1.3,0-2.7,0.2-2.7,1.4c0,0.7,0.5,1.1,1.1,1.1c0.8,0,1.4-0.5,1.5-1.1c0-0.1,0.1-0.2,0.1-0.4V123z"/>
		<path class="st1" d="M179.6,125.1c0.3,0.2,1,0.5,1.5,0.5c0.8,0,1.2-0.4,1.2-0.9c0-0.5-0.3-0.9-1.2-1.2c-1.2-0.4-1.7-1-1.7-1.8
			c0-1,0.8-1.9,2.2-1.9c0.6,0,1.2,0.2,1.6,0.4L183,121c-0.3-0.2-0.7-0.4-1.3-0.4c-0.7,0-1.1,0.4-1.1,0.9c0,0.5,0.4,0.8,1.2,1.1
			c1.1,0.4,1.7,1,1.7,1.9c0,1.1-0.9,1.9-2.4,1.9c-0.7,0-1.4-0.2-1.8-0.4L179.6,125.1z"/>
		<path class="st1" d="M184.6,125.5c0-0.5,0.3-0.8,0.8-0.8s0.8,0.3,0.8,0.8c0,0.5-0.3,0.8-0.8,0.8
			C184.9,126.4,184.6,126,184.6,125.5z"/>
		<path class="st1" d="M192.1,126c-0.3,0.2-1,0.4-1.8,0.4c-1.9,0-3.2-1.3-3.2-3.2c0-1.9,1.4-3.4,3.4-3.4c0.7,0,1.3,0.2,1.6,0.3
			l-0.3,0.9c-0.3-0.2-0.7-0.3-1.4-0.3c-1.5,0-2.3,1.1-2.3,2.4c0,1.5,1,2.4,2.2,2.4c0.7,0,1.1-0.2,1.4-0.3L192.1,126z"/>
		<path class="st1" d="M199.2,123c0,2.3-1.6,3.4-3.2,3.4c-1.7,0-3.1-1.3-3.1-3.3c0-2.1,1.4-3.4,3.2-3.4
			C198,119.8,199.2,121.1,199.2,123z M194.1,123.1c0,1.4,0.8,2.4,1.9,2.4c1.1,0,1.9-1,1.9-2.5c0-1.1-0.5-2.4-1.9-2.4
			C194.7,120.6,194.1,121.9,194.1,123.1z"/>
		<path class="st1" d="M200.7,121.6c0-0.7,0-1.2-0.1-1.7h1l0.1,1h0c0.4-0.6,1-1.2,2-1.2c0.9,0,1.5,0.5,1.8,1.3h0
			c0.2-0.4,0.5-0.6,0.7-0.8c0.4-0.3,0.8-0.4,1.4-0.4c0.8,0,2.1,0.5,2.1,2.7v3.7h-1.1v-3.6c0-1.2-0.5-1.9-1.4-1.9
			c-0.7,0-1.2,0.5-1.4,1c-0.1,0.2-0.1,0.4-0.1,0.6v3.9h-1.1v-3.8c0-1-0.5-1.7-1.3-1.7c-0.7,0-1.3,0.6-1.4,1.2
			c-0.1,0.2-0.1,0.4-0.1,0.6v3.8h-1.1V121.6z"/>
		<path class="st1" d="M211,127.8c0.3-0.8,0.6-2.2,0.8-3.1l1.3-0.1c-0.3,1.1-0.9,2.6-1.3,3.2L211,127.8z"/>
		<path class="st1" d="M221.9,122.1h-3.5v3.2h3.9v1h-5v-8.8h4.8v1h-3.7v2.8h3.5V122.1z"/>
		<path class="st1" d="M226.5,122.3v0.9h-3.3v-0.9H226.5z"/>
		<path class="st1" d="M227.9,121.6c0-0.7,0-1.2-0.1-1.7h1l0.1,1h0c0.4-0.6,1-1.2,2-1.2c0.9,0,1.5,0.5,1.8,1.3h0
			c0.2-0.4,0.5-0.6,0.7-0.8c0.4-0.3,0.8-0.4,1.4-0.4c0.8,0,2.1,0.5,2.1,2.7v3.7h-1.1v-3.6c0-1.2-0.5-1.9-1.4-1.9
			c-0.7,0-1.2,0.5-1.4,1c-0.1,0.2-0.1,0.4-0.1,0.6v3.9h-1.1v-3.8c0-1-0.5-1.7-1.3-1.7c-0.7,0-1.3,0.6-1.4,1.2
			c-0.1,0.2-0.1,0.4-0.1,0.6v3.8h-1.1V121.6z"/>
		<path class="st1" d="M242.5,126.2l-0.1-0.8h0c-0.4,0.5-1,0.9-2,0.9c-1.3,0-2-0.9-2-1.8c0-1.5,1.4-2.4,3.9-2.4v-0.1
			c0-0.5-0.1-1.5-1.5-1.5c-0.6,0-1.2,0.2-1.7,0.5l-0.3-0.8c0.5-0.3,1.3-0.6,2.1-0.6c2,0,2.4,1.3,2.4,2.6v2.4c0,0.5,0,1.1,0.1,1.5
			H242.5z M242.3,123c-1.3,0-2.7,0.2-2.7,1.4c0,0.7,0.5,1.1,1.1,1.1c0.8,0,1.4-0.5,1.5-1.1c0-0.1,0.1-0.2,0.1-0.4V123z"/>
		<path class="st1" d="M246.6,118.1c0,0.4-0.3,0.7-0.7,0.7c-0.4,0-0.7-0.3-0.7-0.7c0-0.4,0.3-0.7,0.7-0.7
			C246.3,117.4,246.6,117.7,246.6,118.1z M245.3,126.2v-6.3h1.2v6.3H245.3z"/>
		<path class="st1" d="M248.4,116.9h1.2v9.3h-1.2V116.9z"/>
		<path class="st1" d="M251.2,120.9c0-0.5,0.3-0.8,0.8-0.8s0.8,0.3,0.8,0.8c0,0.5-0.3,0.8-0.8,0.8
			C251.5,121.8,251.2,121.4,251.2,120.9z M251.2,125.6c0-0.5,0.3-0.8,0.8-0.8s0.8,0.3,0.8,0.8c0,0.5-0.3,0.8-0.8,0.8
			C251.5,126.4,251.2,126,251.2,125.6z"/>
		<path class="st1" d="M262.9,123c0,2.3-1.6,3.4-3.2,3.4c-1.7,0-3.1-1.3-3.1-3.3c0-2.1,1.4-3.4,3.2-3.4
			C261.6,119.8,262.9,121.1,262.9,123z M257.8,123.1c0,1.4,0.8,2.4,1.9,2.4c1.1,0,1.9-1,1.9-2.5c0-1.1-0.5-2.4-1.9-2.4
			C258.4,120.6,257.8,121.9,257.8,123.1z"/>
		<path class="st1" d="M268.9,126c-0.3,0.2-1,0.4-1.8,0.4c-1.9,0-3.2-1.3-3.2-3.2c0-1.9,1.4-3.4,3.4-3.4c0.7,0,1.3,0.2,1.6,0.3
			l-0.3,0.9c-0.3-0.2-0.7-0.3-1.4-0.3c-1.5,0-2.3,1.1-2.3,2.4c0,1.5,1,2.4,2.2,2.4c0.7,0,1.1-0.2,1.4-0.3L268.9,126z"/>
		<path class="st1" d="M270.8,123.3c0,1.6,1,2.2,2.2,2.2c0.8,0,1.3-0.1,1.8-0.3l0.2,0.8c-0.4,0.2-1.1,0.4-2.1,0.4
			c-2,0-3.2-1.3-3.2-3.2s1.1-3.4,3-3.4c2.1,0,2.6,1.8,2.6,3c0,0.2,0,0.4,0,0.5H270.8z M274.2,122.4c0-0.7-0.3-1.9-1.6-1.9
			c-1.2,0-1.7,1.1-1.8,1.9H274.2z"/>
		<path class="st1" d="M280.4,126.2l-0.1-0.8h0c-0.4,0.5-1,0.9-2,0.9c-1.3,0-2-0.9-2-1.8c0-1.5,1.4-2.4,3.9-2.4v-0.1
			c0-0.5-0.1-1.5-1.5-1.5c-0.6,0-1.2,0.2-1.7,0.5l-0.3-0.8c0.5-0.3,1.3-0.6,2.1-0.6c2,0,2.4,1.3,2.4,2.6v2.4c0,0.5,0,1.1,0.1,1.5
			H280.4z M280.2,123c-1.3,0-2.7,0.2-2.7,1.4c0,0.7,0.5,1.1,1.1,1.1c0.8,0,1.4-0.5,1.5-1.1c0-0.1,0.1-0.2,0.1-0.4V123z"/>
		<path class="st1" d="M283.2,121.6c0-0.7,0-1.2-0.1-1.7h1l0.1,1h0c0.3-0.6,1.1-1.2,2.1-1.2c0.9,0,2.3,0.5,2.3,2.7v3.8h-1.2v-3.6
			c0-1-0.4-1.9-1.5-1.9c-0.8,0-1.4,0.5-1.6,1.2c-0.1,0.1-0.1,0.3-0.1,0.5v3.8h-1.2V121.6z"/>
		<path class="st1" d="M290.5,122c0-0.8,0-1.5-0.1-2.1h1l0.1,1.1h0c0.5-0.8,1.2-1.2,2.3-1.2c1.5,0,2.7,1.3,2.7,3.2
			c0,2.3-1.4,3.4-2.9,3.4c-0.8,0-1.6-0.4-2-1h0v3.4h-1.2V122z M291.7,123.7c0,0.2,0,0.3,0.1,0.5c0.2,0.8,0.9,1.3,1.7,1.3
			c1.2,0,1.9-1,1.9-2.4c0-1.3-0.7-2.4-1.9-2.4c-0.8,0-1.5,0.6-1.8,1.4c0,0.1-0.1,0.3-0.1,0.5V123.7z"/>
		<path class="st1" d="M298.1,116.9h1.2v9.3h-1.2V116.9z"/>
		<path class="st1" d="M306.6,124.5c0,0.7,0,1.2,0.1,1.7h-1l-0.1-1h0c-0.3,0.5-1,1.2-2.1,1.2c-1,0-2.2-0.5-2.2-2.8v-3.7h1.2v3.5
			c0,1.2,0.4,2,1.4,2c0.8,0,1.3-0.5,1.5-1c0.1-0.2,0.1-0.4,0.1-0.6v-3.9h1.2V124.5z"/>
		<path class="st1" d="M308.3,125.1c0.3,0.2,1,0.5,1.5,0.5c0.8,0,1.2-0.4,1.2-0.9c0-0.5-0.3-0.9-1.2-1.2c-1.2-0.4-1.7-1-1.7-1.8
			c0-1,0.8-1.9,2.2-1.9c0.6,0,1.2,0.2,1.6,0.4l-0.3,0.8c-0.3-0.2-0.7-0.4-1.3-0.4c-0.7,0-1.1,0.4-1.1,0.9c0,0.5,0.4,0.8,1.2,1.1
			c1.1,0.4,1.7,1,1.7,1.9c0,1.1-0.9,1.9-2.4,1.9c-0.7,0-1.4-0.2-1.8-0.4L308.3,125.1z"/>
		<path class="st1" d="M313.6,124.9c0.3,0.2,1.1,0.5,1.9,0.5c1.5,0,2-0.9,1.9-1.6c0-1.2-1.1-1.7-2.2-1.7h-0.6v-0.9h0.6
			c0.8,0,1.9-0.4,1.9-1.4c0-0.7-0.4-1.3-1.5-1.3c-0.7,0-1.4,0.3-1.7,0.6l-0.3-0.8c0.5-0.3,1.3-0.7,2.3-0.7c1.7,0,2.5,1,2.5,2
			c0,0.9-0.5,1.6-1.6,2v0c1.1,0.2,1.9,1,1.9,2.2c0,1.4-1.1,2.6-3.1,2.6c-1,0-1.8-0.3-2.2-0.6L313.6,124.9z"/>
		<path class="st1" d="M325.1,118.5c-0.2,0-0.5,0-0.9,0.1c-1.8,0.3-2.8,1.6-3,3h0c0.4-0.5,1.1-1,2.1-1c1.5,0,2.6,1.1,2.6,2.7
			c0,1.6-1.1,3-2.9,3c-1.8,0-3-1.4-3-3.6c0-1.7,0.6-3,1.5-3.8c0.7-0.7,1.7-1.1,2.8-1.3c0.3-0.1,0.6-0.1,0.8-0.1V118.5z M324.7,123.4
			c0-1.2-0.7-1.9-1.8-1.9c-0.7,0-1.4,0.4-1.7,1c-0.1,0.1-0.1,0.3-0.1,0.5c0,1.4,0.7,2.4,1.9,2.4
			C324.1,125.5,324.7,124.7,324.7,123.4z"/>
		<path class="st1" d="M331.9,118.5c-0.2,0-0.5,0-0.9,0.1c-1.8,0.3-2.8,1.6-3,3h0c0.4-0.5,1.1-1,2.1-1c1.5,0,2.6,1.1,2.6,2.7
			c0,1.6-1.1,3-2.9,3c-1.8,0-3-1.4-3-3.6c0-1.7,0.6-3,1.5-3.8c0.7-0.7,1.7-1.1,2.8-1.3c0.3-0.1,0.6-0.1,0.8-0.1V118.5z M331.5,123.4
			c0-1.2-0.7-1.9-1.8-1.9c-0.7,0-1.4,0.4-1.7,1c-0.1,0.1-0.1,0.3-0.1,0.5c0,1.4,0.7,2.4,1.9,2.4
			C330.9,125.5,331.5,124.7,331.5,123.4z"/>
		<path class="st1" d="M340.1,127.1c-0.7,0.4-1.5,0.5-2.4,0.5c-2.2,0-4-1.6-4-4.1c0-2.7,1.9-5,4.8-5c2.3,0,3.9,1.6,3.9,3.8
			c0,2-1.1,3.1-2.4,3.1c-0.5,0-1-0.4-1-1.2H339c-0.5,0.8-1.1,1.2-1.9,1.2c-0.8,0-1.4-0.6-1.4-1.6c0-1.6,1.3-3.1,3.1-3.1
			c0.6,0,1.1,0.1,1.4,0.3l-0.5,2.4c-0.2,1,0,1.5,0.4,1.5c0.7,0,1.4-0.9,1.4-2.4c0-1.9-1.2-3.3-3.2-3.3c-2.2,0-4,1.7-4,4.3
			c0,2.2,1.4,3.5,3.4,3.5c0.8,0,1.5-0.2,2-0.5L340.1,127.1z M339.4,121.4c-0.1,0-0.4-0.1-0.7-0.1c-1.2,0-2.1,1.1-2.1,2.4
			c0,0.6,0.3,1,0.9,1c0.8,0,1.5-1,1.6-1.8L339.4,121.4z"/>
		<path class="st1" d="M349.4,119.9c0,0.5-0.1,1-0.1,1.7v3.7c0,1.5-0.3,2.3-0.9,2.9c-0.6,0.6-1.5,0.8-2.3,0.8
			c-0.8,0-1.6-0.2-2.1-0.5l0.3-0.9c0.4,0.3,1.1,0.5,1.9,0.5c1.2,0,2.1-0.6,2.1-2.2v-0.7h0c-0.4,0.6-1,1.1-2,1.1
			c-1.6,0-2.7-1.3-2.7-3.1c0-2.1,1.4-3.4,2.9-3.4c1.1,0,1.7,0.6,2,1.1h0l0.1-1H349.4z M348.2,122.4c0-0.2,0-0.4-0.1-0.5
			c-0.2-0.7-0.8-1.2-1.6-1.2c-1.1,0-1.9,0.9-1.9,2.4c0,1.2,0.6,2.3,1.9,2.3c0.7,0,1.4-0.4,1.6-1.2c0.1-0.2,0.1-0.4,0.1-0.6V122.4z"
			/>
		<path class="st1" d="M351.2,121.6c0-0.7,0-1.2-0.1-1.7h1l0.1,1h0c0.4-0.6,1-1.2,2-1.2c0.9,0,1.5,0.5,1.8,1.3h0
			c0.2-0.4,0.5-0.6,0.7-0.8c0.4-0.3,0.8-0.4,1.4-0.4c0.8,0,2.1,0.5,2.1,2.7v3.7h-1.1v-3.6c0-1.2-0.5-1.9-1.4-1.9
			c-0.7,0-1.2,0.5-1.4,1c-0.1,0.2-0.1,0.4-0.1,0.6v3.9h-1.1v-3.8c0-1-0.5-1.7-1.3-1.7c-0.7,0-1.3,0.6-1.4,1.2
			c-0.1,0.2-0.1,0.4-0.1,0.6v3.8h-1.1V121.6z"/>
		<path class="st1" d="M365.8,126.2l-0.1-0.8h0c-0.4,0.5-1,0.9-2,0.9c-1.3,0-2-0.9-2-1.8c0-1.5,1.4-2.4,3.9-2.4v-0.1
			c0-0.5-0.1-1.5-1.5-1.5c-0.6,0-1.2,0.2-1.7,0.5l-0.3-0.8c0.5-0.3,1.3-0.6,2.1-0.6c2,0,2.4,1.3,2.4,2.6v2.4c0,0.5,0,1.1,0.1,1.5
			H365.8z M365.6,123c-1.3,0-2.7,0.2-2.7,1.4c0,0.7,0.5,1.1,1.1,1.1c0.8,0,1.4-0.5,1.5-1.1c0-0.1,0.1-0.2,0.1-0.4V123z"/>
		<path class="st1" d="M369.9,118.1c0,0.4-0.3,0.7-0.7,0.7c-0.4,0-0.7-0.3-0.7-0.7c0-0.4,0.3-0.7,0.7-0.7
			C369.6,117.4,369.9,117.7,369.9,118.1z M368.6,126.2v-6.3h1.2v6.3H368.6z"/>
		<path class="st1" d="M371.7,116.9h1.2v9.3h-1.2V116.9z"/>
		<path class="st1" d="M374.4,125.5c0-0.5,0.3-0.8,0.8-0.8s0.8,0.3,0.8,0.8c0,0.5-0.3,0.8-0.8,0.8
			C374.8,126.4,374.4,126,374.4,125.5z"/>
		<path class="st1" d="M382,126c-0.3,0.2-1,0.4-1.8,0.4c-1.9,0-3.2-1.3-3.2-3.2c0-1.9,1.4-3.4,3.4-3.4c0.7,0,1.3,0.2,1.6,0.3
			l-0.3,0.9c-0.3-0.2-0.7-0.3-1.4-0.3c-1.5,0-2.3,1.1-2.3,2.4c0,1.5,1,2.4,2.2,2.4c0.7,0,1.1-0.2,1.4-0.3L382,126z"/>
		<path class="st1" d="M389.1,123c0,2.3-1.6,3.4-3.2,3.4c-1.7,0-3.1-1.3-3.1-3.3c0-2.1,1.4-3.4,3.2-3.4
			C387.9,119.8,389.1,121.1,389.1,123z M384,123.1c0,1.4,0.8,2.4,1.9,2.4c1.1,0,1.9-1,1.9-2.5c0-1.1-0.5-2.4-1.9-2.4
			C384.6,120.6,384,121.9,384,123.1z"/>
		<path class="st1" d="M390.6,121.6c0-0.7,0-1.2-0.1-1.7h1l0.1,1h0c0.4-0.6,1-1.2,2-1.2c0.9,0,1.5,0.5,1.8,1.3h0
			c0.2-0.4,0.5-0.6,0.7-0.8c0.4-0.3,0.8-0.4,1.4-0.4c0.8,0,2.1,0.5,2.1,2.7v3.7h-1.1v-3.6c0-1.2-0.5-1.9-1.4-1.9
			c-0.7,0-1.2,0.5-1.4,1c-0.1,0.2-0.1,0.4-0.1,0.6v3.9h-1.1v-3.8c0-1-0.5-1.7-1.3-1.7c-0.7,0-1.3,0.6-1.4,1.2
			c-0.1,0.2-0.1,0.4-0.1,0.6v3.8h-1.1V121.6z"/>
	</g>
</g>
<g>
	<g>
		<path class="st2" d="M48.8,70.7c-2,0-3.5-0.7-4.5-2.2c-1-1.5-1.6-3.7-1.6-6.5c0-2.6,0.5-4.6,1.6-6.1c1-1.5,2.5-2.2,4.4-2.2
			c2,0,3.5,0.7,4.6,2.2s1.6,3.6,1.6,6.3s-0.5,4.8-1.6,6.3C52.2,70,50.7,70.7,48.8,70.7z M45.8,52.8c-0.5,0-0.9-0.2-1.2-0.5
			c-0.3-0.3-0.5-0.7-0.5-1.2c0-0.5,0.2-0.8,0.5-1.2c0.3-0.3,0.7-0.5,1.2-0.5c0.5,0,0.8,0.2,1.2,0.5c0.3,0.3,0.5,0.7,0.5,1.2
			c0,0.5-0.2,0.8-0.5,1.2C46.7,52.6,46.3,52.8,45.8,52.8z M48.6,57.3c-1.3,0-2,1.6-2,4.7c0,2,0.2,3.3,0.5,4c0.3,0.7,0.8,1,1.5,1
			c0.7,0,1.2-0.3,1.6-1s0.6-2,0.6-3.9C50.8,58.9,50.1,57.3,48.6,57.3z M51.4,52.8c-0.5,0-0.8-0.2-1.2-0.5c-0.3-0.3-0.5-0.7-0.5-1.2
			c0-0.5,0.2-0.8,0.5-1.2c0.3-0.3,0.7-0.5,1.2-0.5c0.5,0,0.9,0.2,1.2,0.5c0.3,0.3,0.5,0.7,0.5,1.2c0,0.5-0.2,0.8-0.5,1.2
			C52.3,52.6,51.9,52.8,51.4,52.8z"/>
		<path class="st2" d="M66.1,66.5v3.8c-0.8,0.3-1.5,0.4-2.1,0.4c-2.2,0-3.9-0.8-5.2-2.4c-1.3-1.6-2-3.7-2-6.3c0-2.4,0.7-4.4,2-6
			c1.4-1.6,3.1-2.4,5.1-2.4c0.8,0,1.5,0.1,2.2,0.3v3.9c-0.7-0.2-1.4-0.4-2-0.4c-1,0-1.8,0.4-2.4,1.3c-0.6,0.9-1,2-1,3.3
			c0,1.5,0.3,2.6,1,3.4s1.5,1.3,2.6,1.3C64.8,66.9,65.4,66.7,66.1,66.5z"/>
		<path class="st2" d="M68.5,54.1H76v3.4h-3.8v3h3.3v3.4h-3.3v2.9h3.8v3.5h-7.6V54.1z"/>
		<path class="st2" d="M90.5,70.3h-3.9L86,67.6h-3.9l-0.7,2.7h-3.8L82,54.1h4.2L90.5,70.3z M85.3,64.7c-0.6-2.4-1-4.7-1.3-6.9h0
			c-0.3,2.2-0.7,4.5-1.2,6.9H85.3z"/>
		<path class="st2" d="M92.4,54.1h3.8l4.7,9.3l-0.1-1.7v-7.6h3.7v16.2h-3.8L96,61.1l0.1,2v7.2h-3.7V54.1z"/>
		<path class="st2" d="M114.1,54.1h4.6c1.6,0,2.9,0.5,3.9,1.4c1,0.9,1.5,2.1,1.5,3.6c0,1.6-0.5,2.8-1.5,3.7c-1,0.9-2.4,1.3-4.1,1.3
			h-0.6v6.2h-3.7V54.1z M117.8,57.2V61c0.8,0,1.5-0.2,1.8-0.5c0.4-0.3,0.6-0.8,0.6-1.4c0-0.7-0.2-1.2-0.6-1.5
			C119.3,57.4,118.7,57.2,117.8,57.2z"/>
		<path class="st2" d="M126.9,54.1h3.7v12.4h2.9v3.7h-6.7V54.1z"/>
		<path class="st2" d="M135.8,54.1h3.8v11.4c0,0.5,0.1,1,0.4,1.3c0.3,0.3,0.7,0.5,1.2,0.5c0.5,0,0.9-0.2,1.2-0.5
			c0.3-0.3,0.4-0.8,0.4-1.4V54.1h3.8v10.6c0,1.4-0.2,2.6-0.6,3.5c-0.4,0.9-1,1.5-1.7,1.9c-0.7,0.4-1.8,0.6-3.1,0.6
			c-2,0-3.4-0.5-4.2-1.5c-0.8-1-1.2-2.7-1.2-5.1V54.1z"/>
		<path class="st2" d="M149.9,70v-3.8c1.2,0.7,2.2,1,3,1c0.5,0,0.8-0.1,1.1-0.4c0.3-0.3,0.4-0.6,0.4-1c0-0.3-0.1-0.6-0.3-0.9
			c-0.2-0.3-0.6-0.6-1.1-1c-1.3-1-2.2-1.9-2.8-2.7c-0.6-0.8-0.9-1.8-0.9-2.8c0-1.4,0.4-2.5,1.3-3.4s2-1.3,3.5-1.3
			c1,0,2.1,0.2,3.1,0.7V58c-1.1-0.6-2-0.9-2.7-0.9c-0.5,0-0.8,0.1-1.1,0.3c-0.3,0.2-0.4,0.5-0.4,0.9c0,0.7,0.6,1.4,1.9,2.3
			c0.7,0.5,1.5,1.2,2.2,2.1c0.8,0.9,1.1,2,1.1,3.2c0,1.4-0.5,2.6-1.5,3.5s-2.2,1.4-3.8,1.4C152,70.7,151,70.5,149.9,70z"/>
		<path class="st2" d="M167.3,54.1h3.7v16.2h-3.7V54.1z"/>
		<path class="st2" d="M174.6,54.1h3.8l4.7,9.3l-0.1-1.7v-7.6h3.7v16.2h-3.8l-4.6-9.2l0.1,2v7.2h-3.7V54.1z"/>
		<path class="st2" d="M190.2,54.1h3.5c2.4,0,4.2,0.7,5.5,2c1.3,1.4,1.9,3.3,1.9,5.9c0,2-0.3,3.6-0.9,4.8c-0.6,1.2-1.5,2.1-2.6,2.6
			c-1.1,0.5-2.3,0.8-3.7,0.8h-3.6V54.1z M193.9,57.6v9.3c1.1-0.1,1.9-0.5,2.4-1.2c0.5-0.7,0.7-1.8,0.7-3.4c0-0.9-0.1-1.7-0.2-2.4
			c-0.2-0.7-0.4-1.2-0.7-1.5c-0.3-0.4-0.6-0.6-0.9-0.6C194.8,57.6,194.4,57.6,193.9,57.6z"/>
		<path class="st2" d="M203.4,54.1h3.8v11.4c0,0.5,0.1,1,0.4,1.3c0.3,0.3,0.7,0.5,1.2,0.5c0.5,0,0.9-0.2,1.2-0.5
			c0.3-0.3,0.4-0.8,0.4-1.4V54.1h3.8v10.6c0,1.4-0.2,2.6-0.6,3.5c-0.4,0.9-1,1.5-1.7,1.9c-0.7,0.4-1.8,0.6-3.1,0.6
			c-2,0-3.4-0.5-4.2-1.5c-0.8-1-1.2-2.7-1.2-5.1V54.1z"/>
		<path class="st2" d="M217.6,70v-3.8c1.2,0.7,2.2,1,3,1c0.5,0,0.8-0.1,1.1-0.4c0.3-0.3,0.4-0.6,0.4-1c0-0.3-0.1-0.6-0.3-0.9
			c-0.2-0.3-0.6-0.6-1.1-1c-1.3-1-2.2-1.9-2.8-2.7c-0.6-0.8-0.9-1.8-0.9-2.8c0-1.4,0.4-2.5,1.3-3.4s2-1.3,3.5-1.3
			c1,0,2.1,0.2,3.1,0.7V58c-1.1-0.6-2-0.9-2.7-0.9c-0.5,0-0.8,0.1-1.1,0.3c-0.3,0.2-0.4,0.5-0.4,0.9c0,0.7,0.6,1.4,1.9,2.3
			c0.7,0.5,1.5,1.2,2.2,2.1c0.8,0.9,1.1,2,1.1,3.2c0,1.4-0.5,2.6-1.5,3.5s-2.2,1.4-3.8,1.4C219.7,70.7,218.6,70.5,217.6,70z"/>
		<path class="st2" d="M227.4,54.1h8.9v3.7h-2.6v12.5h-3.8V57.8h-2.5V54.1z"/>
		<path class="st2" d="M238.6,54.1h4.3c1.8,0,3.1,0.4,4.2,1.3c1,0.9,1.5,2.1,1.5,3.6c0,0.8-0.2,1.5-0.6,2.3s-0.9,1.3-1.7,1.7l3,7.3
			h-3.9l-3-7.4h-0.1v7.4h-3.7V54.1z M242.3,57.2v3.8c1.6,0,2.5-0.6,2.5-1.7c0-0.8-0.2-1.3-0.6-1.6C243.8,57.4,243.2,57.3,242.3,57.2
			z"/>
		<path class="st2" d="M251.5,54.1h3.7v16.2h-3.7V54.1z"/>
		<path class="st2" d="M270.4,70.3h-3.9l-0.6-2.7h-3.9l-0.7,2.7h-3.8l4.3-16.2h4.2L270.4,70.3z M265.2,64.7c-0.6-2.4-1-4.7-1.3-6.9
			h0c-0.3,2.2-0.7,4.5-1.2,6.9H265.2z"/>
		<path class="st2" d="M272.2,54.1h3.7v12.4h2.9v3.7h-6.7V54.1z"/>
		<path class="st2" d="M298.9,61.2V64c0,2.1-0.5,3.8-1.5,5c-1,1.2-2.4,1.8-4.2,1.8c-2,0-3.5-0.7-4.6-2.2c-1.1-1.5-1.6-3.6-1.6-6.3
			c0-2.8,0.5-4.9,1.6-6.3c1.1-1.4,2.7-2.2,4.8-2.2c2.3,0,4,1.2,5.1,3.7l-3.5,1.4c-0.3-0.5-0.6-0.9-0.8-1.1c-0.3-0.2-0.6-0.4-1-0.4
			c-0.8,0-1.3,0.4-1.6,1.2s-0.5,2-0.5,3.8c0,1.6,0.2,2.8,0.5,3.6c0.4,0.8,0.9,1.1,1.7,1.1c1.2,0,1.9-0.9,1.9-2.6h-1.7v-3.1H298.9z"
			/>
		<path class="st2" d="M313.1,70.3h-3.9l-0.6-2.7h-3.9l-0.7,2.7h-3.8l4.3-16.2h4.2L313.1,70.3z M307.9,64.7c-0.6-2.4-1-4.7-1.3-6.9
			h0c-0.3,2.2-0.7,4.5-1.2,6.9H307.9z"/>
		<path class="st2" d="M314.9,70v-3.8c1.2,0.7,2.2,1,3,1c0.5,0,0.8-0.1,1.1-0.4c0.3-0.3,0.4-0.6,0.4-1c0-0.3-0.1-0.6-0.3-0.9
			c-0.2-0.3-0.6-0.6-1.1-1c-1.3-1-2.2-1.9-2.8-2.7c-0.6-0.8-0.9-1.8-0.9-2.8c0-1.4,0.4-2.5,1.3-3.4c0.9-0.9,2-1.3,3.5-1.3
			c1,0,2.1,0.2,3.1,0.7V58c-1.1-0.6-2-0.9-2.7-0.9c-0.5,0-0.8,0.1-1.1,0.3c-0.3,0.2-0.4,0.5-0.4,0.9c0,0.7,0.6,1.4,1.9,2.3
			c0.7,0.5,1.5,1.2,2.2,2.1c0.8,0.9,1.1,2,1.1,3.2c0,1.4-0.5,2.6-1.5,3.5s-2.2,1.4-3.8,1.4C317,70.7,316,70.5,314.9,70z"/>
		<path class="st2" d="M330.9,54.1h8.9v3.7h-2.6v12.5h-3.8V57.8h-2.5V54.1z"/>
		<path class="st2" d="M342.1,54.1h4.3c1.8,0,3.1,0.4,4.2,1.3c1,0.9,1.5,2.1,1.5,3.6c0,0.8-0.2,1.5-0.6,2.3s-0.9,1.3-1.7,1.7l3,7.3
			h-3.9l-3-7.4h-0.1v7.4h-3.7V54.1z M345.8,57.2v3.8c1.6,0,2.5-0.6,2.5-1.7c0-0.8-0.2-1.3-0.6-1.6C347.3,57.4,346.7,57.3,345.8,57.2
			z"/>
		<path class="st2" d="M366.4,70.3h-3.9l-0.6-2.7h-3.9l-0.7,2.7h-3.8l4.3-16.2h4.2L366.4,70.3z M361.2,64.7c-0.6-2.4-1-4.7-1.3-6.9
			h0c-0.3,2.2-0.7,4.5-1.2,6.9H361.2z"/>
		<path class="st2" d="M368.2,54.1h3.5c2.4,0,4.2,0.7,5.5,2c1.3,1.4,1.9,3.3,1.9,5.9c0,2-0.3,3.6-0.9,4.8c-0.6,1.2-1.5,2.1-2.6,2.6
			c-1.1,0.5-2.3,0.8-3.7,0.8h-3.6V54.1z M372,57.6v9.3c1.1-0.1,1.9-0.5,2.4-1.2c0.5-0.7,0.7-1.8,0.7-3.4c0-0.9-0.1-1.7-0.2-2.4
			c-0.2-0.7-0.4-1.2-0.7-1.5c-0.3-0.4-0.6-0.6-0.9-0.6C372.8,57.6,372.4,57.6,372,57.6z"/>
		<path class="st2" d="M381.7,54.1h3.7v16.2h-3.7V54.1z"/>
		<path class="st2" d="M389.1,54.1h3.8l4.7,9.3l-0.1-1.7v-7.6h3.7v16.2h-3.8l-4.6-9.2l0.1,2v7.2h-3.7V54.1z"/>
		<path class="st2" d="M415.9,61.2V64c0,2.1-0.5,3.8-1.5,5c-1,1.2-2.4,1.8-4.2,1.8c-2,0-3.5-0.7-4.6-2.2c-1.1-1.5-1.6-3.6-1.6-6.3
			c0-2.8,0.5-4.9,1.6-6.3c1.1-1.4,2.7-2.2,4.8-2.2c2.3,0,4,1.2,5.1,3.7l-3.5,1.4c-0.3-0.5-0.6-0.9-0.8-1.1c-0.3-0.2-0.6-0.4-1-0.4
			c-0.8,0-1.3,0.4-1.6,1.2s-0.5,2-0.5,3.8c0,1.6,0.2,2.8,0.5,3.6c0.4,0.8,0.9,1.1,1.7,1.1c1.2,0,1.9-0.9,1.9-2.6h-1.7v-3.1H415.9z"
			/>
	</g>
</g>
<g>
	
		<text transform="matrix(1.0126 0 0 1 901.5991 37.6731)" class="st0" style="font-family:'AdobeArabic-Regular'; font-size:48.7526px;"></text>
</g>
<g>
	<text transform="matrix(1.0126 0 0 1 572.6694 96.3923)"><tspan x="0" y="0" class="st1" style="font-family:'MyriadPro-Regular'; font-size:13.0754px;">Mussafah -M 11, Plot no # 13, Shop no -17, Abu Dhabi, UAE.</tspan><tspan x="67.1" y="15.7" class="st1" style="font-family:'MyriadPro-Regular'; font-size:13.0754px;">Cell: +971556414602, 0567570506</tspan><tspan x="-15.3" y="31.4" class="st1" style="font-family:'MyriadPro-Regular'; font-size:13.0754px;">Web: www.oceanplusgas.com, E-mail: oceanplus366@gmail.com</tspan></text>
</g>
<g>
	
		<text transform="matrix(1.0126 0 0 1 553.3491 71.8503)" class="st2" style="font-family:'TwCenMT-CondensedExtraBold'; font-size:24.8293px;">CEAN PLUS INDUSTRIAL GAS TRADING</text>
</g>
</svg>
