<?xml version="1.0" encoding="utf-8"?>
<!-- Generator: Adobe Illustrator 23.0.5, SVG Export Plug-In . SVG Version: 6.00 Build 0)  -->
<svg version="1.1" id="Layer_1" xmlns="http://www.w3.org/2000/svg" xmlns:xlink="http://www.w3.org/1999/xlink" x="0px" y="0px"
	 viewBox="0 0 456 100.8" style="enable-background:new 0 0 456 100.8;" xml:space="preserve">
<style type="text/css">
	.st0{fill:#33459C;}
	.st1{fill:#1F160E;}
	.st2{fill:#98221F;}
</style>
<g>
	<g>
		<path class="st0" d="M37.2,28.3c-2.2,0-3.8-0.8-3.8-2.4c0-0.6,0.2-1.4,0.7-2.4c0.9-1.8,3.1-3.8,6.7-5.7l-0.2-1.6
			c0.5-0.6,1.1-1.2,1.7-1.7h0.3c0.1,3.2,0.1,6.5,0.1,9.7c0,1.4,0.2,2.4,0.8,3c0.5,0.4,1.3,0.5,2.2,0.5h0.5v2.6h-0.4
			c-2.1,0-3.6-0.5-4.4-2.9C40.2,27.9,38.8,28.3,37.2,28.3z M40.9,20c-3.8,1.9-5.7,3.5-5.7,4.5c0,0.8,1.2,1.1,2.7,1.1
			c0.9,0,1.8-0.2,3.1-0.6L40.9,20z M38.4,12.7c-0.9-0.8-1.7-1.5-2.4-2.2c0.5-0.8,1.1-1.4,1.7-2c0.9,0.7,1.6,1.3,2.4,2.2
			C39.5,11.5,39,12.1,38.4,12.7z M42.5,12.4c-0.9-0.8-1.7-1.5-2.4-2.2c0.5-0.8,1.1-1.4,1.7-2c0.9,0.7,1.6,1.3,2.4,2.2
			C43.5,11.3,43,11.8,42.5,12.4z"/>
		<path class="st0" d="M46.6,27.6c1.7,0,3.3-0.6,3.6-1.8l0.6-2.3l1.5-1l0.1,0.2c-0.3,1-0.4,1.9-0.4,2.4c0,0.7,0.2,1.3,0.7,1.7
			c0.7,0.5,1.5,0.9,2.6,0.9h0.3v2.6h-0.5c-2.1,0-3.6-0.5-4.4-2.1h-0.1c-0.7,1.4-2.4,2.1-4.2,2.1H46c-1.1,0-1.5-0.9-1.5-1.4
			c0-0.5,0.3-1.3,1.5-1.3H46.6z M49,38.6c-0.9-0.8-1.7-1.5-2.4-2.2c0.5-0.8,1.1-1.4,1.7-2c0.9,0.7,1.6,1.3,2.4,2.2
			C50,37.5,49.6,38,49,38.6z M53.1,38.3c-0.9-0.8-1.7-1.5-2.4-2.2c0.5-0.8,1.1-1.4,1.7-2c0.9,0.7,1.6,1.3,2.4,2.2
			C54.1,37.2,53.7,37.8,53.1,38.3z"/>
		<path class="st0" d="M57,27.6c0.8,0,1.9-0.1,3.1-0.4v-0.1c-1.5-1-2.4-2.3-2.4-4.1c0-0.9,0.3-1.7,0.9-2.7c1-1.7,2.5-2.8,4.4-2.8
			c1.9,0,3.6,1.3,4.7,3.4l-0.4,0.4c-1.1-1-2.3-1.3-3.8-1.3c-2.3,0-3.8,1-3.8,1.7c0,1,0.6,2,1.8,3c0.8,0.6,1.9,1.1,2.5,1.1
			c1.6,0,3.5-0.6,6-1.5l0.1,0.1L69,27.1c-3.3,1.1-4.9,1.3-7.5,2.2c-1.8,0.6-3.5,1.1-5.2,1.1h-0.6c-1.1,0-1.5-0.9-1.5-1.4
			c0-0.5,0.3-1.3,1.5-1.3L57,27.6L57,27.6z"/>
		<path class="st0" d="M78.7,30.3h-0.3c-1.7,0-2.7-0.3-3.6-1.2c-1.3-1.3-1.3-2.8-1.3-5.9c0-3.9-0.3-8.1-0.5-12.5
			c0.7-0.8,1.4-1.5,2-1.9l0.2,0.1c0.3,4.5,0.3,10,0.3,15v1.2c0,1.3,0.8,1.9,1.6,2.2c0.5,0.2,1,0.3,1.3,0.3h0.3
			C78.7,27.5,78.7,30.3,78.7,30.3z"/>
		<path class="st0" d="M79.2,27.6c1.7,0,3.3-0.6,3.6-1.8l0.6-2.3l1.5-1l0.1,0.2c-0.3,1-0.4,1.9-0.4,2.4c0,0.7,0.2,1.3,0.7,1.7
			c0.7,0.5,1.5,0.9,2.6,0.9h0.3v2.6h-0.5c-2.1,0-3.6-0.5-4.4-2.1h-0.1c-0.7,1.4-2.4,2.1-4.2,2.1h-0.4c-1.1,0-1.5-0.9-1.5-1.4
			c0-0.5,0.3-1.3,1.5-1.3H79.2z M82.8,15c0.9,0.6,1.7,1.4,2.5,2.2c-0.4,0.8-1,1.4-1.7,2c-0.8-0.8-1.7-1.4-2.4-2.2
			C81.7,16.4,82.2,15.7,82.8,15z"/>
		<path class="st0" d="M88.7,27.6c1.7,0,3.2-0.6,3.5-1.8c0.2-0.8,0.3-1.6,0.5-2.4c0.4-0.4,1-0.8,1.4-1l0.1,0.1
			c-0.2,0.7-0.3,1.3-0.3,1.9c0,1,0.3,1.7,1.1,2.3c1.2-1.8,2.5-3.7,4.4-5.2c1.3-1.1,2.9-2.2,4.7-2.2c3,0,4.7,2.2,4.7,4.6
			c0,1.2-0.4,2.4-1,3.7h2.8v2.6H110c-2.1,0-4.1-0.2-6.3-0.7c-1.3,0.4-2.7,0.7-4.9,0.7c-2.7,0-4.8-0.6-5.9-2.2h-0.1
			c-1.1,1.7-3,2.2-4.4,2.2h-0.3c-1.1,0-1.5-0.9-1.5-1.4c0-0.5,0.3-1.3,1.5-1.3h0.5V27.6z M100.1,27.6c2.1,0,4.4-0.4,5.5-1
			c1-0.4,1.7-1,1.7-1.6c-0.3-1.7-2.1-3.1-3.9-3.1c-2.4,0-4.8,2-7.1,5.2C97,27.5,98.2,27.6,100.1,27.6z"/>
		<path class="st0" d="M111.1,27.6c0.7,0,1.5-0.1,2.4-0.5c0.7-0.4,1.1-1.1,1.1-2.3c0-3.3-0.3-7-0.6-10.8c-0.1-1-0.2-1.8-0.2-2.6
			c0-0.4,0.2-1,0.6-1.4c0.3-0.3,0.7-0.8,1.1-1.1l0.2,0.1c0,1.3,0.6,3,1.7,4.8c-0.3,0.3-0.8,0.7-1.3,1c0.1,2.4,0.3,4.9,0.3,7.3
			c0,2.3-0.3,3.9-0.9,5.2c-0.4,1-1,1.9-1.9,2.4c-0.8,0.4-1.8,0.6-2.6,0.6h-0.3c-1.1,0-1.5-0.9-1.5-1.4c0-0.5,0.3-1.3,1.5-1.3
			C110.6,27.6,111.1,27.6,111.1,27.6z"/>
		<path class="st0" d="M121,30.6c0.2-1.3,0.3-2.8,0.3-4.2v-2c0-3.8-0.4-9.4-0.8-12.9c0.6-0.8,1.4-1.7,2.1-2.2l0.2,0.1
			c0.4,4.5,0.5,9.8,0.5,14.7c0,1.3,0,2.5-0.2,3.4c-0.1,1.1-0.6,2-1.8,3.3L121,30.6z"/>
		<path class="st0" d="M147,31.1c-5.9,0-10.3-2.1-10.3-7.3c0-1.7,0.3-3.3,1.2-5.1l0.9,0.3c-0.4,1.2-0.6,2.3-0.6,3.1
			c0,4.2,4.2,5.9,9.4,5.9c2.4,0,4.9-0.3,7.2-0.9c1-0.3,1.9-0.4,2.8-0.9c0.2-0.1,0.2-0.2,0.2-0.3c0-1-1-3.1-2.1-5.2
			c0.5-0.9,1-1.7,1.6-2.4h0.1c1,1.7,2.1,4.3,2.1,6.4c0,1.6-0.5,2.5-1.1,3.5C156.5,29.7,151.1,31.1,147,31.1z M146.1,17.2
			c-0.9-0.8-1.7-1.5-2.4-2.2c0.5-0.8,1.1-1.4,1.7-2c0.9,0.7,1.6,1.3,2.4,2.2C147.2,16.2,146.7,16.7,146.1,17.2z M150.2,17
			c-0.9-0.8-1.7-1.5-2.4-2.2c0.5-0.8,1.1-1.4,1.7-2c0.9,0.7,1.6,1.3,2.4,2.2C151.2,15.9,150.8,16.4,150.2,17z"/>
		<path class="st0" d="M163.5,30.6c0.2-1.3,0.3-2.8,0.3-4.2v-2c0-3.8-0.4-9.4-0.8-12.9c0.6-0.8,1.4-1.7,2.1-2.2l0.2,0.1
			c0.4,4.5,0.5,9.8,0.5,14.7c0,1.3,0,2.5-0.2,3.4c-0.1,1.1-0.6,2-1.8,3.3L163.5,30.6z"/>
		<path class="st0" d="M174.4,19.5l1.5,2.8c0.5,1,1,2.2,1,3.9v2.3c0,1.8-1,3.8-2.6,5.8c-1.3,1.3-2.4,1.9-3.5,1.9
			c-1.6,0-3.3-0.5-5.4-1.6l0.3-0.7c0.6,0.2,1.4,0.3,2.4,0.3c3,0,6-2.5,7.4-5.6c0.2-0.3,0.3-0.7,0.3-0.9c0-0.3-0.2-0.8-0.3-1.1
			c-0.8-1.7-1.6-3.1-2.5-4.5C173.4,21.2,173.9,20.4,174.4,19.5L174.4,19.5z M172.5,12.3c0.9,0.6,1.7,1.4,2.5,2.2
			c-0.4,0.8-1,1.4-1.7,2c-0.8-0.8-1.7-1.4-2.4-2.2C171.3,13.7,171.9,12.9,172.5,12.3z"/>
		<path class="st0" d="M186.3,30.3H186c-1.7,0-2.7-0.3-3.6-1.2c-1.3-1.3-1.3-2.8-1.3-5.9c0-3.9-0.3-8.1-0.5-12.5
			c0.7-0.8,1.4-1.5,2-1.9l0.2,0.1c0.3,4.5,0.3,10,0.3,15v1.2c0,1.3,0.8,1.9,1.6,2.2c0.5,0.2,1,0.3,1.3,0.3h0.3L186.3,30.3
			L186.3,30.3z"/>
		<path class="st0" d="M187.1,27.6c1.8,0,3.3-0.1,5.5-1v-0.1c-1-0.6-1.9-1.7-3-2.7c-0.5-0.4-1.1-0.9-1.5-0.9h-0.6h-0.1l0.8-2.4
			l0.6-0.1c1.7-0.3,3.6-0.7,5.7-0.7c2.4,0,4.5,0.4,6.1,1l-0.7,2.3l-3.7,3.3v0.1c1.4,0.8,3,1.1,4.8,1.1h0.9v2.6h-0.6
			c-2.4,0-5-0.9-7-2.4h-0.1c-2.6,1.8-4.8,2.4-7.3,2.4h-0.6c-1.1,0-1.5-0.9-1.5-1.4c0-0.5,0.3-1.3,1.5-1.3L187.1,27.6L187.1,27.6z
			 M194.7,25.5c1.2-0.9,2.5-1.8,3.8-3.1v-0.1c-1.1-0.3-2.4-0.5-3.9-0.5c-1.4,0-2.6,0.2-3.9,0.3v0.1c0.3,0.3,0.8,0.8,1.2,1.2
			C192.7,24.1,193.7,24.9,194.7,25.5L194.7,25.5z M193.5,12c0.9,0.6,1.7,1.4,2.5,2.2c-0.4,0.8-1,1.4-1.7,2c-0.8-0.8-1.7-1.4-2.4-2.2
			C192.4,13.3,193,12.6,193.5,12z"/>
		<path class="st0" d="M202.4,27.6c0.7,0,1.5-0.1,2.4-0.5c0.7-0.4,1.1-1.1,1.1-2.3c0-3.3-0.3-7-0.6-10.8c-0.1-1-0.2-1.8-0.2-2.6
			c0-0.4,0.2-1,0.6-1.4c0.3-0.3,0.7-0.8,1.1-1.1l0.2,0.1c0,1.3,0.6,3,1.7,4.8c-0.3,0.3-0.8,0.7-1.3,1c0.1,2.4,0.3,4.9,0.3,7.3
			c0,2.3-0.3,3.9-0.9,5.2c-0.4,1-1,1.9-1.9,2.4c-0.8,0.4-1.8,0.6-2.6,0.6H202c-1.1,0-1.5-0.9-1.5-1.4c0-0.5,0.3-1.3,1.5-1.3
			C202,27.6,202.4,27.6,202.4,27.6z"/>
		<path class="st0" d="M212.4,30.6c0.2-1.3,0.3-2.8,0.3-4.2v-2c0-3.8-0.4-9.4-0.8-12.9c0.6-0.8,1.4-1.7,2.1-2.2l0.2,0.1
			c0.4,4.5,0.5,9.8,0.5,14.7c0,1.3,0,2.5-0.2,3.4c-0.1,1.1-0.6,2-1.8,3.3L212.4,30.6z"/>
		<path class="st0" d="M231.6,16.5l0.3-0.1c1.3,1.2,5.4,3.7,5.9,5.9c0.3,0.8,0.3,1.6,0.3,2.4c0,1.3-0.4,3.1-1.1,3.8
			c-1.3,1.4-2.8,1.9-4.4,1.9c-1,0-1.9-0.2-2.5-0.6c-1.5-1-2.2-2.6-2.2-4.6c0-1.4,0.6-2.7,1.3-4c0.5-0.8,1.1-1.7,2.1-2.6
			C231.5,17.9,231.6,17.2,231.6,16.5z M230.7,13.9c-0.9-0.8-1.7-1.5-2.4-2.2c0.5-0.8,1.1-1.4,1.7-2c0.9,0.7,1.6,1.3,2.4,2.2
			C231.6,12.9,231.3,13.4,230.7,13.9z M229.4,24.9c0,1.6,1.7,2.8,3.5,2.8c1.2,0,2.3-0.4,3.3-1.1c0.7-0.4,1-1,1-1.4
			c0-0.7-0.5-1.5-1.1-2.3c-1-1.1-2.2-2-3.4-2.7C230.6,21.9,229.4,23.4,229.4,24.9z M234.7,13.6c-0.9-0.8-1.7-1.5-2.4-2.2
			c0.5-0.8,1.1-1.4,1.7-2c0.9,0.7,1.6,1.3,2.4,2.2C235.8,12.5,235.3,13.1,234.7,13.6z"/>
		<path class="st0" d="M245.4,19.5l1.5,2.8c0.5,1,1,2.2,1,3.9v2.3c0,1.8-1,3.8-2.6,5.8c-1.3,1.3-2.4,1.9-3.5,1.9
			c-1.6,0-3.3-0.5-5.4-1.6l0.3-0.7c0.6,0.2,1.4,0.3,2.4,0.3c3,0,6-2.5,7.4-5.6c0.2-0.3,0.3-0.7,0.3-0.9c0-0.3-0.2-0.8-0.3-1.1
			c-0.8-1.7-1.6-3.1-2.5-4.5C244.4,21.2,244.9,20.4,245.4,19.5L245.4,19.5z"/>
		<path class="st0" d="M257.2,30.3h-0.3c-1.7,0-2.7-0.3-3.6-1.2c-1.3-1.3-1.3-2.8-1.3-5.9c0-3.9-0.3-8.1-0.5-12.5
			c0.7-0.8,1.4-1.5,2-1.9l0.2,0.1c0.3,4.5,0.3,10,0.3,15v1.2c0,1.3,0.8,1.9,1.6,2.2c0.5,0.2,1,0.3,1.3,0.3h0.3L257.2,30.3
			L257.2,30.3z"/>
		<path class="st0" d="M269.8,23.8c-2.4-0.9-4.7-1.5-6.6-1.5c-1.2,0-2.1,0.3-2.7,1l0.3,1l-0.6,1.8h-0.2l-1-2.7
			c0.2-2.3,2-3.8,4.5-3.8c1.4,0,3.6,0.4,6.9,1.7c1,0.4,2.3,0.7,3.6,0.7h1.8l0,0l-1.3,2.2c-1.7,0-2.9,0.3-3.6,0.8l-3.5,2.3
			c-3,1.8-5.9,2.8-9.3,2.8h-1c-1.1,0-1.5-0.9-1.5-1.4c0-0.5,0.3-1.3,1.5-1.3h1.3C261.9,27.6,265.4,26.4,269.8,23.8L269.8,23.8z
			 M265,33.4c0.9,0.6,1.7,1.4,2.5,2.2c-0.4,0.8-1,1.4-1.7,2c-0.8-0.8-1.7-1.4-2.4-2.2C263.8,34.7,264.4,34,265,33.4z M272.1,25.2
			L272.1,25.2c0.2,1.7,1.7,2.4,3.8,2.4h0.6v2.6h-0.6c-2.7,0-4.5-1-4.5-3.4c0-0.4,0-0.8,0.1-1.1L272.1,25.2z"/>
		<path class="st0" d="M276.9,27.6c1.7,0,3.3-0.6,3.6-1.8l0.6-2.3l1.5-1l0.1,0.2c-0.3,1-0.4,1.9-0.4,2.4c0,0.7,0.2,1.3,0.7,1.7
			c0.7,0.5,1.5,0.9,2.6,0.9h0.3v2.6h-0.5c-2.1,0-3.6-0.5-4.4-2.1H281c-0.7,1.4-2.4,2.1-4.2,2.1h-0.4c-1.1,0-1.5-0.9-1.5-1.4
			c0-0.5,0.3-1.3,1.5-1.3H276.9z M279.3,19.8c-0.9-0.8-1.7-1.5-2.4-2.2c0.5-0.8,1.1-1.4,1.7-2c0.9,0.7,1.6,1.3,2.4,2.2
			C280.3,18.6,279.9,19.1,279.3,19.8z M283.3,19.5c-0.9-0.8-1.7-1.5-2.4-2.2c0.5-0.8,1.1-1.4,1.7-2c0.9,0.7,1.6,1.3,2.4,2.2
			C284.4,18.4,283.9,18.9,283.3,19.5z"/>
		<path class="st0" d="M286.5,27.6c0.7,0,1.5-0.1,2.4-0.5c0.7-0.4,1.1-1.1,1.1-2.3c0-3.3-0.3-7-0.6-10.8c-0.1-1-0.2-1.8-0.2-2.6
			c0-0.4,0.2-1,0.6-1.4c0.3-0.3,0.7-0.8,1.1-1.1l0.2,0.1c0,1.3,0.6,3,1.7,4.8c-0.3,0.3-0.8,0.7-1.3,1c0.1,2.4,0.3,4.9,0.3,7.3
			c0,2.3-0.3,3.9-0.9,5.2c-0.4,1-1,1.9-1.9,2.4c-0.8,0.4-1.8,0.6-2.6,0.6H286c-1.1,0-1.5-0.9-1.5-1.4c0-0.5,0.3-1.3,1.5-1.3
			C286,27.6,286.5,27.6,286.5,27.6z"/>
		<path class="st0" d="M319.1,30.3c-0.2,1.3-0.4,2.4-0.8,3.3c-1,2.4-4.2,4-7.1,4c-4.1,0-6.1-2.7-6.1-6.4c0-2.3,0.7-4.4,1.7-5.9
			l0.7,0.3c-0.6,1.3-1,2.6-1,3.9c0,3.4,2.4,5.1,5.2,5.1c3.2,0,6.3-2.4,6.3-4.4c0-1.3-0.9-3.5-2.2-5.5c0.4-0.7,0.8-1.3,1.4-2.2h0.1
			c0.8,1.5,1.3,2.8,1.7,3.9c0.3,0.7,0.6,1,1.3,1c0.6,0,1.2-0.3,1.6-0.6c0.4-0.3,1-0.8,1.2-1.7l0.5-1.6l1.4-0.6l0.1,0.1
			c-0.4,1.4-0.6,2.4-0.6,3.1c0,0.9,0.6,1.3,1.5,1.3c1.7,0,2.3-1.5,2.6-2.8l0.3-1.5l1.6-0.9l0.1,0.1c-0.3,1-0.5,2.1-0.5,2.9
			c0,1.7,1.7,2.2,3.7,2.2h0.4v2.6h-0.4c-2.6,0-4-0.8-4.5-1.9h-0.1c-1.2,1.4-2.4,1.9-3.7,1.9c-0.9,0-1.9-0.3-2.3-1.7H323
			c-0.7,1-1.7,1.7-3.3,1.7C319.7,30.3,319.1,30.3,319.1,30.3z"/>
		<path class="st0" d="M334.6,27.6c0.9,0,1.7-0.3,2.4-0.6c0.6-0.3,1-1,1-2.5c0-4.2-0.3-8-0.5-12.7l-0.1-1l1.8-1.8h0.1
			c0.4,4.9,0.4,10,0.4,16.4c0,1,0.7,2.4,3.1,2.4h0.3v2.6h-0.4c-1.9,0-3.4-0.7-4.1-2.2h-0.1c-0.6,1.2-2,2.2-4.1,2.2h-0.3
			c-1.1,0-1.5-0.9-1.5-1.4c0-0.5,0.3-1.3,1.5-1.3L334.6,27.6L334.6,27.6z"/>
		<path class="st0" d="M343.6,27.6c1.7,0,3.2-0.1,4.1-0.4c0.7-0.3,1.2-0.5,1.2-0.9c0-1-1-3.1-2.1-5.2c0.5-0.9,1-1.7,1.6-2.4h0.1
			c1,1.7,2.1,4.3,2.1,6.4c0,1.6-0.6,2.8-1.5,3.8c-1,1-2.4,1.2-5.7,1.2h-0.3c-1.1,0-1.5-0.9-1.5-1.4c0-0.5,0.3-1.3,1.5-1.3
			L343.6,27.6L343.6,27.6z M347.6,34.2c0.9,0.6,1.7,1.4,2.5,2.2c-0.4,0.8-1,1.4-1.7,2c-0.8-0.8-1.7-1.4-2.4-2.2
			C346.5,35.6,347,34.9,347.6,34.2z"/>
		<path class="st0" d="M376.1,21.5c0.8,1.5,1.2,2.6,1.7,4c0.6,1.8,1.7,2.1,3.8,2.1h0.3v2.6h-0.4c-1.2,0-2.2-0.3-3-1h-0.1
			c-0.1,2.1-0.7,4-1.3,4.8c-1.5,1.8-4.6,3.4-7.2,3.4c-3.9,0-6.5-2.6-6.5-6.3c0-2.6,0.9-4.5,1.8-6l0.8,0.4c-0.7,1.3-1.1,3-1.1,3.9
			c0,1.7,0.6,2.9,1.4,3.6c0.8,0.8,2.4,1.4,4,1.4s3.8-0.8,5.1-1.8c1-0.7,1.6-1.3,1.6-2.2c0-0.9-0.1-1.7-0.8-3.5
			c-0.7-1.6-1.2-2.6-1.7-3.4c0.4-0.8,0.9-1.5,1.4-2.2L376.1,21.5L376.1,21.5z M371,15.1c0.9,0.6,1.7,1.4,2.5,2.2
			c-0.4,0.8-1,1.4-1.7,2c-0.8-0.8-1.7-1.4-2.4-2.2C369.9,16.5,370.5,15.8,371,15.1z"/>
		<path class="st0" d="M398.8,21.3c0.3,1.6,0.3,2.8,0.3,3.7c0,1-0.3,2.1-0.8,2.9c-0.8,1.3-1.9,2.3-3.1,2.3c-0.9,0-1.8-0.7-2.6-1.7
			h-0.2c-1,1-2.1,1.7-3.7,1.7c-1.1,0-1.9-0.5-2-1.7h-0.1c-1.3,1.5-3.1,1.7-4.5,1.7h-0.3c-1.1,0-1.5-0.9-1.5-1.4
			c0-0.5,0.3-1.3,1.5-1.3h0.7c1.9,0,3.4-0.5,4.5-1.9l1.1-1.7l1.7-0.5l0.1,0.1c-0.9,1.3-1.4,2.4-1.4,3c0,0.6,0.4,1,1.1,1
			c0.6,0,1.3-0.2,1.8-0.6c0.7-0.5,0.9-1.1,1.5-3.3l1.2-0.7l0.1,0.1c-0.2,0.7-0.3,1.5-0.3,2c0,1.6,1.2,2.4,2.2,2.4
			c0.6,0,1.1-0.3,1.1-1c0-0.8-0.3-2.2-0.5-3.4c0.6-0.7,1.2-1.3,1.9-1.8L398.8,21.3z M391.6,19.9c-0.9-0.8-1.7-1.5-2.4-2.2
			c0.5-0.8,1.1-1.4,1.7-2c0.9,0.7,1.6,1.3,2.4,2.2C392.6,18.9,392.2,19.4,391.6,19.9z M392.7,15.5c-0.9-0.8-1.7-1.5-2.4-2.2
			c0.5-0.8,1.1-1.4,1.7-2c0.9,0.7,1.6,1.3,2.4,2.2C393.8,14.4,393.3,15,392.7,15.5z M395.7,19.7c-0.9-0.8-1.7-1.5-2.4-2.2
			c0.5-0.8,1.1-1.4,1.7-2c0.9,0.7,1.6,1.3,2.4,2.2C396.6,18.6,396.2,19.1,395.7,19.7z"/>
		<path class="st0" d="M408.3,28.1c-2.4,0-4.6-1.1-4.6-3.9c0-1.4,0.5-2.5,1.3-3.6c1-1,2-1.7,3-1.7c1.2,0,2.4,0.9,3.1,2.4
			c0.8,1.4,1.3,3.4,1.3,5.7c0,1.9-0.5,3.8-1.6,5.5c-1.8,2.8-3.7,3.9-5.4,3.9c-1.9,0-3.9-0.6-6-2l0.3-0.7c1,0.5,2,0.7,3.1,0.7
			c2.1,0,4.3-1,6.2-3.1c1-1,1.8-2.3,2-3.5C410.2,28,409.2,28.1,408.3,28.1z M407.4,21.5c-1,0-2.4,1-2.4,1.8c0,1.3,1.8,2.2,3.6,2.2
			c0.8,0,1.7-0.1,2.4-0.3C410.4,23.2,409.2,21.5,407.4,21.5z"/>
		<path class="st0" d="M421,6c-0.3,0.5-0.5,1-0.8,1.4c-2.1,0.3-3.9,0.9-5.5,1.6V8.9l0.5-0.9c0.2-0.3,0.6-0.5,1-0.7V7.3
			c-1-0.3-1.7-0.9-1.7-1.8c0-0.5,0.3-1.2,1-1.8c0.8-0.7,1.7-1.2,2.5-1.2c0.9,0,1.3,0.4,1.3,1c0,0.5-0.3,1-0.7,1.3l0,0
			c-0.3-0.4-0.4-0.8-0.7-0.8c-0.2,0-0.4-0.1-0.6-0.1c-0.7,0-1.5,0.4-1.5,0.7c0,1,1.7,1.3,3,1.3C419.6,6,420.3,6,421,6L421,6z
			 M417.1,30.6c0.2-1.3,0.3-2.8,0.3-4.2v-2c0-3.8-0.4-9.4-0.8-12.9c0.6-0.8,1.4-1.7,2.1-2.2l0.2,0.1c0.4,4.5,0.5,9.8,0.5,14.7
			c0,1.3,0,2.5-0.2,3.4c-0.1,1.1-0.6,2-1.8,3.3L417.1,30.6z"/>
	</g>
</g>
<g>
	<g>
		<path class="st1" d="M114.2,67.4c-0.1-0.9-0.1-2-0.1-2.8l0,0c-0.2,0.7-0.5,1.5-0.8,2.4l-1.2,3.1h-0.7l-1-3.1
			c-0.3-0.9-0.6-1.8-0.7-2.5l0,0c0,0.8-0.1,1.9-0.1,2.9l-0.3,2.7h-0.8l0.4-6.4h1.1l1.1,3.1c0.3,0.8,0.5,1.5,0.7,2.2l0,0
			c0.1-0.7,0.4-1.4,0.7-2.2l1.2-3.1h1.1l0.4,6.4h-0.8L114.2,67.4z"/>
		<path class="st1" d="M120.4,68.9c0,0.5,0,0.9,0.1,1.2h-0.7l-0.1-0.7l0,0c-0.2,0.4-0.7,0.9-1.5,0.9c-0.7,0-1.6-0.4-1.6-2.1v-2.7
			h0.9v2.6c0,0.9,0.3,1.5,1,1.5c0.6,0,1-0.4,1.1-0.7c0.1-0.1,0.1-0.3,0.1-0.4v-2.9h0.9L120.4,68.9L120.4,68.9z"/>
		<path class="st1" d="M121.7,69.4c0.2,0.1,0.7,0.4,1.1,0.4c0.6,0,0.9-0.3,0.9-0.7c0-0.4-0.2-0.7-0.9-0.9c-0.9-0.3-1.2-0.7-1.2-1.3
			c0-0.7,0.6-1.4,1.6-1.4c0.4,0,0.9,0.1,1.2,0.3l-0.2,0.6c-0.2-0.1-0.5-0.3-1-0.3c-0.5,0-0.8,0.3-0.8,0.7c0,0.4,0.3,0.6,0.9,0.8
			c0.8,0.3,1.2,0.7,1.2,1.4c0,0.8-0.7,1.4-1.8,1.4c-0.5,0-1-0.1-1.3-0.3L121.7,69.4z"/>
		<path class="st1" d="M125.6,69.4c0.2,0.1,0.7,0.4,1.1,0.4c0.6,0,0.9-0.3,0.9-0.7c0-0.4-0.2-0.7-0.9-0.9c-0.9-0.3-1.2-0.7-1.2-1.3
			c0-0.7,0.6-1.4,1.6-1.4c0.4,0,0.9,0.1,1.2,0.3l-0.2,0.6c-0.2-0.1-0.5-0.3-1-0.3c-0.5,0-0.8,0.3-0.8,0.7c0,0.4,0.3,0.6,0.9,0.8
			c0.8,0.3,1.2,0.7,1.2,1.4c0,0.8-0.7,1.4-1.8,1.4c-0.5,0-1-0.1-1.3-0.3L125.6,69.4z"/>
		<path class="st1" d="M132.1,70.2l-0.1-0.6l0,0c-0.3,0.4-0.7,0.7-1.5,0.7c-1,0-1.5-0.7-1.5-1.3c0-1.1,1-1.8,2.9-1.8v-0.1
			c0-0.4-0.1-1.1-1.1-1.1c-0.4,0-0.9,0.1-1.2,0.4l-0.2-0.6c0.4-0.2,1-0.4,1.5-0.4c1.5,0,1.8,1,1.8,1.9V69c0,0.4,0,0.8,0.1,1.1
			L132.1,70.2L132.1,70.2z M132,67.8c-1,0-2,0.1-2,1c0,0.5,0.4,0.8,0.8,0.8c0.6,0,1-0.4,1.1-0.8c0-0.1,0.1-0.1,0.1-0.3V67.8z"/>
		<path class="st1" d="M134.3,70.2v-4h-0.7v-0.7h0.7v-0.2c0-0.7,0.1-1.2,0.5-1.6c0.3-0.3,0.7-0.4,1.2-0.4c0.3,0,0.6,0.1,0.7,0.1
			l-0.1,0.7c-0.1-0.1-0.3-0.1-0.5-0.1c-0.7,0-0.9,0.7-0.9,1.3v0.2h1.1v0.7h-1.1v4C135.1,70.2,134.3,70.2,134.3,70.2z"/>
		<path class="st1" d="M139.6,70.2l-0.1-0.6l0,0c-0.3,0.4-0.7,0.7-1.5,0.7c-1,0-1.5-0.7-1.5-1.3c0-1.1,1-1.8,2.9-1.8v-0.1
			c0-0.4-0.1-1.1-1.1-1.1c-0.4,0-0.9,0.1-1.2,0.4l-0.2-0.6c0.4-0.2,1-0.4,1.5-0.4c1.5,0,1.8,1,1.8,1.9V69c0,0.4,0,0.8,0.1,1.1
			L139.6,70.2L139.6,70.2z M139.5,67.8c-1,0-2,0.1-2,1c0,0.5,0.4,0.8,0.8,0.8c0.6,0,1-0.4,1.1-0.8c0-0.1,0.1-0.1,0.1-0.3V67.8z"/>
		<path class="st1" d="M141.7,63.4h0.9v2.9l0,0c0.1-0.2,0.4-0.4,0.6-0.6c0.2-0.1,0.6-0.2,0.9-0.2c0.7,0,1.6,0.4,1.6,2v2.8h-0.9v-2.6
			c0-0.7-0.3-1.4-1.1-1.4c-0.6,0-1,0.4-1.2,0.9c-0.1,0.1-0.1,0.2-0.1,0.4v2.8h-0.9v-6.8H141.7z"/>
		<path class="st1" d="M151.1,67.3V68h-2.4v-0.7H151.1z"/>
		<path class="st1" d="M157.6,67.4c-0.1-0.9-0.1-2-0.1-2.8l0,0c-0.2,0.7-0.5,1.5-0.8,2.4l-1.2,3.1h-0.7l-1-3.1
			c-0.3-0.9-0.6-1.8-0.7-2.5l0,0c0,0.8-0.1,1.9-0.1,2.9l-0.1,2.8h-0.8l0.4-6.4h1.1l1.1,3.1c0.3,0.8,0.5,1.5,0.7,2.2l0,0
			c0.1-0.7,0.4-1.4,0.7-2.2l1.2-3.1h1.1l0.4,6.4h-0.8L157.6,67.4z"/>
		<path class="st1" d="M163.6,64.8L163.6,64.8l-1.1,0.6l-0.1-0.7l1.4-0.7h0.7v6.2h-0.8L163.6,64.8L163.6,64.8z"/>
		<path class="st1" d="M168.5,64.8L168.5,64.8l-1.1,0.6l-0.1-0.7l1.4-0.7h0.7v6.2h-0.8L168.5,64.8L168.5,64.8z"/>
		<path class="st1" d="M171.3,71.4c0.2-0.6,0.4-1.6,0.6-2.3l1-0.1c-0.2,0.8-0.7,1.9-1,2.3H171.3z"/>
		<path class="st1" d="M176,63.8c0.4-0.1,1-0.1,1.6-0.1c0.8,0,1.5,0.2,1.8,0.5c0.4,0.3,0.6,0.8,0.6,1.3c0,0.6-0.1,1-0.5,1.4
			c-0.4,0.4-1.2,0.7-2,0.7c-0.2,0-0.5,0-0.7-0.1v2.6H176L176,63.8L176,63.8z M176.8,67c0.2,0.1,0.4,0.1,0.7,0.1c1,0,1.6-0.5,1.6-1.4
			c0-0.9-0.6-1.2-1.5-1.2c-0.4,0-0.7,0-0.8,0.1L176.8,67L176.8,67z"/>
		<path class="st1" d="M181.1,63.4h0.9v6.8h-0.9V63.4z"/>
		<path class="st1" d="M187.6,67.8c0,1.7-1.2,2.5-2.3,2.5c-1.2,0-2.3-1-2.3-2.4c0-1.5,1-2.5,2.3-2.5
			C186.7,65.5,187.6,66.4,187.6,67.8z M183.9,67.9c0,1,0.6,1.8,1.4,1.8c0.8,0,1.4-0.7,1.4-1.8c0-0.8-0.4-1.8-1.4-1.8
			S183.9,67,183.9,67.9z"/>
		<path class="st1" d="M189.7,64.3v1.3h1.2v0.7h-1.2v2.5c0,0.6,0.1,0.9,0.7,0.9c0.2,0,0.4,0,0.5-0.1l0.1,0.7
			c-0.1,0.1-0.4,0.1-0.7,0.1c-0.4,0-0.7-0.1-1-0.4c-0.2-0.2-0.4-0.7-0.4-1.2v-2.6h-0.7v-0.7h0.7v-1.1L189.7,64.3z"/>
		<path class="st1" d="M193.9,66.8c0-0.5,0-0.9-0.1-1.2h0.7l0.1,0.7l0,0c0.2-0.4,0.8-0.9,1.5-0.9c0.7,0,1.7,0.4,1.7,2v2.8H197v-2.6
			c0-0.7-0.3-1.4-1.1-1.4c-0.6,0-1,0.4-1.2,0.9c-0.1,0.1-0.1,0.2-0.1,0.4v2.8h-0.9v-3.4H193.9z"/>
		<path class="st1" d="M203.5,67.8c0,1.7-1.2,2.5-2.3,2.5c-1.2,0-2.3-1-2.3-2.4c0-1.5,1-2.5,2.3-2.5
			C202.7,65.5,203.5,66.4,203.5,67.8z M199.9,67.9c0,1,0.6,1.8,1.4,1.8s1.4-0.7,1.4-1.8c0-0.8-0.4-1.8-1.4-1.8
			C200.3,66.1,199.9,67,199.9,67.9z"/>
		<path class="st1" d="M206.9,70.2l0.2-1.9h-0.8v-0.6h0.9l0.2-1.4h-0.8v-0.6h1l0.2-1.8h0.6l-0.2,1.8h1l0.2-1.8h0.6l-0.2,1.8h0.8v0.6
			h-1l-0.1,1.4h0.8v0.6h-1l-0.2,1.9h-0.6l0.2-1.9h-1l-0.2,1.9H206.9z M208.8,67.8l0.2-1.4h-1l-0.2,1.4H208.8z"/>
		<path class="st1" d="M215.2,64.8L215.2,64.8l-1.1,0.6l-0.1-0.7l1.4-0.7h0.7v6.2h-0.8L215.2,64.8L215.2,64.8z"/>
		<path class="st1" d="M218.5,69.2c0.2,0.1,0.8,0.4,1.4,0.4c1.1,0,1.5-0.7,1.4-1.2c0-0.9-0.8-1.2-1.6-1.2h-0.4v-0.7h0.4
			c0.6,0,1.4-0.3,1.4-1c0-0.5-0.3-1-1.1-1c-0.5,0-1,0.2-1.2,0.4l-0.2-0.6c0.4-0.2,1-0.5,1.7-0.5c1.2,0,1.8,0.7,1.8,1.5
			c0,0.7-0.4,1.2-1.2,1.5l0,0c0.8,0.1,1.4,0.7,1.4,1.6c0,1-0.8,1.9-2.3,1.9c-0.7,0-1.3-0.2-1.6-0.4L218.5,69.2z"/>
		<path class="st1" d="M222.9,71.4c0.2-0.6,0.4-1.6,0.6-2.3l1-0.1c-0.2,0.8-0.7,1.9-1,2.3H222.9z"/>
		<path class="st1" d="M227.5,69.2c0.4,0.2,1,0.4,1.5,0.4c0.9,0,1.4-0.4,1.4-1.1c0-0.6-0.4-1-1.2-1.3c-1.1-0.4-1.8-1-1.8-1.8
			c0-1,0.9-1.8,2.1-1.8c0.7,0,1.2,0.1,1.5,0.3l-0.2,0.7c-0.2-0.1-0.7-0.3-1.2-0.3c-0.9,0-1.2,0.5-1.2,1c0,0.6,0.4,0.9,1.3,1.2
			c1.1,0.4,1.7,1,1.7,1.9c0,1-0.7,1.8-2.3,1.8c-0.7,0-1.3-0.1-1.7-0.4L227.5,69.2z"/>
		<path class="st1" d="M232.4,63.4h0.9v2.9l0,0c0.1-0.2,0.4-0.4,0.6-0.6c0.2-0.1,0.6-0.2,0.9-0.2c0.7,0,1.6,0.4,1.6,2v2.8h-0.9v-2.6
			c0-0.7-0.3-1.4-1.1-1.4c-0.6,0-1,0.4-1.2,0.9c-0.1,0.1-0.1,0.2-0.1,0.4v2.8h-0.9v-6.8H232.4z"/>
		<path class="st1" d="M242,67.8c0,1.7-1.2,2.5-2.3,2.5c-1.2,0-2.3-1-2.3-2.4c0-1.5,1-2.5,2.3-2.5C241.1,65.5,242,66.4,242,67.8z
			 M238.2,67.9c0,1,0.6,1.8,1.4,1.8s1.4-0.7,1.4-1.8c0-0.8-0.4-1.8-1.4-1.8C238.7,66.1,238.2,67,238.2,67.9z"/>
		<path class="st1" d="M243.1,67.1c0-0.6,0-1.1-0.1-1.5h0.7l0.1,0.8l0,0c0.4-0.6,0.9-0.9,1.7-0.9c1.1,0,2,1,2,2.3
			c0,1.7-1,2.5-2.1,2.5c-0.6,0-1.2-0.3-1.5-0.7l0,0v2.5H243L243.1,67.1L243.1,67.1z M243.9,68.4c0,0.1,0,0.2,0.1,0.4
			c0.1,0.6,0.7,1,1.2,1c0.9,0,1.4-0.7,1.4-1.8c0-1-0.5-1.8-1.4-1.8c-0.6,0-1.1,0.4-1.3,1c0,0.1-0.1,0.2-0.1,0.4L243.9,68.4
			L243.9,68.4z"/>
		<path class="st1" d="M250.6,66.8c0-0.5,0-0.9-0.1-1.2h0.7l0.1,0.7l0,0c0.2-0.4,0.8-0.9,1.5-0.9c0.7,0,1.7,0.4,1.7,2v2.8h-0.9v-2.6
			c0-0.7-0.3-1.4-1.1-1.4c-0.6,0-1,0.4-1.2,0.9c-0.1,0.1-0.1,0.2-0.1,0.4v2.8h-0.7V66.8z"/>
		<path class="st1" d="M260.3,67.8c0,1.7-1.2,2.5-2.3,2.5c-1.2,0-2.3-1-2.3-2.4c0-1.5,1-2.5,2.3-2.5
			C259.3,65.5,260.3,66.4,260.3,67.8z M256.5,67.9c0,1,0.6,1.8,1.4,1.8s1.4-0.7,1.4-1.8c0-0.8-0.4-1.8-1.4-1.8
			C257,66.1,256.5,67,256.5,67.9z"/>
		<path class="st1" d="M265.4,67.3V68H263v-0.7H265.4z"/>
		<path class="st1" d="M268,64.8L268,64.8l-1.1,0.6l-0.1-0.7l1.4-0.7h0.7v6.2H268L268,64.8L268,64.8z"/>
		<path class="st1" d="M275.1,64v0.6l-2.7,5.6h-0.9l2.7-5.5l0,0h-3.1V64H275.1z"/>
		<path class="st1" d="M275.7,71.4c0.2-0.6,0.4-1.6,0.6-2.3l1-0.1c-0.2,0.8-0.7,1.9-1,2.3H275.7z"/>
		<path class="st1" d="M281.4,68.2l-0.7,2.1h-0.9l2.2-6.4h1l2.2,6.4h-0.9l-0.7-2.1H281.4z M283.6,67.5l-0.7-1.8
			c-0.1-0.4-0.2-0.8-0.4-1.2l0,0c-0.1,0.4-0.2,0.8-0.4,1.2l-0.7,1.8H283.6z"/>
		<path class="st1" d="M286.3,70.2c0-0.3,0.1-0.8,0.1-1.2v-5.6h0.9v2.9l0,0c0.3-0.5,0.9-0.9,1.6-0.9c1.2,0,2,1,2,2.3
			c0,1.7-1,2.5-2.1,2.5c-0.7,0-1.2-0.3-1.5-0.9l0,0l-0.1,0.7C287.1,70.2,286.3,70.2,286.3,70.2z M287.2,68.4c0,0.1,0,0.2,0.1,0.3
			c0.1,0.6,0.7,1,1.2,1c0.9,0,1.4-0.7,1.4-1.8c0-1-0.5-1.8-1.4-1.8c-0.6,0-1.1,0.4-1.3,1c0,0.1-0.1,0.2-0.1,0.4L287.2,68.4
			L287.2,68.4z"/>
		<path class="st1" d="M295.7,68.9c0,0.5,0,0.9,0.1,1.2h-0.7l-0.1-0.7l0,0c-0.2,0.4-0.7,0.9-1.5,0.9c-0.7,0-1.6-0.4-1.6-2.1v-2.7
			h0.9v2.6c0,0.9,0.3,1.5,1,1.5c0.6,0,1-0.4,1.1-0.7c0.1-0.1,0.1-0.3,0.1-0.4v-2.9h0.9L295.7,68.9L295.7,68.9z"/>
		<path class="st1" d="M299.2,63.9c0.5-0.1,1.1-0.1,1.8-0.1c1.2,0,2.1,0.3,2.6,0.8c0.6,0.5,1,1.2,1,2.3c0,1-0.4,1.9-1,2.5
			s-1.6,1-2.9,1c-0.6,0-1.1,0-1.5-0.1L299.2,63.9L299.2,63.9z M300,69.5c0.2,0.1,0.5,0.1,0.9,0.1c1.8,0,2.8-1,2.8-2.7
			c0-1.5-0.9-2.5-2.6-2.5c-0.4,0-0.7,0.1-1,0.1V69.5z"/>
		<path class="st1" d="M305.7,63.4h0.9v2.9l0,0c0.1-0.2,0.4-0.4,0.6-0.6c0.2-0.1,0.6-0.2,0.9-0.2c0.7,0,1.6,0.4,1.6,2v2.8h-0.9v-2.6
			c0-0.7-0.3-1.4-1.1-1.4c-0.6,0-1,0.4-1.2,0.9c-0.1,0.1-0.1,0.2-0.1,0.4v2.8h-0.9v-6.8H305.7z"/>
		<path class="st1" d="M313.7,70.2l-0.1-0.6l0,0c-0.3,0.4-0.7,0.7-1.5,0.7c-1,0-1.5-0.7-1.5-1.3c0-1.1,1-1.8,2.9-1.8v-0.1
			c0-0.4-0.1-1.1-1.1-1.1c-0.4,0-0.9,0.1-1.2,0.4l-0.2-0.6c0.4-0.2,1-0.4,1.5-0.4c1.5,0,1.8,1,1.8,1.9V69c0,0.4,0,0.8,0.1,1.1
			L313.7,70.2L313.7,70.2z M313.5,67.8c-1,0-2,0.1-2,1c0,0.5,0.4,0.8,0.8,0.8c0.6,0,1-0.4,1.1-0.8c0-0.1,0.1-0.1,0.1-0.3V67.8z"/>
		<path class="st1" d="M315.6,70.2c0-0.3,0.1-0.8,0.1-1.2v-5.6h0.9v2.9l0,0c0.3-0.5,0.9-0.9,1.6-0.9c1.2,0,2,1,2,2.3
			c0,1.7-1,2.5-2.1,2.5c-0.7,0-1.2-0.3-1.5-0.9l0,0l-0.1,0.7C316.4,70.2,315.6,70.2,315.6,70.2z M316.5,68.4c0,0.1,0,0.2,0.1,0.3
			c0.1,0.6,0.7,1,1.2,1c0.9,0,1.4-0.7,1.4-1.8c0-1-0.5-1.8-1.4-1.8c-0.6,0-1.1,0.4-1.3,1c0,0.1-0.1,0.2-0.1,0.4L316.5,68.4
			L316.5,68.4z"/>
		<path class="st1" d="M322.1,64.3c0,0.3-0.2,0.5-0.5,0.5c-0.3,0-0.5-0.2-0.5-0.5s0.2-0.5,0.5-0.5S322.1,64,322.1,64.3z M321.2,70.2
			v-4.6h0.9v4.6H321.2z"/>
		<path class="st1" d="M323,71.4c0.2-0.6,0.4-1.6,0.6-2.3l1-0.1c-0.2,0.8-0.7,1.9-1,2.3H323z"/>
		<path class="st1" d="M328.4,63.7v3.8c0,1.5,0.7,2.1,1.5,2.1c1,0,1.6-0.7,1.6-2.1v-3.8h0.9v3.7c0,2-1,2.8-2.5,2.8
			c-1.3,0-2.3-0.7-2.3-2.8v-3.7H328.4z"/>
		<path class="st1" d="M334.6,68.2l-0.7,2.1h-0.9l2.2-6.4h1l2.2,6.4h-0.9l-0.7-2.1H334.6z M336.7,67.5l-0.7-1.8
			c-0.1-0.4-0.2-0.8-0.4-1.2l0,0c-0.1,0.4-0.2,0.8-0.4,1.2l-0.7,1.8H336.7z"/>
		<path class="st1" d="M342.9,67.2h-2.6v2.3h2.9v0.7h-3.7v-6.5h3.5v0.7h-2.7v2.1h2.6L342.9,67.2L342.9,67.2z"/>
		<path class="st1" d="M344,69.7c0-0.4,0.2-0.6,0.6-0.6c0.4,0,0.6,0.2,0.6,0.6c0,0.4-0.2,0.6-0.6,0.6C344.2,70.3,344,70,344,69.7z"
			/>
		<path class="st1" d="M162.9,81.5c-0.3,0.1-1,0.3-1.8,0.3c-1.8,0-3.2-1.2-3.2-3.3c0-2.1,1.4-3.4,3.4-3.4c0.8,0,1.3,0.1,1.5,0.3
			l-0.2,0.7c-0.3-0.1-0.8-0.3-1.3-0.3c-1.5,0-2.6,1-2.6,2.6c0,1.6,1,2.6,2.5,2.6c0.5,0,1-0.1,1.4-0.3L162.9,81.5z"/>
		<path class="st1" d="M164.3,79.6c0,1.2,0.7,1.6,1.6,1.6c0.6,0,1-0.1,1.3-0.2l0.1,0.6c-0.3,0.1-0.8,0.3-1.5,0.3
			c-1.5,0-2.3-1-2.3-2.3c0-1.4,0.8-2.5,2.2-2.5c1.5,0,1.9,1.3,1.9,2.2c0,0.1,0,0.3,0,0.4H164.3z M166.8,79c0-0.5-0.2-1.4-1.2-1.4
			c-0.9,0-1.2,0.8-1.3,1.4H166.8z"/>
		<path class="st1" d="M168.7,74.9h0.9v6.8h-0.9V74.9z"/>
		<path class="st1" d="M171,74.9h0.9v6.8H171V74.9z"/>
		<path class="st1" d="M173,77.9c0-0.4,0.2-0.6,0.6-0.6c0.4,0,0.6,0.2,0.6,0.6s-0.2,0.6-0.6,0.6C173.3,78.5,173,78.2,173,77.9z
			 M173,81.2c0-0.4,0.2-0.6,0.6-0.6c0.4,0,0.6,0.2,0.6,0.6c0,0.4-0.2,0.6-0.6,0.6C173.3,81.8,173,81.5,173,81.2z"/>
		<path class="st1" d="M179.8,76.6v2.3h2.2v0.6h-2.2v2.3h-0.6v-2.3H177v-0.6h2.2v-2.3H179.8z"/>
		<path class="st1" d="M183.3,81.1c0.2,0,0.4,0,0.7,0c0.5-0.1,1-0.3,1.3-0.6c0.4-0.4,0.7-1,0.8-1.7l0,0c-0.4,0.4-0.9,0.7-1.5,0.7
			c-1.1,0-1.8-0.9-1.8-1.9c0-1.2,0.9-2.2,2.1-2.2c1.3,0,2.1,1,2.1,2.6c0,1.4-0.4,2.3-1.1,2.9c-0.5,0.4-1.2,0.7-1.8,0.8
			c-0.3,0.1-0.6,0.1-0.8,0.1L183.3,81.1L183.3,81.1z M183.6,77.5c0,0.8,0.4,1.3,1.2,1.3c0.6,0,1-0.3,1.2-0.7
			c0.1-0.1,0.1-0.1,0.1-0.3c0-1.1-0.4-1.9-1.3-1.9C184.1,76,183.6,76.6,183.6,77.5z"/>
		<path class="st1" d="M191.9,75.5V76l-2.7,5.6h-0.9l2.7-5.5l0,0h-3.1v-0.7H191.9z"/>
		<path class="st1" d="M194.6,76.3L194.6,76.3l-1.1,0.6l-0.1-0.7l1.4-0.7h0.7v6.2h-0.8L194.6,76.3L194.6,76.3z"/>
		<path class="st1" d="M201.5,76.2h-2.4l-0.2,1.6c0.1,0,0.3-0.1,0.5-0.1c0.5,0,1,0.1,1.4,0.4c0.5,0.3,0.9,0.8,0.9,1.6
			c0,1.2-1,2.1-2.3,2.1c-0.7,0-1.2-0.2-1.5-0.4l0.2-0.7c0.3,0.1,0.8,0.4,1.3,0.4c0.8,0,1.5-0.5,1.5-1.3s-0.6-1.4-1.8-1.4
			c-0.4,0-0.7,0.1-0.9,0.1l0.4-3h3V76.2z"/>
		<path class="st1" d="M206.5,76.2H204l-0.2,1.6c0.1,0,0.3-0.1,0.5-0.1c0.5,0,1,0.1,1.4,0.4c0.5,0.3,0.9,0.8,0.9,1.6
			c0,1.2-1,2.1-2.3,2.1c-0.7,0-1.2-0.2-1.5-0.4l0.2-0.7c0.3,0.1,0.8,0.4,1.3,0.4c0.8,0,1.5-0.5,1.5-1.3s-0.6-1.4-1.8-1.4
			c-0.4,0-0.7,0.1-0.9,0.1l0.4-3h3V76.2z"/>
		<path class="st1" d="M211.3,76c-0.1,0-0.4,0-0.7,0.1c-1.3,0.2-2.1,1.2-2.2,2.2l0,0c0.3-0.4,0.8-0.7,1.5-0.7c1.1,0,1.9,0.8,1.9,2
			s-0.8,2.2-2.1,2.2c-1.3,0-2.2-1-2.2-2.6c0-1.2,0.4-2.2,1.1-2.8c0.5-0.5,1.2-0.8,2.1-1c0.2-0.1,0.4-0.1,0.6-0.1L211.3,76L211.3,76z
			 M211,79.7c0-0.9-0.5-1.4-1.3-1.4c-0.5,0-1,0.3-1.2,0.7c-0.1,0.1-0.1,0.2-0.1,0.4c0,1,0.5,1.8,1.4,1.8
			C210.6,81.2,211,80.6,211,79.7z"/>
		<path class="st1" d="M215.2,81.7V80h-2.9v-0.6l2.8-4h1v3.9h0.9V80h-0.9v1.7H215.2z M215.2,79.3v-2.1c0-0.3,0-0.7,0-1l0,0
			c-0.2,0.4-0.4,0.7-0.5,1l-1.5,2.1l0,0L215.2,79.3L215.2,79.3z"/>
		<path class="st1" d="M219.5,76.3L219.5,76.3l-1.1,0.6l-0.1-0.7l1.4-0.7h0.7v6.2h-0.8L219.5,76.3L219.5,76.3z"/>
		<path class="st1" d="M225.2,81.7V80h-2.9v-0.6l2.8-4h1v3.9h0.9V80H226v1.7H225.2z M225.2,79.3v-2.1c0-0.3,0-0.7,0-1l0,0
			c-0.2,0.4-0.4,0.7-0.5,1l-1.5,2.1l0,0L225.2,79.3L225.2,79.3z"/>
		<path class="st1" d="M231.1,76c-0.1,0-0.4,0-0.7,0.1c-1.3,0.2-2.1,1.2-2.2,2.2l0,0c0.3-0.4,0.8-0.7,1.5-0.7c1.1,0,1.9,0.8,1.9,2
			s-0.8,2.2-2.1,2.2s-2.2-1-2.2-2.6c0-1.2,0.4-2.2,1.1-2.8c0.5-0.5,1.2-0.8,2.1-1c0.2-0.1,0.4-0.1,0.6-0.1L231.1,76L231.1,76z
			 M230.9,79.7c0-0.9-0.5-1.4-1.3-1.4c-0.5,0-1,0.3-1.2,0.7c-0.1,0.1-0.1,0.2-0.1,0.4c0,1,0.5,1.8,1.4,1.8
			C230.4,81.2,230.9,80.6,230.9,79.7z"/>
		<path class="st1" d="M236.7,78.5c0,2.1-0.8,3.3-2.2,3.3c-1.2,0-2.1-1.2-2.1-3.2c0-2.1,0.9-3.2,2.2-3.2
			C236,75.4,236.7,76.6,236.7,78.5z M233.3,78.6c0,1.6,0.5,2.6,1.2,2.6c0.9,0,1.3-1,1.3-2.6s-0.4-2.6-1.2-2.6
			C233.8,76,233.3,76.9,233.3,78.6z"/>
		<path class="st1" d="M237.5,81.7v-0.5l0.7-0.7c1.6-1.5,2.3-2.3,2.3-3.2c0-0.7-0.3-1.2-1.2-1.2c-0.6,0-1,0.3-1.3,0.5l-0.3-0.6
			c0.4-0.4,1-0.7,1.8-0.7c1.4,0,1.9,1,1.9,1.8c0,1.2-0.9,2.1-2.2,3.4l-0.5,0.4l0,0h2.9v0.7C241.5,81.7,237.5,81.7,237.5,81.7z"/>
		<path class="st1" d="M242.2,82.8c0.2-0.6,0.4-1.6,0.6-2.3l1-0.1c-0.2,0.8-0.7,1.9-1,2.3H242.2z"/>
		<path class="st1" d="M250.8,78.5c0,2.1-0.8,3.3-2.2,3.3c-1.2,0-2.1-1.2-2.1-3.2c0-2.1,0.9-3.2,2.2-3.2
			C250,75.4,250.8,76.6,250.8,78.5z M247.3,78.6c0,1.6,0.5,2.6,1.2,2.6c0.9,0,1.3-1,1.3-2.6s-0.4-2.6-1.2-2.6
			C247.8,76,247.3,76.9,247.3,78.6z"/>
		<path class="st1" d="M255.3,76.2h-2.4l-0.2,1.6c0.1,0,0.3-0.1,0.5-0.1c0.5,0,1,0.1,1.4,0.4c0.5,0.3,0.9,0.8,0.9,1.6
			c0,1.2-1,2.1-2.3,2.1c-0.7,0-1.2-0.2-1.5-0.4l0.2-0.7c0.3,0.1,0.8,0.4,1.3,0.4c0.8,0,1.5-0.5,1.5-1.3s-0.6-1.4-1.8-1.4
			c-0.4,0-0.7,0.1-0.9,0.1l0.4-3h3V76.2z"/>
		<path class="st1" d="M260.1,76c-0.1,0-0.4,0-0.7,0.1c-1.3,0.2-2.1,1.2-2.2,2.2l0,0c0.3-0.4,0.8-0.7,1.5-0.7c1.1,0,1.9,0.8,1.9,2
			s-0.8,2.2-2.1,2.2c-1.3,0-2.2-1-2.2-2.6c0-1.2,0.4-2.2,1.1-2.8c0.5-0.5,1.2-0.8,2.1-1c0.2-0.1,0.4-0.1,0.6-0.1V76z M259.8,79.7
			c0-0.9-0.5-1.4-1.3-1.4c-0.5,0-1,0.3-1.2,0.7c-0.1,0.1-0.1,0.2-0.1,0.4c0,1,0.5,1.8,1.4,1.8C259.3,81.2,259.8,80.6,259.8,79.7z"/>
		<path class="st1" d="M265.6,75.5V76l-2.7,5.6H262l2.7-5.5l0,0h-3.1v-0.7H265.6z"/>
		<path class="st1" d="M270.2,76.2h-2.4l-0.2,1.6c0.1,0,0.3-0.1,0.5-0.1c0.5,0,1,0.1,1.4,0.4c0.5,0.3,0.9,0.8,0.9,1.6
			c0,1.2-1,2.1-2.3,2.1c-0.7,0-1.2-0.2-1.5-0.4l0.2-0.7c0.3,0.1,0.8,0.4,1.3,0.4c0.8,0,1.5-0.5,1.5-1.3s-0.6-1.4-1.8-1.4
			c-0.4,0-0.7,0.1-0.9,0.1l0.4-3h3V76.2z"/>
		<path class="st1" d="M275.5,75.5V76l-2.7,5.6h-1l2.7-5.5l0,0h-3.1v-0.7H275.5z"/>
		<path class="st1" d="M280.6,78.5c0,2.1-0.8,3.3-2.2,3.3c-1.2,0-2.1-1.2-2.1-3.2c0-2.1,0.9-3.2,2.2-3.2
			C279.8,75.4,280.6,76.6,280.6,78.5z M277.1,78.6c0,1.6,0.5,2.6,1.2,2.6c0.9,0,1.3-1,1.3-2.6s-0.4-2.6-1.2-2.6
			C277.7,76,277.1,76.9,277.1,78.6z"/>
		<path class="st1" d="M285.1,76.2h-2.4l-0.2,1.6c0.1,0,0.3-0.1,0.5-0.1c0.5,0,1,0.1,1.4,0.4c0.5,0.3,0.9,0.8,0.9,1.6
			c0,1.2-1,2.1-2.3,2.1c-0.7,0-1.2-0.2-1.5-0.4l0.2-0.7c0.3,0.1,0.8,0.4,1.3,0.4c0.8,0,1.5-0.5,1.5-1.3s-0.6-1.4-1.8-1.4
			c-0.4,0-0.7,0.1-0.9,0.1l0.4-3h3V76.2z"/>
		<path class="st1" d="M290.5,78.5c0,2.1-0.8,3.3-2.2,3.3c-1.2,0-2.1-1.2-2.1-3.2c0-2.1,0.9-3.2,2.2-3.2
			C289.8,75.4,290.5,76.6,290.5,78.5z M287.1,78.6c0,1.6,0.5,2.6,1.2,2.6c0.9,0,1.3-1,1.3-2.6s-0.4-2.6-1.2-2.6
			C287.7,76,287.1,76.9,287.1,78.6z"/>
		<path class="st1" d="M294.9,76c-0.1,0-0.4,0-0.7,0.1c-1.3,0.2-2.1,1.2-2.2,2.2l0,0c0.3-0.4,0.8-0.7,1.5-0.7c1.1,0,1.9,0.8,1.9,2
			s-0.8,2.2-2.1,2.2c-1.3,0-2.2-1-2.2-2.6c0-1.2,0.4-2.2,1.1-2.8c0.5-0.5,1.2-0.8,2.1-1c0.2-0.1,0.4-0.1,0.6-0.1V76z M294.6,79.7
			c0-0.9-0.5-1.4-1.3-1.4c-0.5,0-1,0.3-1.2,0.7c-0.1,0.1-0.1,0.2-0.1,0.4c0,1,0.5,1.8,1.4,1.8C294.2,81.2,294.6,80.6,294.6,79.7z"/>
		<path class="st1" d="M98.7,93.2L97,86.7h0.9l0.8,3.3c0.2,0.8,0.4,1.6,0.5,2.2l0,0c0.1-0.7,0.3-1.4,0.5-2.3l0.9-3.2h0.9l0.8,3.3
			c0.2,0.7,0.4,1.5,0.4,2.2l0,0c0.1-0.7,0.3-1.4,0.5-2.2l0.9-3.2h0.9l-1.8,6.4h-0.9l-0.8-3.4c-0.2-0.8-0.4-1.5-0.4-2.1l0,0
			c-0.1,0.7-0.3,1.2-0.5,2.1l-1,3.4L98.7,93.2L98.7,93.2z"/>
		<path class="st1" d="M105.9,91c0,1.2,0.7,1.6,1.6,1.6c0.6,0,1-0.1,1.3-0.2L109,93c-0.3,0.1-0.8,0.3-1.5,0.3c-1.5,0-2.3-1-2.3-2.3
			c0-1.4,0.8-2.5,2.2-2.5c1.5,0,1.9,1.3,1.9,2.2c0,0.1,0,0.3,0,0.4H105.9z M108.4,90.4c0-0.5-0.2-1.4-1.2-1.4
			c-0.9,0-1.2,0.8-1.3,1.4H108.4z"/>
		<path class="st1" d="M110.3,93.2c0-0.3,0.1-0.8,0.1-1.2v-5.6h0.9v2.9l0,0c0.3-0.5,0.9-0.9,1.6-0.9c1.2,0,2,1,2,2.3
			c0,1.7-1,2.5-2.1,2.5c-0.7,0-1.2-0.3-1.5-0.9l0,0l-0.1,0.7C111.1,93.2,110.3,93.2,110.3,93.2z M111.2,91.3c0,0.1,0,0.2,0.1,0.3
			c0.1,0.6,0.7,1,1.2,1c0.9,0,1.4-0.7,1.4-1.8c0-1-0.5-1.8-1.4-1.8c-0.6,0-1.1,0.4-1.3,1c0,0.1-0.1,0.2-0.1,0.4L111.2,91.3
			L111.2,91.3z"/>
		<path class="st1" d="M115.7,89.3c0-0.4,0.2-0.6,0.6-0.6c0.4,0,0.6,0.2,0.6,0.6c0,0.4-0.2,0.6-0.6,0.6
			C115.9,90,115.7,89.7,115.7,89.3z M115.7,92.7c0-0.4,0.2-0.6,0.6-0.6c0.4,0,0.6,0.2,0.6,0.6s-0.2,0.6-0.6,0.6
			C115.9,93.3,115.7,93,115.7,92.7z"/>
		<path class="st1" d="M120.3,88.6l0.6,2.3c0.1,0.5,0.3,1,0.4,1.5l0,0c0.1-0.4,0.3-1,0.4-1.5l0.7-2.3h0.7l0.7,2.3
			c0.1,0.6,0.3,1,0.4,1.5l0,0c0.1-0.4,0.2-1,0.4-1.5l0.7-2.3h0.9l-1.5,4.6h-0.8l-0.7-2.2c-0.1-0.5-0.3-1-0.4-1.5l0,0
			c-0.1,0.6-0.3,1-0.4,1.5l-0.7,2.2h-0.8l-1.4-4.6H120.3z"/>
		<path class="st1" d="M127.5,88.6l0.6,2.3c0.1,0.5,0.3,1,0.4,1.5l0,0c0.1-0.4,0.3-1,0.4-1.5l0.7-2.3h0.7l0.7,2.3
			c0.1,0.6,0.3,1,0.4,1.5l0,0c0.1-0.4,0.2-1,0.4-1.5l0.7-2.3h0.9l-1.5,4.6h-0.8l-0.7-2.2c-0.1-0.5-0.3-1-0.4-1.5l0,0
			c-0.1,0.6-0.3,1-0.4,1.5l-0.7,2.2H128l-1.4-4.6H127.5z"/>
		<path class="st1" d="M134.8,88.6l0.6,2.3c0.1,0.5,0.3,1,0.4,1.5l0,0c0.1-0.4,0.3-1,0.4-1.5l0.7-2.3h0.7l0.7,2.3
			c0.1,0.6,0.3,1,0.4,1.5l0,0c0.1-0.4,0.2-1,0.4-1.5l0.7-2.3h0.9l-1.5,4.6h-0.8l-0.7-2.2c-0.1-0.5-0.3-1-0.4-1.5l0,0
			c-0.1,0.6-0.3,1-0.4,1.5l-0.7,2.2h-0.8l-1.4-4.6H134.8z"/>
		<path class="st1" d="M140.9,92.7c0-0.4,0.2-0.6,0.6-0.6c0.4,0,0.6,0.2,0.6,0.6s-0.2,0.6-0.6,0.6C141.2,93.3,140.9,93,140.9,92.7z"
			/>
		<path class="st1" d="M147.4,90.8c0,1.7-1.2,2.5-2.3,2.5c-1.2,0-2.3-1-2.3-2.4c0-1.5,1-2.5,2.3-2.5
			C146.5,88.5,147.4,89.4,147.4,90.8z M143.7,90.9c0,1,0.6,1.8,1.4,1.8c0.8,0,1.4-0.7,1.4-1.8c0-0.8-0.4-1.8-1.4-1.8
			C144.2,89.1,143.7,90,143.7,90.9z"/>
		<path class="st1" d="M151.8,93c-0.2,0.1-0.7,0.3-1.3,0.3c-1.4,0-2.3-1-2.3-2.3s1-2.5,2.5-2.5c0.5,0,1,0.1,1.2,0.2l-0.2,0.7
			c-0.2-0.1-0.5-0.2-1-0.2c-1.1,0-1.7,0.8-1.7,1.8c0,1.1,0.7,1.8,1.6,1.8c0.5,0,0.8-0.1,1-0.2L151.8,93z"/>
		<path class="st1" d="M153.2,91c0,1.2,0.7,1.6,1.6,1.6c0.6,0,1-0.1,1.3-0.2l0.1,0.6c-0.3,0.1-0.8,0.3-1.5,0.3c-1.5,0-2.3-1-2.3-2.3
			c0-1.4,0.8-2.5,2.2-2.5c1.5,0,1.9,1.3,1.9,2.2c0,0.1,0,0.3,0,0.4H153.2z M155.8,90.4c0-0.5-0.2-1.4-1.2-1.4
			c-0.9,0-1.2,0.8-1.3,1.4H155.8z"/>
		<path class="st1" d="M160.3,93.2l-0.1-0.6l0,0c-0.3,0.4-0.7,0.7-1.5,0.7c-1,0-1.5-0.7-1.5-1.3c0-1.1,1-1.8,2.9-1.8v-0.1
			c0-0.4-0.1-1.1-1.1-1.1c-0.4,0-0.9,0.1-1.2,0.4l-0.2-0.6c0.4-0.2,1-0.4,1.5-0.4c1.5,0,1.8,1,1.8,1.9V92c0,0.4,0,0.8,0.1,1.1
			L160.3,93.2L160.3,93.2z M160.1,90.8c-1,0-2,0.1-2,1c0,0.5,0.4,0.8,0.8,0.8c0.6,0,1-0.4,1.1-0.8c0-0.1,0.1-0.1,0.1-0.3L160.1,90.8
			L160.1,90.8z"/>
		<path class="st1" d="M162.3,89.8c0-0.5,0-0.9-0.1-1.2h0.7l0.1,0.7l0,0c0.2-0.4,0.8-0.9,1.5-0.9c0.7,0,1.7,0.4,1.7,2v2.8h-0.9v-2.6
			c0-0.7-0.3-1.4-1.1-1.4c-0.6,0-1,0.4-1.2,0.9c-0.1,0.1-0.1,0.2-0.1,0.4v2.8h-0.9v-3.4H162.3z"/>
		<path class="st1" d="M167.7,90.1c0-0.6,0-1.1-0.1-1.5h0.7l0.1,0.8l0,0c0.4-0.6,0.9-0.9,1.7-0.9c1.1,0,2,1,2,2.3
			c0,1.7-1,2.5-2.1,2.5c-0.6,0-1.2-0.3-1.5-0.7l0,0v2.5h-0.9L167.7,90.1L167.7,90.1z M168.5,91.3c0,0.1,0,0.2,0.1,0.4
			c0.1,0.6,0.7,1,1.2,1c0.9,0,1.4-0.7,1.4-1.8c0-1-0.5-1.8-1.4-1.8c-0.6,0-1.1,0.4-1.3,1c0,0.1-0.1,0.2-0.1,0.4L168.5,91.3
			L168.5,91.3z"/>
		<path class="st1" d="M173.2,86.4h0.9v6.8h-0.9V86.4z"/>
		<path class="st1" d="M179.4,91.9c0,0.5,0,0.9,0.1,1.2h-0.7l-0.1-0.7l0,0c-0.2,0.4-0.7,0.9-1.5,0.9c-0.7,0-1.6-0.4-1.6-2.1v-2.7
			h0.9v2.6c0,0.9,0.3,1.5,1,1.5c0.6,0,1-0.4,1.1-0.7c0.1-0.1,0.1-0.3,0.1-0.4v-2.9h0.9L179.4,91.9L179.4,91.9z"/>
		<path class="st1" d="M180.7,92.4c0.2,0.1,0.7,0.4,1.1,0.4c0.6,0,0.9-0.3,0.9-0.7c0-0.4-0.2-0.7-0.9-0.9c-0.9-0.3-1.2-0.7-1.2-1.3
			c0-0.7,0.6-1.4,1.6-1.4c0.4,0,0.9,0.1,1.2,0.3l-0.2,0.6c-0.2-0.1-0.5-0.3-1-0.3c-0.5,0-0.8,0.3-0.8,0.7s0.3,0.6,0.9,0.8
			c0.8,0.3,1.2,0.7,1.2,1.4c0,0.8-0.7,1.4-1.8,1.4c-0.5,0-1-0.1-1.3-0.3L180.7,92.4z"/>
		<path class="st1" d="M188.7,88.6c0,0.4-0.1,0.7-0.1,1.2v2.7c0,1.1-0.2,1.7-0.7,2.1c-0.4,0.4-1.1,0.6-1.7,0.6
			c-0.6,0-1.2-0.1-1.5-0.4l0.2-0.7c0.3,0.2,0.8,0.4,1.4,0.4c0.9,0,1.5-0.4,1.5-1.6v-0.5l0,0c-0.3,0.4-0.7,0.8-1.5,0.8
			c-1.2,0-2-1-2-2.3c0-1.5,1-2.5,2.1-2.5c0.8,0,1.2,0.4,1.5,0.8l0,0l0.1-0.7C188.2,88.6,188.7,88.6,188.7,88.6z M187.9,90.4
			c0-0.1,0-0.3-0.1-0.4c-0.1-0.5-0.6-0.9-1.2-0.9c-0.8,0-1.4,0.7-1.4,1.8c0,0.9,0.4,1.7,1.4,1.7c0.5,0,1-0.3,1.2-0.9
			c0.1-0.1,0.1-0.3,0.1-0.4V90.4z"/>
		<path class="st1" d="M192.7,93.2l-0.1-0.6l0,0c-0.3,0.4-0.7,0.7-1.5,0.7c-1,0-1.5-0.7-1.5-1.3c0-1.1,1-1.8,2.9-1.8v-0.1
			c0-0.4-0.1-1.1-1.1-1.1c-0.4,0-0.9,0.1-1.2,0.4l-0.2-0.6c0.4-0.2,1-0.4,1.5-0.4c1.5,0,1.8,1,1.8,1.9V92c0,0.4,0,0.8,0.1,1.1
			L192.7,93.2L192.7,93.2z M192.6,90.8c-1,0-2,0.1-2,1c0,0.5,0.4,0.8,0.8,0.8c0.6,0,1-0.4,1.1-0.8c0-0.1,0.1-0.1,0.1-0.3L192.6,90.8
			L192.6,90.8z"/>
		<path class="st1" d="M194.7,92.4c0.2,0.1,0.7,0.4,1.1,0.4c0.6,0,0.9-0.3,0.9-0.7c0-0.4-0.2-0.7-0.9-0.9c-0.9-0.3-1.2-0.7-1.2-1.3
			c0-0.7,0.6-1.4,1.6-1.4c0.4,0,0.9,0.1,1.2,0.3l-0.1,0.6c-0.2-0.1-0.5-0.3-1-0.3c-0.5,0-0.8,0.3-0.8,0.7s0.3,0.6,0.9,0.8
			c0.8,0.3,1.2,0.7,1.2,1.4c0,0.8-0.7,1.4-1.8,1.4c-0.5,0-1-0.1-1.3-0.3L194.7,92.4z"/>
		<path class="st1" d="M198.3,92.7c0-0.4,0.2-0.6,0.6-0.6c0.4,0,0.6,0.2,0.6,0.6s-0.2,0.6-0.6,0.6C198.6,93.3,198.3,93,198.3,92.7z"
			/>
		<path class="st1" d="M203.8,93c-0.2,0.1-0.7,0.3-1.3,0.3c-1.4,0-2.3-1-2.3-2.3s1-2.5,2.5-2.5c0.5,0,1,0.1,1.2,0.2l-0.2,0.7
			c-0.2-0.1-0.5-0.2-1-0.2c-1.1,0-1.7,0.8-1.7,1.8c0,1.1,0.7,1.8,1.6,1.8c0.5,0,0.8-0.1,1-0.2L203.8,93z"/>
		<path class="st1" d="M209,90.8c0,1.7-1.2,2.5-2.3,2.5c-1.2,0-2.3-1-2.3-2.4c0-1.5,1-2.5,2.3-2.5C208.1,88.5,209,89.4,209,90.8z
			 M205.3,90.9c0,1,0.6,1.8,1.4,1.8c0.8,0,1.4-0.7,1.4-1.8c0-0.8-0.4-1.8-1.4-1.8C205.7,89.1,205.3,90,205.3,90.9z"/>
		<path class="st1" d="M210.1,89.8c0-0.5,0-0.9-0.1-1.2h0.7l0.1,0.7l0,0c0.3-0.4,0.7-0.9,1.5-0.9c0.7,0,1.1,0.4,1.3,1l0,0
			c0.1-0.3,0.4-0.4,0.5-0.6c0.3-0.2,0.6-0.3,1-0.3c0.6,0,1.5,0.4,1.5,2v2.7h-0.8v-2.6c0-0.9-0.4-1.4-1-1.4c-0.5,0-0.9,0.4-1,0.7
			c-0.1,0.1-0.1,0.3-0.1,0.4v2.9H213v-2.8c0-0.7-0.4-1.2-1-1.2c-0.5,0-1,0.4-1,0.9c-0.1,0.1-0.1,0.3-0.1,0.4v2.8h-0.8L210.1,89.8
			L210.1,89.8z"/>
		<path class="st1" d="M217.7,94.3c0.2-0.6,0.4-1.6,0.6-2.3l1-0.1c-0.2,0.8-0.7,1.9-1,2.3H217.7z"/>
		<path class="st1" d="M225.6,90.2h-2.6v2.3h2.9v0.7h-3.7v-6.4h3.5v0.7h-2.7v2.1h2.6V90.2z"/>
		<path class="st1" d="M229,90.3V91h-2.4v-0.7H229z"/>
		<path class="st1" d="M230,89.8c0-0.5,0-0.9-0.1-1.2h0.7l0.1,0.7l0,0c0.3-0.4,0.7-0.9,1.5-0.9c0.7,0,1.1,0.4,1.3,1l0,0
			c0.1-0.3,0.4-0.4,0.5-0.6c0.3-0.2,0.6-0.3,1-0.3c0.6,0,1.5,0.4,1.5,2v2.7h-0.8v-2.6c0-0.9-0.4-1.4-1-1.4c-0.5,0-0.9,0.4-1,0.7
			c-0.1,0.1-0.1,0.3-0.1,0.4v2.9h-0.8v-2.8c0-0.7-0.4-1.2-1-1.2c-0.5,0-1,0.4-1,0.9c-0.1,0.1-0.1,0.3-0.1,0.4v2.8H230L230,89.8
			L230,89.8z"/>
		<path class="st1" d="M240.7,93.2l-0.1-0.6l0,0c-0.3,0.4-0.7,0.7-1.5,0.7c-1,0-1.5-0.7-1.5-1.3c0-1.1,1-1.8,2.9-1.8v-0.1
			c0-0.4-0.1-1.1-1.1-1.1c-0.4,0-0.9,0.1-1.2,0.4l-0.2-0.6c0.4-0.2,1-0.4,1.5-0.4c1.5,0,1.8,1,1.8,1.9V92c0,0.4,0,0.8,0.1,1.1
			L240.7,93.2L240.7,93.2z M240.6,90.8c-1,0-2,0.1-2,1c0,0.5,0.4,0.8,0.8,0.8c0.6,0,1-0.4,1.1-0.8c0-0.1,0.1-0.1,0.1-0.3V90.8
			L240.6,90.8z"/>
		<path class="st1" d="M243.7,87.2c0,0.3-0.2,0.5-0.5,0.5s-0.5-0.2-0.5-0.5c0-0.3,0.2-0.5,0.5-0.5S243.7,86.9,243.7,87.2z
			 M242.8,93.2v-4.6h0.9v4.6H242.8z"/>
		<path class="st1" d="M245,86.4h0.9v6.8H245V86.4z"/>
		<path class="st1" d="M247.1,89.3c0-0.4,0.2-0.6,0.6-0.6c0.4,0,0.6,0.2,0.6,0.6c0,0.4-0.2,0.6-0.6,0.6
			C247.3,90,247.1,89.7,247.1,89.3z M247.1,92.7c0-0.4,0.2-0.6,0.6-0.6c0.4,0,0.6,0.2,0.6,0.6s-0.2,0.6-0.6,0.6
			C247.3,93.3,247.1,93,247.1,92.7z"/>
		<path class="st1" d="M255.7,90.8c0,1.7-1.2,2.5-2.3,2.5c-1.2,0-2.3-1-2.3-2.4c0-1.5,1-2.5,2.3-2.5
			C254.7,88.5,255.7,89.4,255.7,90.8z M251.9,90.9c0,1,0.6,1.8,1.4,1.8c0.8,0,1.4-0.7,1.4-1.8c0-0.8-0.4-1.8-1.4-1.8
			C252.4,89.1,251.9,90,251.9,90.9z"/>
		<path class="st1" d="M260.1,93c-0.2,0.1-0.7,0.3-1.3,0.3c-1.4,0-2.3-1-2.3-2.3s1-2.5,2.5-2.5c0.5,0,1,0.1,1.2,0.2l-0.2,0.7
			c-0.2-0.1-0.5-0.2-1-0.2c-1.1,0-1.7,0.8-1.7,1.8c0,1.1,0.7,1.8,1.6,1.8c0.5,0,0.8-0.1,1-0.2L260.1,93z"/>
		<path class="st1" d="M261.5,91c0,1.2,0.7,1.6,1.6,1.6c0.6,0,1-0.1,1.3-0.2l0.1,0.6c-0.3,0.1-0.8,0.3-1.5,0.3c-1.5,0-2.3-1-2.3-2.3
			c0-1.4,0.8-2.5,2.2-2.5c1.5,0,1.9,1.3,1.9,2.2c0,0.1,0,0.3,0,0.4H261.5z M263.9,90.4c0-0.5-0.2-1.4-1.2-1.4
			c-0.9,0-1.2,0.8-1.3,1.4H263.9z"/>
		<path class="st1" d="M268.5,93.2l-0.1-0.6l0,0c-0.3,0.4-0.7,0.7-1.5,0.7c-1,0-1.5-0.7-1.5-1.3c0-1.1,1-1.8,2.9-1.8v-0.1
			c0-0.4-0.1-1.1-1.1-1.1c-0.4,0-0.9,0.1-1.2,0.4l-0.2-0.6c0.4-0.2,1-0.4,1.5-0.4c1.5,0,1.8,1,1.8,1.9V92c0,0.4,0,0.8,0.1,1.1
			L268.5,93.2L268.5,93.2z M268.3,90.8c-1,0-2,0.1-2,1c0,0.5,0.4,0.8,0.8,0.8c0.6,0,1-0.4,1.1-0.8c0-0.1,0.1-0.1,0.1-0.3V90.8z"/>
		<path class="st1" d="M270.5,89.8c0-0.5,0-0.9-0.1-1.2h0.7l0.1,0.7l0,0c0.2-0.4,0.8-0.9,1.5-0.9c0.7,0,1.7,0.4,1.7,2v2.8h-0.9v-2.6
			c0-0.7-0.3-1.4-1.1-1.4c-0.6,0-1,0.4-1.2,0.9c-0.1,0.1-0.1,0.2-0.1,0.4v2.8h-0.9v-3.4H270.5z"/>
		<path class="st1" d="M275.9,90.1c0-0.6,0-1.1-0.1-1.5h0.7l0.1,0.8l0,0c0.4-0.6,0.9-0.9,1.7-0.9c1.1,0,2,1,2,2.3
			c0,1.7-1,2.5-2.1,2.5c-0.6,0-1.2-0.3-1.5-0.7l0,0v2.5h-0.9L275.9,90.1L275.9,90.1z M276.8,91.3c0,0.1,0,0.2,0.1,0.4
			c0.1,0.6,0.7,1,1.2,1c0.9,0,1.4-0.7,1.4-1.8c0-1-0.5-1.8-1.4-1.8c-0.6,0-1.1,0.4-1.3,1c0,0.1-0.1,0.2-0.1,0.4L276.8,91.3
			L276.8,91.3z"/>
		<path class="st1" d="M281.4,86.4h0.9v6.8h-0.9V86.4z"/>
		<path class="st1" d="M287.7,91.9c0,0.5,0,0.9,0.1,1.2H287l-0.1-0.7l0,0c-0.2,0.4-0.7,0.9-1.5,0.9c-0.7,0-1.6-0.4-1.6-2.1v-2.7h0.9
			v2.6c0,0.9,0.3,1.5,1,1.5c0.6,0,1-0.4,1.1-0.7c0.1-0.1,0.1-0.3,0.1-0.4v-2.9h0.9L287.7,91.9L287.7,91.9z"/>
		<path class="st1" d="M288.9,92.4c0.2,0.1,0.7,0.4,1.1,0.4c0.6,0,0.9-0.3,0.9-0.7c0-0.4-0.2-0.7-0.9-0.9c-0.9-0.3-1.2-0.7-1.2-1.3
			c0-0.7,0.6-1.4,1.6-1.4c0.4,0,0.9,0.1,1.2,0.3l-0.2,0.6c-0.2-0.1-0.5-0.3-1-0.3c-0.5,0-0.8,0.3-0.8,0.7s0.3,0.6,0.9,0.8
			c0.8,0.3,1.2,0.7,1.2,1.4c0,0.8-0.7,1.4-1.8,1.4c-0.5,0-1-0.1-1.3-0.3L288.9,92.4z"/>
		<path class="st1" d="M292.8,92.2c0.2,0.1,0.8,0.4,1.4,0.4c1.1,0,1.5-0.7,1.4-1.2c0-0.9-0.8-1.2-1.6-1.2h-0.4v-0.7h0.4
			c0.6,0,1.4-0.3,1.4-1c0-0.5-0.3-1-1.1-1c-0.5,0-1,0.2-1.2,0.4l-0.2-0.6c0.4-0.2,1-0.5,1.7-0.5c1.2,0,1.8,0.7,1.8,1.5
			c0,0.7-0.4,1.2-1.2,1.5l0,0c0.8,0.1,1.4,0.7,1.4,1.6c0,1-0.8,1.9-2.3,1.9c-0.7,0-1.3-0.2-1.6-0.4L292.8,92.2z"/>
		<path class="st1" d="M301.2,87.5c-0.1,0-0.4,0-0.7,0.1c-1.3,0.2-2.1,1.2-2.2,2.2l0,0c0.3-0.4,0.8-0.7,1.5-0.7c1.1,0,1.9,0.8,1.9,2
			c0,1.2-0.8,2.2-2.1,2.2c-1.3,0-2.2-1-2.2-2.6c0-1.2,0.4-2.2,1.1-2.8c0.5-0.5,1.2-0.8,2.1-1c0.2-0.1,0.4-0.1,0.6-0.1V87.5z
			 M300.9,91.1c0-0.9-0.5-1.4-1.3-1.4c-0.5,0-1,0.3-1.2,0.7c-0.1,0.1-0.1,0.2-0.1,0.4c0,1,0.5,1.8,1.4,1.8
			C300.5,92.7,300.9,92.1,300.9,91.1z"/>
		<path class="st1" d="M306.2,87.5c-0.1,0-0.4,0-0.7,0.1c-1.3,0.2-2.1,1.2-2.2,2.2l0,0c0.3-0.4,0.8-0.7,1.5-0.7c1.1,0,1.9,0.8,1.9,2
			c0,1.2-0.8,2.2-2.1,2.2c-1.3,0-2.2-1-2.2-2.6c0-1.2,0.4-2.2,1.1-2.8c0.5-0.5,1.2-0.8,2.1-1c0.2-0.1,0.4-0.1,0.6-0.1V87.5z
			 M305.9,91.1c0-0.9-0.5-1.4-1.3-1.4c-0.5,0-1,0.3-1.2,0.7c-0.1,0.1-0.1,0.2-0.1,0.4c0,1,0.5,1.8,1.4,1.8
			C305.5,92.7,305.9,92.1,305.9,91.1z"/>
		<path class="st1" d="M312.2,93.8c-0.5,0.3-1.1,0.4-1.8,0.4c-1.6,0-2.9-1.2-2.9-3c0-2,1.4-3.7,3.5-3.7c1.7,0,2.9,1.2,2.9,2.8
			c0,1.5-0.8,2.3-1.8,2.3c-0.4,0-0.7-0.3-0.7-0.9l0,0c-0.4,0.6-0.8,0.9-1.4,0.9c-0.6,0-1-0.4-1-1.2c0-1.2,1-2.3,2.3-2.3
			c0.4,0,0.8,0.1,1,0.2l-0.4,1.8c-0.1,0.7,0,1.1,0.3,1.1c0.5,0,1-0.7,1-1.8c0-1.4-0.9-2.4-2.3-2.4c-1.6,0-2.9,1.2-2.9,3.1
			c0,1.6,1,2.6,2.5,2.6c0.6,0,1.1-0.1,1.5-0.4L312.2,93.8z M311.7,89.7c-0.1,0-0.3-0.1-0.5-0.1c-0.9,0-1.5,0.8-1.5,1.8
			c0,0.4,0.2,0.7,0.7,0.7c0.6,0,1.1-0.7,1.2-1.3L311.7,89.7z"/>
		<path class="st1" d="M319,88.6c0,0.4-0.1,0.7-0.1,1.2v2.7c0,1.1-0.2,1.7-0.7,2.1c-0.4,0.4-1.1,0.6-1.7,0.6c-0.6,0-1.2-0.1-1.5-0.4
			l0.2-0.7c0.3,0.2,0.8,0.4,1.4,0.4c0.9,0,1.5-0.4,1.5-1.6v-0.5l0,0c-0.3,0.4-0.7,0.8-1.5,0.8c-1.2,0-2-1-2-2.3c0-1.5,1-2.5,2.1-2.5
			c0.8,0,1.2,0.4,1.5,0.8l0,0l0.1-0.7C318.4,88.6,319,88.6,319,88.6z M318.1,90.4c0-0.1,0-0.3-0.1-0.4c-0.1-0.5-0.6-0.9-1.2-0.9
			c-0.8,0-1.4,0.7-1.4,1.8c0,0.9,0.4,1.7,1.4,1.7c0.5,0,1-0.3,1.2-0.9c0.1-0.1,0.1-0.3,0.1-0.4V90.4z"/>
		<path class="st1" d="M320.3,89.8c0-0.5,0-0.9-0.1-1.2h0.7l0.1,0.7l0,0c0.3-0.4,0.7-0.9,1.5-0.9c0.7,0,1.1,0.4,1.3,1l0,0
			c0.1-0.3,0.4-0.4,0.5-0.6c0.3-0.2,0.6-0.3,1-0.3c0.6,0,1.5,0.4,1.5,2v2.7h-0.8v-2.6c0-0.9-0.4-1.4-1-1.4c-0.5,0-0.9,0.4-1,0.7
			c-0.1,0.1-0.1,0.3-0.1,0.4v2.9h-0.8v-2.8c0-0.7-0.4-1.2-1-1.2c-0.5,0-1,0.4-1,0.9c-0.1,0.1-0.1,0.3-0.1,0.4v2.8h-0.8V89.8z"/>
		<path class="st1" d="M331,93.2l-0.1-0.6l0,0c-0.3,0.4-0.7,0.7-1.5,0.7c-1,0-1.5-0.7-1.5-1.3c0-1.1,1-1.8,2.9-1.8v-0.1
			c0-0.4-0.1-1.1-1.1-1.1c-0.4,0-0.9,0.1-1.2,0.4l-0.2-0.6c0.4-0.2,1-0.4,1.5-0.4c1.5,0,1.8,1,1.8,1.9V92c0,0.4,0,0.8,0.1,1.1
			L331,93.2L331,93.2z M330.9,90.8c-1,0-2,0.1-2,1c0,0.5,0.4,0.8,0.8,0.8c0.6,0,1-0.4,1.1-0.8c0-0.1,0.1-0.1,0.1-0.3V90.8z"/>
		<path class="st1" d="M334,87.2c0,0.3-0.2,0.5-0.5,0.5s-0.5-0.2-0.5-0.5c0-0.3,0.2-0.5,0.5-0.5C333.8,86.7,334,86.9,334,87.2z
			 M333.1,93.2v-4.6h0.9v4.6H333.1z"/>
		<path class="st1" d="M335.3,86.4h0.9v6.8h-0.9V86.4z"/>
		<path class="st1" d="M337.3,92.7c0-0.4,0.2-0.6,0.6-0.6c0.4,0,0.6,0.2,0.6,0.6s-0.2,0.6-0.6,0.6C337.6,93.3,337.3,93,337.3,92.7z"
			/>
		<path class="st1" d="M342.9,93c-0.2,0.1-0.7,0.3-1.3,0.3c-1.4,0-2.3-1-2.3-2.3s1-2.5,2.5-2.5c0.5,0,1,0.1,1.2,0.2l-0.2,0.7
			c-0.2-0.1-0.5-0.2-1-0.2c-1.1,0-1.7,0.8-1.7,1.8c0,1.1,0.7,1.8,1.6,1.8c0.5,0,0.8-0.1,1-0.2L342.9,93z"/>
		<path class="st1" d="M348.1,90.8c0,1.7-1.2,2.5-2.3,2.5c-1.2,0-2.3-1-2.3-2.4c0-1.5,1-2.5,2.3-2.5
			C347.2,88.5,348.1,89.4,348.1,90.8z M344.3,90.9c0,1,0.6,1.8,1.4,1.8s1.4-0.7,1.4-1.8c0-0.8-0.4-1.8-1.4-1.8
			C344.8,89.1,344.3,90,344.3,90.9z"/>
		<path class="st1" d="M349.2,89.8c0-0.5,0-0.9-0.1-1.2h0.7l0.1,0.7l0,0c0.3-0.4,0.7-0.9,1.5-0.9c0.7,0,1.1,0.4,1.3,1l0,0
			c0.1-0.3,0.4-0.4,0.5-0.6c0.3-0.2,0.6-0.3,1-0.3c0.6,0,1.5,0.4,1.5,2v2.7H355v-2.6c0-0.9-0.4-1.4-1-1.4c-0.5,0-0.9,0.4-1,0.7
			c-0.1,0.1-0.1,0.3-0.1,0.4v2.9H352v-2.8c0-0.7-0.4-1.2-1-1.2c-0.5,0-1,0.4-1,0.9c-0.1,0.1-0.1,0.3-0.1,0.4v2.8h-0.8V89.8z"/>
	</g>
</g>
<g>
	<g>
		<path class="st2" d="M86.1,56.2c-1.6,0-2.8-0.6-3.6-1.7c-0.8-1.2-1.3-2.9-1.3-5.2c0-2.1,0.4-3.7,1.3-4.8c0.8-1.2,2-1.7,3.5-1.7
			c1.6,0,2.8,0.6,3.7,1.7s1.3,2.9,1.3,5c0,2.1-0.4,3.8-1.3,5S87.6,56.2,86.1,56.2z M83.7,42c-0.4,0-0.7-0.2-1-0.4
			c-0.2-0.2-0.4-0.6-0.4-1s0.2-0.6,0.4-1c0.2-0.2,0.6-0.4,1-0.4c0.4,0,0.6,0.2,1,0.4c0.2,0.2,0.4,0.6,0.4,1s-0.2,0.6-0.4,1
			C84.4,41.9,84.1,42,83.7,42z M85.9,45.6c-1,0-1.6,1.3-1.6,3.7c0,1.6,0.2,2.6,0.4,3.2c0.2,0.6,0.6,0.8,1.2,0.8s1-0.2,1.3-0.8
			c0.3-0.6,0.5-1.6,0.5-3.1C87.7,46.9,87.1,45.6,85.9,45.6z M88.1,42c-0.4,0-0.6-0.2-1-0.4c-0.2-0.2-0.4-0.6-0.4-1s0.2-0.6,0.4-1
			c0.2-0.2,0.6-0.4,1-0.4s0.7,0.2,1,0.4c0.2,0.2,0.4,0.6,0.4,1s-0.2,0.6-0.4,1C88.9,41.9,88.5,42,88.1,42z"/>
		<path class="st2" d="M99.8,52.9v3c-0.6,0.2-1.2,0.3-1.7,0.3c-1.7,0-3.1-0.6-4.1-1.9c-1-1.3-1.6-2.9-1.6-5c0-1.9,0.6-3.5,1.6-4.8
			c1.1-1.3,2.5-1.9,4.1-1.9c0.6,0,1.2,0.1,1.7,0.2V46c-0.6-0.2-1.1-0.3-1.6-0.3c-0.8,0-1.4,0.3-1.9,1s-0.8,1.6-0.8,2.6
			c0,1.2,0.2,2.1,0.8,2.7c0.6,0.6,1.2,1,2.1,1C98.8,53.2,99.3,53.1,99.8,52.9z"/>
		<path class="st2" d="M101.7,43.1h6v2.7h-3v2.4h2.6v2.7h-2.6v2.3h3v2.8h-6L101.7,43.1L101.7,43.1z"/>
		<path class="st2" d="M119.2,55.9h-3.1l-0.5-2.1h-3.1l-0.6,2.1h-3l3.5-12.9h3.3L119.2,55.9z M115.1,51.5c-0.5-1.9-0.8-3.7-1-5.5
			l0,0c-0.2,1.7-0.6,3.6-1,5.5H115.1z"/>
		<path class="st2" d="M120.7,43.1h3l3.7,7.4l-0.1-1.4v-6h2.9v12.9h-3l-3.7-7.3l0.1,1.6v5.7h-2.9V43.1z"/>
		<path class="st2" d="M137.9,43.1h3.7c1.3,0,2.3,0.4,3.1,1.1c0.8,0.7,1.2,1.7,1.2,2.9c0,1.3-0.4,2.2-1.2,2.9s-1.9,1-3.3,1H141v4.9
			H138L137.9,43.1L137.9,43.1z M140.9,45.5v3c0.6,0,1.2-0.2,1.4-0.4c0.3-0.2,0.5-0.6,0.5-1.1c0-0.6-0.2-1-0.5-1.2
			C142.1,45.7,141.6,45.5,140.9,45.5z"/>
		<path class="st2" d="M148.1,43.1h2.9v9.9h2.3v2.9H148L148.1,43.1L148.1,43.1z"/>
		<path class="st2" d="M155.2,43.1h3v9.1c0,0.4,0.1,0.8,0.3,1c0.2,0.2,0.6,0.4,1,0.4c0.4,0,0.7-0.2,1-0.4c0.2-0.2,0.3-0.6,0.3-1.1
			v-9h3v8.4c0,1.1-0.2,2.1-0.5,2.8c-0.3,0.7-0.8,1.2-1.4,1.5c-0.6,0.3-1.4,0.5-2.5,0.5c-1.6,0-2.7-0.4-3.3-1.2c-0.6-0.8-1-2.1-1-4.1
			L155.2,43.1L155.2,43.1z"/>
		<path class="st2" d="M166.4,55.7v-3c1,0.6,1.7,0.8,2.4,0.8c0.4,0,0.6-0.1,0.9-0.3c0.2-0.2,0.3-0.5,0.3-0.8c0-0.2-0.1-0.5-0.2-0.7
			c-0.2-0.2-0.5-0.5-0.9-0.8c-1-0.8-1.7-1.5-2.2-2.1c-0.5-0.6-0.7-1.4-0.7-2.2c0-1.1,0.3-2,1-2.7s1.6-1,2.8-1c0.8,0,1.7,0.2,2.5,0.6
			v2.9c-0.9-0.5-1.6-0.7-2.1-0.7c-0.4,0-0.6,0.1-0.9,0.2c-0.2,0.2-0.3,0.4-0.3,0.7c0,0.6,0.5,1.1,1.5,1.8c0.6,0.4,1.2,1,1.7,1.7
			c0.6,0.7,0.9,1.6,0.9,2.5c0,1.1-0.4,2.1-1.2,2.8c-0.8,0.7-1.7,1.1-3,1.1C168.1,56.2,167.3,56.1,166.4,55.7z"/>
		<path class="st2" d="M180.2,43.1h2.9v12.9h-2.9V43.1z"/>
		<path class="st2" d="M186,43.1h3l3.7,7.4l-0.1-1.4v-6h2.9v12.9h-3l-3.7-7.3l0.1,1.6v5.7h-2.9L186,43.1L186,43.1z"/>
		<path class="st2" d="M198.4,43.1h2.8c1.9,0,3.3,0.6,4.4,1.6c1,1.1,1.5,2.6,1.5,4.7c0,1.6-0.2,2.9-0.7,3.8c-0.5,1-1.2,1.7-2.1,2.1
			c-0.9,0.4-1.8,0.6-2.9,0.6h-2.9L198.4,43.1L198.4,43.1z M201.3,45.8v7.4c0.9-0.1,1.5-0.4,1.9-1c0.4-0.6,0.6-1.4,0.6-2.7
			c0-0.7-0.1-1.4-0.2-1.9c-0.2-0.6-0.3-1-0.6-1.2c-0.2-0.3-0.5-0.5-0.7-0.5C202.1,45.8,201.7,45.8,201.3,45.8z"/>
		<path class="st2" d="M208.9,43.1h3v9.1c0,0.4,0.1,0.8,0.3,1c0.2,0.2,0.6,0.4,1,0.4c0.4,0,0.7-0.2,1-0.4c0.2-0.2,0.3-0.6,0.3-1.1
			v-9h3v8.4c0,1.1-0.2,2.1-0.5,2.8c-0.3,0.7-0.8,1.2-1.4,1.5s-1.4,0.5-2.5,0.5c-1.6,0-2.7-0.4-3.3-1.2s-1-2.1-1-4.1V43.1L208.9,43.1
			z"/>
		<path class="st2" d="M220.2,55.7v-3c1,0.6,1.7,0.8,2.4,0.8c0.4,0,0.6-0.1,0.9-0.3c0.2-0.2,0.3-0.5,0.3-0.8c0-0.2-0.1-0.5-0.2-0.7
			c-0.2-0.2-0.5-0.5-0.9-0.8c-1-0.8-1.7-1.5-2.2-2.1c-0.5-0.6-0.7-1.4-0.7-2.2c0-1.1,0.3-2,1-2.7c0.7-0.7,1.6-1,2.8-1
			c0.8,0,1.7,0.2,2.5,0.6v2.9c-0.9-0.5-1.6-0.7-2.1-0.7c-0.4,0-0.6,0.1-0.9,0.2c-0.2,0.2-0.3,0.4-0.3,0.7c0,0.6,0.5,1.1,1.5,1.8
			c0.6,0.4,1.2,1,1.7,1.7c0.6,0.7,0.9,1.6,0.9,2.5c0,1.1-0.4,2.1-1.2,2.8s-1.7,1.1-3,1.1C221.8,56.2,221,56.1,220.2,55.7z"/>
		<path class="st2" d="M227.9,43.1h7.1V46H233v9.9h-3V46h-2L227.9,43.1L227.9,43.1z"/>
		<path class="st2" d="M236.8,43.1h3.4c1.4,0,2.5,0.3,3.3,1c0.8,0.7,1.2,1.7,1.2,2.9c0,0.6-0.2,1.2-0.5,1.8c-0.3,0.6-0.7,1-1.4,1.4
			l2.4,5.8h-3.1l-2.4-5.9h-0.1v5.9h-2.9V43.1z M239.8,45.5v3c1.3,0,2-0.5,2-1.4c0-0.6-0.2-1-0.5-1.3C241,45.7,240.5,45.6,239.8,45.5
			z"/>
		<path class="st2" d="M247.1,43.1h2.9v12.9h-2.9V43.1z"/>
		<path class="st2" d="M262.1,55.9H259l-0.5-2.1h-3.1l-0.6,2.1h-3l3.4-12.9h3.3L262.1,55.9z M258,51.5c-0.5-1.9-0.8-3.7-1-5.5l0,0
			c-0.2,1.7-0.6,3.6-1,5.5H258z"/>
		<path class="st2" d="M263.5,43.1h2.9v9.9h2.3v2.9h-5.3L263.5,43.1L263.5,43.1z"/>
		<path class="st2" d="M284.7,48.7v2.2c0,1.7-0.4,3-1.2,4c-0.8,1-1.9,1.4-3.3,1.4c-1.6,0-2.8-0.6-3.7-1.7s-1.3-2.9-1.3-5
			c0-2.2,0.4-3.9,1.3-5c0.9-1.1,2.1-1.7,3.8-1.7c1.8,0,3.2,1,4.1,2.9l-2.8,1.1c-0.2-0.4-0.5-0.7-0.6-0.9c-0.2-0.2-0.5-0.3-0.8-0.3
			c-0.6,0-1,0.3-1.3,1s-0.4,1.6-0.4,3c0,1.3,0.2,2.2,0.4,2.9c0.3,0.6,0.7,0.9,1.4,0.9c1,0,1.5-0.7,1.5-2.1h-1.4v-2.5h4.3V48.7z"/>
		<path class="st2" d="M296,55.9h-3.1l-0.5-2.1h-3.1l-0.6,2.1h-3l3.4-12.9h3.3L296,55.9z M291.9,51.5c-0.5-1.9-0.8-3.7-1-5.5l0,0
			c-0.2,1.7-0.6,3.6-1,5.5H291.9z"/>
		<path class="st2" d="M297.5,55.7v-3c1,0.6,1.7,0.8,2.4,0.8c0.4,0,0.6-0.1,0.9-0.3c0.2-0.2,0.3-0.5,0.3-0.8c0-0.2-0.1-0.5-0.2-0.7
			c-0.2-0.2-0.5-0.5-0.9-0.8c-1-0.8-1.7-1.5-2.2-2.1c-0.5-0.6-0.7-1.4-0.7-2.2c0-1.1,0.3-2,1-2.7c0.7-0.7,1.6-1,2.8-1
			c0.8,0,1.7,0.2,2.5,0.6v2.9c-0.9-0.5-1.6-0.7-2.1-0.7c-0.4,0-0.6,0.1-0.9,0.2c-0.2,0.2-0.3,0.4-0.3,0.7c0,0.6,0.5,1.1,1.5,1.8
			c0.6,0.4,1.2,1,1.7,1.7c0.6,0.7,0.9,1.6,0.9,2.5c0,1.1-0.4,2.1-1.2,2.8c-0.8,0.7-1.7,1.1-3,1.1C299.1,56.2,298.3,56.1,297.5,55.7z
			"/>
		<path class="st2" d="M310.2,43.1h7.1V46h-2.1v9.9h-3V46h-2V43.1z"/>
		<path class="st2" d="M319.1,43.1h3.4c1.4,0,2.5,0.3,3.3,1c0.8,0.7,1.2,1.7,1.2,2.9c0,0.6-0.2,1.2-0.5,1.8c-0.3,0.6-0.7,1-1.4,1.4
			l2.4,5.8h-3.1l-2.4-5.9H322v5.9h-2.9L319.1,43.1L319.1,43.1z M322,45.5v3c1.3,0,2-0.5,2-1.4c0-0.6-0.2-1-0.5-1.3
			C323.2,45.7,322.7,45.6,322,45.5z"/>
		<path class="st2" d="M338.4,55.9h-3.1l-0.5-2.1h-3.1l-0.6,2.1h-3l3.4-12.9h3.3L338.4,55.9z M334.2,51.5c-0.5-1.9-0.8-3.7-1-5.5
			l0,0c-0.2,1.7-0.6,3.6-1,5.5H334.2z"/>
		<path class="st2" d="M339.8,43.1h2.8c1.9,0,3.3,0.6,4.4,1.6c1,1.1,1.5,2.6,1.5,4.7c0,1.6-0.2,2.9-0.7,3.8c-0.5,1-1.2,1.7-2.1,2.1
			c-0.9,0.4-1.8,0.6-2.9,0.6h-2.9L339.8,43.1L339.8,43.1z M342.8,45.8v7.4c0.9-0.1,1.5-0.4,1.9-1c0.4-0.6,0.6-1.4,0.6-2.7
			c0-0.7-0.1-1.4-0.2-1.9c-0.2-0.6-0.3-1-0.6-1.2c-0.2-0.3-0.5-0.5-0.7-0.5C343.5,45.8,343.1,45.8,342.8,45.8z"/>
		<path class="st2" d="M350.5,43.1h2.9v12.9h-2.9V43.1z"/>
		<path class="st2" d="M356.4,43.1h3l3.7,7.4l-0.1-1.4v-6h2.9v12.9h-3l-3.7-7.3l0.1,1.6v5.7h-2.9L356.4,43.1L356.4,43.1z"/>
		<path class="st2" d="M377.7,48.7v2.2c0,1.7-0.4,3-1.2,4c-0.8,1-1.9,1.4-3.3,1.4c-1.6,0-2.8-0.6-3.7-1.7s-1.3-2.9-1.3-5
			c0-2.2,0.4-3.9,1.3-5c0.9-1.1,2.1-1.7,3.8-1.7c1.8,0,3.2,1,4.1,2.9l-2.8,1.1c-0.2-0.4-0.5-0.7-0.6-0.9c-0.2-0.2-0.5-0.3-0.8-0.3
			c-0.6,0-1,0.3-1.3,1c-0.2,0.6-0.4,1.6-0.4,3c0,1.3,0.2,2.2,0.4,2.9c0.3,0.6,0.7,0.9,1.4,0.9c1,0,1.5-0.7,1.5-2.1h-1.4v-2.5h4.3
			V48.7z"/>
	</g>
</g>
<g>
	
		<text transform="matrix(1.0126 0 0 1 957.4502 30.873)" class="st0" style="font-family:'AdobeArabic-Regular'; font-size:48.7526px;"></text>
</g>
<g>
	
		<text transform="matrix(1.0126 0 0 1 572.6689 89.5922)" class="st1" style="font-family:'MyriadPro-Regular'; font-size:13.0754px;">Mussafah -M 11, Plot no # 13, Shop no -17, Abu Dhabi, UAE.</text>
	
		<text transform="matrix(1.0126 0 0 1 640.6152 105.2924)" class="st1" style="font-family:'MyriadPro-Regular'; font-size:13.0754px;">Cell: +971556414602, 0567570506</text>
	
		<text transform="matrix(1.0126 0 0 1 557.1768 120.9921)" class="st1" style="font-family:'MyriadPro-Regular'; font-size:13.0754px;">Web: www.oceanplusgas.com, E-mail: oceanplus366@gmail.com</text>
</g>
<g>
	
		<text transform="matrix(1.0126 0 0 1 553.3486 65.0502)" class="st2" style="font-family:'TwCenMT-CondensedExtraBold'; font-size:24.8293px;">CEAN PLUS INDUSTRIAL GAS TRADING</text>
</g>
</svg>
